OpenSans-Thin.ufo
<glyph name="numbersign" format="2">
  <advance width="1323"/>
  <unicode hex="0023"/>
  <outline>
    <contour>
      <point x="956" y="946" type="line"/>
      <point x="1266" y="946" type="line"/>
      <point x="1266" y="995" type="line"/>
      <point x="965" y="995" type="line"/>
      <point x="1055" y="1462" type="line"/>
      <point x="1004" y="1462" type="line"/>
      <point x="913" y="995" type="line"/>
      <point x="506" y="995" type="line"/>
      <point x="596" y="1462" type="line"/>
      <point x="545" y="1462" type="line"/>
      <point x="455" y="995" type="line"/>
      <point x="137" y="995" type="line"/>
      <point x="137" y="946" type="line"/>
      <point x="446" y="946" type="line"/>
      <point x="362" y="514" type="line"/>
      <point x="57" y="514" type="line"/>
      <point x="57" y="465" type="line"/>
      <point x="354" y="465" type="line"/>
      <point x="264" y="0" type="line"/>
      <point x="315" y="0" type="line"/>
      <point x="406" y="465" type="line"/>
      <point x="813" y="465" type="line"/>
      <point x="723" y="0" type="line"/>
      <point x="774" y="0" type="line"/>
      <point x="864" y="465" type="line"/>
      <point x="1186" y="465" type="line"/>
      <point x="1186" y="514" type="line"/>
      <point x="872" y="514" type="line"/>
    </contour>
    <contour>
      <point x="414" y="514" type="line"/>
      <point x="498" y="946" type="line"/>
      <point x="905" y="946" type="line"/>
      <point x="821" y="514" type="line"/>
    </contour>
  </outline>
</glyph>
<glyph name="ampersand" format="2">
  <advance width="1438"/>
  <unicode hex="0026"/>
  <outline>
    <contour>
      <point x="623" y="1485" type="curve" smooth="yes"/>
      <point x="422" y="1485"/>
      <point x="285" y="1364"/>
      <point x="285" y="1180" type="curve" smooth="yes"/>
      <point x="285" y="1038"/>
      <point x="360" y="952"/>
      <point x="504" y="809" type="curve"/>
      <point x="264" y="694"/>
      <point x="129" y="596"/>
      <point x="129" y="367" type="curve" smooth="yes"/>
      <point x="129" y="117"/>
      <point x="313" y="-20"/>
      <point x="575" y="-20" type="curve" smooth="yes"/>
      <point x="819" y="-20"/>
      <point x="965" y="78"/>
      <point x="1092" y="215" type="curve"/>
      <point x="1294" y="0" type="line"/>
      <point x="1366" y="0" type="line"/>
      <point x="1124" y="250" type="line"/>
      <point x="1217" y="369"/>
      <point x="1290" y="504"/>
      <point x="1329" y="672" type="curve"/>
      <point x="1274" y="672" type="line"/>
      <point x="1241" y="520"/>
      <point x="1171" y="387"/>
      <point x="1090" y="289" type="curve"/>
      <point x="592" y="795" type="line"/>
      <point x="805" y="897"/>
      <point x="942" y="1001"/>
      <point x="942" y="1190" type="curve" smooth="yes"/>
      <point x="942" y="1372"/>
      <point x="809" y="1485"/>
    </contour>
    <contour>
      <point x="541" y="772" type="curve"/>
      <point x="1057" y="250" type="line"/>
      <point x="932" y="115"/>
      <point x="801" y="31"/>
      <point x="575" y="31" type="curve" smooth="yes"/>
      <point x="342" y="31"/>
      <point x="184" y="152"/>
      <point x="184" y="367" type="curve" smooth="yes"/>
      <point x="184" y="578"/>
      <point x="309" y="664"/>
    </contour>
    <contour>
      <point x="623" y="1434" type="curve" smooth="yes"/>
      <point x="782" y="1434"/>
      <point x="887" y="1341"/>
      <point x="887" y="1190" type="curve" smooth="yes"/>
      <point x="887" y="1022"/>
      <point x="758" y="922"/>
      <point x="551" y="831" type="curve"/>
      <point x="416" y="967"/>
      <point x="340" y="1055"/>
      <point x="340" y="1180" type="curve" smooth="yes"/>
      <point x="340" y="1335"/>
      <point x="446" y="1434"/>
    </contour>
  </outline>
</glyph>
<glyph name="quotesingle" format="2">
  <advance width="352"/>
  <unicode hex="0027"/>
  <outline>
    <contour>
      <point x="207" y="1462" type="line"/>
      <point x="150" y="1462" type="line"/>
      <point x="158" y="934" type="line"/>
      <point x="199" y="934" type="line"/>
    </contour>
  </outline>
</glyph>
<glyph name="asterisk" format="2">
  <advance width="1128"/>
  <unicode hex="002A"/>
  <outline>
    <contour>
      <point x="588" y="1552" type="line"/>
      <point x="530" y="1552" type="line"/>
      <point x="543" y="1130" type="line"/>
      <point x="145" y="1272" type="line"/>
      <point x="127" y="1217" type="line"/>
      <point x="532" y="1100" type="line"/>
      <point x="276" y="766" type="line"/>
      <point x="324" y="733" type="line"/>
      <point x="559" y="1079" type="line"/>
      <point x="797" y="731" type="line"/>
      <point x="844" y="766" type="line"/>
      <point x="588" y="1100" type="line"/>
      <point x="989" y="1217" type="line"/>
      <point x="973" y="1272" type="line"/>
      <point x="575" y="1130" type="line"/>
    </contour>
  </outline>
</glyph>
<glyph name="plus" format="2">
  <advance width="1167"/>
  <unicode hex="002B"/>
  <outline>
    <contour>
      <point x="608" y="748" type="line"/>
      <point x="608" y="1194" type="line"/>
      <point x="559" y="1194" type="line"/>
      <point x="559" y="748" type="line"/>
      <point x="113" y="748" type="line"/>
      <point x="113" y="698" type="line"/>
      <point x="559" y="698" type="line"/>
      <point x="559" y="252" type="line"/>
      <point x="608" y="252" type="line"/>
      <point x="608" y="698" type="line"/>
      <point x="1055" y="698" type="line"/>
      <point x="1055" y="748" type="line"/>
    </contour>
  </outline>
</glyph>
<glyph name="hyphen" format="2">
  <advance width="659"/>
  <unicode hex="002D"/>
  <outline>
    <contour>
      <point x="82" y="530" type="line"/>
      <point x="578" y="530" type="line"/>
      <point x="578" y="582" type="line"/>
      <point x="82" y="582" type="line"/>
    </contour>
  </outline>
</glyph>
<glyph name="three" format="2">
  <advance width="1167"/>
  <unicode hex="0033"/>
  <outline>
    <contour>
      <point x="963" y="1128" type="curve" smooth="yes"/>
      <point x="963" y="1356"/>
      <point x="799" y="1483"/>
      <point x="559" y="1483" type="curve" smooth="yes"/>
      <point x="379" y="1483"/>
      <point x="233" y="1423"/>
      <point x="113" y="1331" type="curve"/>
      <point x="141" y="1288" type="line"/>
      <point x="274" y="1384"/>
      <point x="406" y="1432"/>
      <point x="559" y="1432" type="curve" smooth="yes"/>
      <point x="768" y="1432"/>
      <point x="907" y="1333"/>
      <point x="907" y="1128" type="curve" smooth="yes"/>
      <point x="907" y="891"/>
      <point x="707" y="786"/>
      <point x="489" y="786" type="curve" smooth="yes"/>
      <point x="319" y="786" type="line"/>
      <point x="319" y="735" type="line"/>
      <point x="489" y="735" type="line" smooth="yes"/>
      <point x="762" y="735"/>
      <point x="952" y="643"/>
      <point x="952" y="397" type="curve" smooth="yes"/>
      <point x="952" y="174"/>
      <point x="801" y="31"/>
      <point x="506" y="31" type="curve" smooth="yes"/>
      <point x="354" y="31"/>
      <point x="199" y="72"/>
      <point x="96" y="123" type="curve"/>
      <point x="96" y="66" type="line"/>
      <point x="201" y="16"/>
      <point x="344" y="-20"/>
      <point x="506" y="-20" type="curve" smooth="yes"/>
      <point x="834" y="-20"/>
      <point x="1008" y="154"/>
      <point x="1008" y="397" type="curve" smooth="yes"/>
      <point x="1008" y="614"/>
      <point x="879" y="733"/>
      <point x="651" y="764" type="curve"/>
      <point x="651" y="768" type="line"/>
      <point x="829" y="799"/>
      <point x="963" y="936"/>
    </contour>
  </outline>
</glyph>
<glyph name="four" format="2">
  <advance width="1167"/>
  <unicode hex="0034"/>
  <outline>
    <contour>
      <point x="1147" y="397" type="line"/>
      <point x="1147" y="449" type="line"/>
      <point x="872" y="449" type="line"/>
      <point x="872" y="1470" type="line"/>
      <point x="815" y="1470" type="line"/>
      <point x="51" y="434" type="line"/>
      <point x="51" y="397" type="line"/>
      <point x="819" y="397" type="line"/>
      <point x="819" y="0" type="line"/>
      <point x="872" y="0" type="line"/>
      <point x="872" y="397" type="line"/>
    </contour>
    <contour>
      <point x="819" y="449" type="line"/>
      <point x="123" y="449" type="line"/>
      <point x="686" y="1212" type="line" smooth="yes"/>
      <point x="748" y="1296"/>
      <point x="770" y="1331"/>
      <point x="817" y="1405" type="curve"/>
      <point x="821" y="1405" type="line"/>
      <point x="819" y="1300"/>
      <point x="819" y="1249"/>
      <point x="819" y="1073" type="curve" smooth="yes"/>
    </contour>
  </outline>
</glyph>
<glyph name="five" format="2">
  <advance width="1167"/>
  <unicode hex="0035"/>
  <outline>
    <contour>
      <point x="561" y="872" type="curve" smooth="yes"/>
      <point x="422" y="872"/>
      <point x="326" y="848"/>
      <point x="258" y="831" type="curve"/>
      <point x="309" y="1411" type="line"/>
      <point x="946" y="1411" type="line"/>
      <point x="946" y="1462" type="line"/>
      <point x="262" y="1462" type="line"/>
      <point x="201" y="805" type="line"/>
      <point x="240" y="774" type="line"/>
      <point x="340" y="803"/>
      <point x="434" y="821"/>
      <point x="561" y="821" type="curve" smooth="yes"/>
      <point x="836" y="821"/>
      <point x="979" y="678"/>
      <point x="979" y="444" type="curve" smooth="yes"/>
      <point x="979" y="184"/>
      <point x="797" y="31"/>
      <point x="518" y="31" type="curve" smooth="yes"/>
      <point x="369" y="31"/>
      <point x="244" y="72"/>
      <point x="152" y="127" type="curve"/>
      <point x="152" y="66" type="line"/>
      <point x="238" y="16"/>
      <point x="362" y="-20"/>
      <point x="518" y="-20" type="curve" smooth="yes"/>
      <point x="825" y="-20"/>
      <point x="1034" y="156"/>
      <point x="1034" y="444" type="curve" smooth="yes"/>
      <point x="1034" y="719"/>
      <point x="854" y="872"/>
    </contour>
  </outline>
</glyph>
<glyph name="seven" format="2">
  <advance width="1167"/>
  <unicode hex="0037"/>
  <outline>
    <contour>
      <point x="375" y="0" type="line"/>
      <point x="434" y="0" type="line"/>
      <point x="1044" y="1427" type="line"/>
      <point x="1044" y="1462" type="line"/>
      <point x="119" y="1462" type="line"/>
      <point x="119" y="1411" type="line"/>
      <point x="983" y="1411" type="line"/>
    </contour>
  </outline>
</glyph>
<glyph name="nine" format="2">
  <advance width="1167"/>
  <unicode hex="0039"/>
  <outline>
    <contour>
      <point x="1024" y="846" type="curve" smooth="yes"/>
      <point x="1024" y="1163"/>
      <point x="903" y="1483"/>
      <point x="551" y="1483" type="curve" smooth="yes"/>
      <point x="272" y="1483"/>
      <point x="113" y="1288"/>
      <point x="113" y="1006" type="curve" smooth="yes"/>
      <point x="113" y="737"/>
      <point x="266" y="563"/>
      <point x="537" y="563" type="curve" smooth="yes"/>
      <point x="772" y="563"/>
      <point x="915" y="690"/>
      <point x="969" y="807" type="curve"/>
      <point x="973" y="807" type="line"/>
      <point x="961" y="254"/>
      <point x="731" y="27"/>
      <point x="412" y="27" type="curve" smooth="yes"/>
      <point x="326" y="27"/>
      <point x="240" y="41"/>
      <point x="190" y="59" type="curve"/>
      <point x="190" y="2" type="line"/>
      <point x="246" y="-14"/>
      <point x="332" y="-25"/>
      <point x="412" y="-25" type="curve" smooth="yes"/>
      <point x="762" y="-25"/>
      <point x="1024" y="219"/>
    </contour>
    <contour>
      <point x="551" y="1432" type="curve" smooth="yes"/>
      <point x="883" y="1432"/>
      <point x="958" y="1098"/>
      <point x="958" y="938" type="curve" smooth="yes"/>
      <point x="958" y="799"/>
      <point x="799" y="614"/>
      <point x="541" y="614" type="curve" smooth="yes"/>
      <point x="291" y="614"/>
      <point x="168" y="764"/>
      <point x="168" y="1006" type="curve" smooth="yes"/>
      <point x="168" y="1270"/>
      <point x="303" y="1432"/>
    </contour>
  </outline>
</glyph>
<glyph name="equal" format="2">
  <advance width="1167"/>
  <unicode hex="003D"/>
  <outline>
    <contour>
      <point x="113" y="907" type="line"/>
      <point x="1055" y="907" type="line"/>
      <point x="1055" y="956" type="line"/>
      <point x="113" y="956" type="line"/>
    </contour>
    <contour>
      <point x="113" y="489" type="line"/>
      <point x="1055" y="489" type="line"/>
      <point x="1055" y="539" type="line"/>
      <point x="113" y="539" type="line"/>
    </contour>
  </outline>
</glyph>
<glyph name="E" format="2">
  <advance width="1126"/>
  <unicode hex="0045"/>
  <anchor x="604" y="0" name="bottom"/>
  <anchor x="625" y="1462" name="top"/>
  <anchor x="1085" y="1462" name="topright"/>
  <outline>
    <contour>
      <point x="999" y="0" type="line"/>
      <point x="999" y="51" type="line"/>
      <point x="264" y="51" type="line"/>
      <point x="264" y="745" type="line"/>
      <point x="958" y="745" type="line"/>
      <point x="958" y="797" type="line"/>
      <point x="264" y="797" type="line"/>
      <point x="264" y="1411" type="line"/>
      <point x="999" y="1411" type="line"/>
      <point x="999" y="1462" type="line"/>
      <point x="211" y="1462" type="line"/>
      <point x="211" y="0" type="line"/>
    </contour>
  </outline>
</glyph>
<glyph name="K" format="2">
  <advance width="1143"/>
  <unicode hex="004B"/>
  <anchor x="571" y="0" name="bottom"/>
  <anchor x="571" y="1462" name="top"/>
  <anchor x="1102" y="1462" name="topright"/>
  <outline>
    <contour>
      <point x="1143" y="0" type="line"/>
      <point x="520" y="854" type="line"/>
      <point x="1130" y="1462" type="line"/>
      <point x="1053" y="1462" type="line"/>
      <point x="367" y="770" type="line" smooth="yes"/>
      <point x="330" y="733"/>
      <point x="295" y="698"/>
      <point x="264" y="664" type="curve"/>
      <point x="264" y="1462" type="line"/>
      <point x="211" y="1462" type="line"/>
      <point x="211" y="0" type="line"/>
      <point x="264" y="0" type="line"/>
      <point x="264" y="600" type="line"/>
      <point x="479" y="815" type="line"/>
      <point x="1073" y="0" type="line"/>
    </contour>
  </outline>
</glyph>
<glyph name="L" format="2">
  <advance width="1036"/>
  <unicode hex="004C"/>
  <anchor x="580" y="0" name="bottom"/>
  <anchor x="518" y="731" name="center"/>
  <anchor x="238" y="1462" name="top"/>
  <anchor x="913" y="1462" name="topright"/>
  <outline>
    <contour>
      <point x="211" y="0" type="line"/>
      <point x="995" y="0" type="line"/>
      <point x="995" y="51" type="line"/>
      <point x="264" y="51" type="line"/>
      <point x="264" y="1462" type="line"/>
      <point x="211" y="1462" type="line"/>
    </contour>
  </outline>
</glyph>
<glyph name="M" format="2">
  <advance width="1714"/>
  <unicode hex="004D"/>
  <anchor x="858" y="0" name="bottom"/>
  <anchor x="858" y="1462" name="top"/>
  <anchor x="1673" y="1462" name="topright"/>
  <outline>
    <contour>
      <point x="836" y="0" type="line"/>
      <point x="877" y="0" type="line"/>
      <point x="1446" y="1389" type="line"/>
      <point x="1450" y="1389" type="line"/>
      <point x="1448" y="1321"/>
      <point x="1448" y="1274"/>
      <point x="1448" y="1233" type="curve" smooth="yes"/>
      <point x="1448" y="0" type="line"/>
      <point x="1501" y="0" type="line"/>
      <point x="1501" y="1462" type="line"/>
      <point x="1419" y="1462" type="line"/>
      <point x="860" y="98" type="line"/>
      <point x="854" y="98" type="line"/>
      <point x="297" y="1462" type="line"/>
      <point x="211" y="1462" type="line"/>
      <point x="211" y="0" type="line"/>
      <point x="264" y="0" type="line"/>
      <point x="264" y="1221" type="line" smooth="yes"/>
      <point x="264" y="1282"/>
      <point x="264" y="1323"/>
      <point x="262" y="1391" type="curve"/>
      <point x="266" y="1391" type="line"/>
    </contour>
  </outline>
</glyph>
<glyph name="P" format="2">
  <advance width="1174"/>
  <unicode hex="0050"/>
  <anchor x="588" y="0" name="bottom"/>
  <anchor x="588" y="1462" name="top"/>
  <anchor x="1133" y="1462" name="topright"/>
  <outline>
    <contour>
      <point x="553" y="1462" type="curve" smooth="yes"/>
      <point x="211" y="1462" type="line"/>
      <point x="211" y="0" type="line"/>
      <point x="264" y="0" type="line"/>
      <point x="264" y="625" type="line"/>
      <point x="524" y="625" type="line" smooth="yes"/>
      <point x="848" y="625"/>
      <point x="1057" y="745"/>
      <point x="1057" y="1063" type="curve" smooth="yes"/>
      <point x="1057" y="1348"/>
      <point x="879" y="1462"/>
    </contour>
    <contour>
      <point x="545" y="1411" type="line" smooth="yes"/>
      <point x="856" y="1411"/>
      <point x="1001" y="1309"/>
      <point x="1001" y="1061" type="curve" smooth="yes"/>
      <point x="1001" y="762"/>
      <point x="807" y="676"/>
      <point x="520" y="676" type="curve" smooth="yes"/>
      <point x="264" y="676" type="line"/>
      <point x="264" y="1411" type="line"/>
    </contour>
  </outline>
</glyph>
<glyph name="R" format="2">
  <advance width="1182"/>
  <unicode hex="0052"/>
  <anchor x="608" y="0" name="bottom"/>
  <anchor x="592" y="1462" name="top"/>
  <anchor x="1141" y="1462" name="topright"/>
  <outline>
    <contour>
      <point x="537" y="1462" type="curve" smooth="yes"/>
      <point x="211" y="1462" type="line"/>
      <point x="211" y="0" type="line"/>
      <point x="264" y="0" type="line"/>
      <point x="264" y="655" type="line"/>
      <point x="670" y="655" type="line"/>
      <point x="1061" y="0" type="line"/>
      <point x="1128" y="0" type="line"/>
      <point x="727" y="670" type="line"/>
      <point x="934" y="725"/>
      <point x="1057" y="858"/>
      <point x="1057" y="1075" type="curve" smooth="yes"/>
      <point x="1057" y="1378"/>
      <point x="874" y="1462"/>
    </contour>
    <contour>
      <point x="526" y="1411" type="line" smooth="yes"/>
      <point x="846" y="1411"/>
      <point x="1001" y="1335"/>
      <point x="1001" y="1073" type="curve" smooth="yes"/>
      <point x="1001" y="840"/>
      <point x="836" y="707"/>
      <point x="598" y="707" type="curve" smooth="yes"/>
      <point x="264" y="707" type="line"/>
      <point x="264" y="1411" type="line"/>
    </contour>
  </outline>
</glyph>
<glyph name="S" format="2">
  <advance width="1112"/>
  <unicode hex="0053"/>
  <anchor x="557" y="0" name="bottom"/>
  <anchor x="557" y="1462" name="top"/>
  <anchor x="1071" y="1462" name="topright"/>
  <outline>
    <contour>
      <point x="1001" y="369" type="curve" smooth="yes"/>
      <point x="1001" y="610"/>
      <point x="827" y="686"/>
      <point x="567" y="768" type="curve" smooth="yes"/>
      <point x="356" y="834"/>
      <point x="186" y="895"/>
      <point x="186" y="1118" type="curve" smooth="yes"/>
      <point x="186" y="1337"/>
      <point x="375" y="1432"/>
      <point x="592" y="1432" type="curve" smooth="yes"/>
      <point x="700" y="1432"/>
      <point x="815" y="1415"/>
      <point x="942" y="1360" type="curve"/>
      <point x="965" y="1407" type="line"/>
      <point x="844" y="1460"/>
      <point x="725" y="1483"/>
      <point x="596" y="1483" type="curve" smooth="yes"/>
      <point x="338" y="1483"/>
      <point x="131" y="1360"/>
      <point x="131" y="1114" type="curve" smooth="yes"/>
      <point x="131" y="870"/>
      <point x="301" y="797"/>
      <point x="539" y="721" type="curve" smooth="yes"/>
      <point x="791" y="641"/>
      <point x="946" y="573"/>
      <point x="946" y="371" type="curve" smooth="yes"/>
      <point x="946" y="133"/>
      <point x="748" y="31"/>
      <point x="516" y="31" type="curve" smooth="yes"/>
      <point x="350" y="31"/>
      <point x="223" y="59"/>
      <point x="115" y="98" type="curve"/>
      <point x="115" y="39" type="line"/>
      <point x="213" y="10"/>
      <point x="324" y="-20"/>
      <point x="512" y="-20" type="curve" smooth="yes"/>
      <point x="778" y="-20"/>
      <point x="1001" y="104"/>
    </contour>
  </outline>
</glyph>
<glyph name="Z" format="2">
  <advance width="1184"/>
  <unicode hex="005A"/>
  <anchor x="592" y="0" name="bottom"/>
  <anchor x="592" y="1462" name="top"/>
  <anchor x="1143" y="1462" name="topright"/>
  <outline>
    <contour>
      <point x="1102" y="0" type="line"/>
      <point x="1102" y="51" type="line"/>
      <point x="150" y="51" type="line"/>
      <point x="1077" y="1425" type="line"/>
      <point x="1077" y="1462" type="line"/>
      <point x="131" y="1462" type="line"/>
      <point x="131" y="1411" type="line"/>
      <point x="1001" y="1411" type="line"/>
      <point x="74" y="37" type="line"/>
      <point x="74" y="0" type="line"/>
    </contour>
  </outline>
</glyph>
<glyph name="grave" format="2">
  <advance width="510"/>
  <unicode hex="0060"/>
  <outline>
    <contour>
      <point x="143" y="1569" type="curve"/>
      <point x="82" y="1569" type="line"/>
      <point x="82" y="1554" type="line"/>
      <point x="154" y="1462"/>
      <point x="276" y="1331"/>
      <point x="385" y="1241" type="curve"/>
      <point x="428" y="1241" type="line"/>
      <point x="428" y="1253" type="line"/>
      <point x="336" y="1335"/>
      <point x="203" y="1481"/>
    </contour>
  </outline>
</glyph>
<glyph name="j" format="2">
  <advance width="424"/>
  <unicode hex="006A"/>
  <anchor x="23" y="-492" name="bottom"/>
  <anchor x="213" y="1477" name="top"/>
  <anchor x="383" y="1477" name="topright"/>
  <outline>
    <contour>
      <point x="23" y="-492" type="curve" smooth="yes"/>
      <point x="139" y="-492"/>
      <point x="238" y="-412"/>
      <point x="238" y="-246" type="curve" smooth="yes"/>
      <point x="238" y="1081" type="line"/>
      <point x="184" y="1081" type="line"/>
      <point x="184" y="-238" type="line" smooth="yes"/>
      <point x="184" y="-365"/>
      <point x="131" y="-440"/>
      <point x="23" y="-440" type="curve" smooth="yes"/>
      <point x="-18" y="-440"/>
      <point x="-61" y="-436"/>
      <point x="-102" y="-418" type="curve"/>
      <point x="-102" y="-471" type="line"/>
      <point x="-70" y="-483"/>
      <point x="-29" y="-492"/>
    </contour>
    <contour>
      <point x="160" y="1413" type="curve" smooth="yes"/>
      <point x="160" y="1378"/>
      <point x="170" y="1350"/>
      <point x="211" y="1350" type="curve" smooth="yes"/>
      <point x="260" y="1350"/>
      <point x="266" y="1378"/>
      <point x="266" y="1413" type="curve" smooth="yes"/>
      <point x="266" y="1446"/>
      <point x="260" y="1477"/>
      <point x="211" y="1477" type="curve" smooth="yes"/>
      <point x="170" y="1477"/>
      <point x="160" y="1446"/>
    </contour>
  </outline>
</glyph>
<glyph name="p" format="2">
  <advance width="1194"/>
  <unicode hex="0070"/>
  <anchor x="213" y="-475" name="bottom"/>
  <anchor x="598" y="1081" name="top"/>
  <anchor x="1153" y="1081" name="topright"/>
  <outline>
    <contour>
      <point x="641" y="1102" type="curve" smooth="yes"/>
      <point x="416" y="1102"/>
      <point x="285" y="967"/>
      <point x="240" y="823" type="curve"/>
      <point x="236" y="823" type="line"/>
      <point x="231" y="1081" type="line"/>
      <point x="186" y="1081" type="line"/>
      <point x="186" y="-475" type="line"/>
      <point x="240" y="-475" type="line"/>
      <point x="240" y="-31" type="line" smooth="yes"/>
      <point x="240" y="55"/>
      <point x="240" y="145"/>
      <point x="236" y="238" type="curve"/>
      <point x="240" y="238" type="line"/>
      <point x="285" y="94"/>
      <point x="406" y="-20"/>
      <point x="621" y="-20" type="curve" smooth="yes"/>
      <point x="909" y="-20"/>
      <point x="1077" y="186"/>
      <point x="1077" y="551" type="curve" smooth="yes"/>
      <point x="1077" y="911"/>
      <point x="928" y="1102"/>
    </contour>
    <contour>
      <point x="641" y="1051" type="curve" smooth="yes"/>
      <point x="891" y="1051"/>
      <point x="1022" y="889"/>
      <point x="1022" y="551" type="curve" smooth="yes"/>
      <point x="1022" y="207"/>
      <point x="872" y="31"/>
      <point x="621" y="31" type="curve" smooth="yes"/>
      <point x="387" y="31"/>
      <point x="240" y="188"/>
      <point x="240" y="537" type="curve" smooth="yes"/>
      <point x="240" y="543" type="line" smooth="yes"/>
      <point x="240" y="862"/>
      <point x="379" y="1051"/>
    </contour>
  </outline>
</glyph>
<glyph name="t" format="2">
  <advance width="653"/>
  <unicode hex="0074"/>
  <anchor x="391" y="0" name="bottom"/>
  <anchor x="328" y="541" name="center"/>
  <anchor x="223" y="1350" name="top"/>
  <anchor x="612" y="1350" name="topright"/>
  <outline>
    <contour>
      <point x="434" y="31" type="curve" smooth="yes"/>
      <point x="283" y="31"/>
      <point x="240" y="125"/>
      <point x="240" y="293" type="curve" smooth="yes"/>
      <point x="240" y="1030" type="line"/>
      <point x="592" y="1030" type="line"/>
      <point x="592" y="1081" type="line"/>
      <point x="240" y="1081" type="line"/>
      <point x="240" y="1350" type="line"/>
      <point x="197" y="1350" type="line"/>
      <point x="184" y="1081" type="line"/>
      <point x="20" y="1075" type="line"/>
      <point x="20" y="1030" type="line"/>
      <point x="186" y="1030" type="line"/>
      <point x="186" y="287" type="line" smooth="yes"/>
      <point x="186" y="96"/>
      <point x="244" y="-20"/>
      <point x="434" y="-20" type="curve" smooth="yes"/>
      <point x="506" y="-20"/>
      <point x="551" y="-8"/>
      <point x="596" y="6" type="curve"/>
      <point x="596" y="57" type="line"/>
      <point x="551" y="41"/>
      <point x="502" y="31"/>
    </contour>
  </outline>
</glyph>
<glyph name="w" format="2">
  <advance width="1403"/>
  <unicode hex="0077"/>
  <anchor x="702" y="0" name="bottom"/>
  <anchor x="702" y="1081" name="top"/>
  <anchor x="1362" y="1081" name="topright"/>
  <outline>
    <contour>
      <point x="1036" y="-2" type="line"/>
      <point x="1081" y="-2" type="line"/>
      <point x="1370" y="1079" type="line"/>
      <point x="1317" y="1079" type="line"/>
      <point x="1114" y="319" type="line" smooth="yes"/>
      <point x="1083" y="203"/>
      <point x="1067" y="147"/>
      <point x="1059" y="84" type="curve"/>
      <point x="1055" y="84" type="line"/>
      <point x="1038" y="147"/>
      <point x="1018" y="217"/>
      <point x="985" y="322" type="curve" smooth="yes"/>
      <point x="741" y="1079" type="line"/>
      <point x="698" y="1079" type="line"/>
      <point x="442" y="319" type="line" smooth="yes"/>
      <point x="401" y="195"/>
      <point x="389" y="147"/>
      <point x="373" y="84" type="curve"/>
      <point x="369" y="84" type="line"/>
      <point x="354" y="147"/>
      <point x="342" y="195"/>
      <point x="307" y="319" type="curve" smooth="yes"/>
      <point x="92" y="1079" type="line"/>
      <point x="33" y="1079" type="line"/>
      <point x="346" y="-2" type="line"/>
      <point x="391" y="-2" type="line"/>
      <point x="655" y="795" type="line" smooth="yes"/>
      <point x="678" y="860"/>
      <point x="694" y="913"/>
      <point x="715" y="987" type="curve"/>
      <point x="719" y="987" type="line"/>
      <point x="739" y="913"/>
      <point x="756" y="866"/>
      <point x="778" y="795" type="curve" smooth="yes"/>
    </contour>
  </outline>
</glyph>
<glyph name="braceleft" format="2">
  <advance width="690"/>
  <unicode hex="007B"/>
  <outline>
    <contour>
      <point x="614" y="-324" type="curve"/>
      <point x="614" y="-272" type="line"/>
      <point x="420" y="-272"/>
      <point x="334" y="-201"/>
      <point x="334" y="-41" type="curve" smooth="yes"/>
      <point x="334" y="311" type="line" smooth="yes"/>
      <point x="334" y="451"/>
      <point x="293" y="545"/>
      <point x="172" y="567" type="curve"/>
      <point x="172" y="571" type="line"/>
      <point x="293" y="594"/>
      <point x="334" y="688"/>
      <point x="334" y="827" type="curve" smooth="yes"/>
      <point x="334" y="1174" type="line" smooth="yes"/>
      <point x="334" y="1339"/>
      <point x="420" y="1411"/>
      <point x="614" y="1411" type="curve"/>
      <point x="614" y="1462" type="line"/>
      <point x="391" y="1462"/>
      <point x="279" y="1364"/>
      <point x="279" y="1186" type="curve" smooth="yes"/>
      <point x="279" y="836" type="line" smooth="yes"/>
      <point x="279" y="659"/>
      <point x="217" y="594"/>
      <point x="53" y="594" type="curve"/>
      <point x="53" y="545" type="line"/>
      <point x="217" y="545"/>
      <point x="279" y="473"/>
      <point x="279" y="303" type="curve" smooth="yes"/>
      <point x="279" y="-47" type="line" smooth="yes"/>
      <point x="279" y="-225"/>
      <point x="391" y="-324"/>
    </contour>
  </outline>
</glyph>
<glyph name="bar" format="2">
  <advance width="1096"/>
  <unicode hex="007C"/>
  <outline>
    <contour>
      <point x="518" y="1563" type="line"/>
      <point x="518" y="-514" type="line"/>
      <point x="569" y="-514" type="line"/>
      <point x="569" y="1563" type="line"/>
    </contour>
  </outline>
</glyph>
<glyph name="cent" format="2">
  <advance width="1167"/>
  <unicode hex="00A2"/>
  <outline>
    <contour>
      <point x="692" y="1483" type="line"/>
      <point x="641" y="1483" type="line"/>
      <point x="641" y="1303" type="line"/>
      <point x="348" y="1274"/>
      <point x="174" y="1047"/>
      <point x="174" y="739" type="curve" smooth="yes"/>
      <point x="174" y="432"/>
      <point x="317" y="199"/>
      <point x="641" y="184" type="curve"/>
      <point x="641" y="-20" type="line"/>
      <point x="692" y="-20" type="line"/>
      <point x="692" y="184" type="line"/>
      <point x="797" y="186"/>
      <point x="887" y="211"/>
      <point x="950" y="238" type="curve"/>
      <point x="950" y="289" type="line"/>
      <point x="870" y="256"/>
      <point x="770" y="236"/>
      <point x="672" y="236" type="curve" smooth="yes"/>
      <point x="360" y="236"/>
      <point x="229" y="461"/>
      <point x="229" y="739" type="curve" smooth="yes"/>
      <point x="229" y="1042"/>
      <point x="412" y="1255"/>
      <point x="707" y="1255" type="curve" smooth="yes"/>
      <point x="784" y="1255"/>
      <point x="866" y="1243"/>
      <point x="948" y="1206" type="curve"/>
      <point x="958" y="1257" type="line"/>
      <point x="877" y="1292"/>
      <point x="801" y="1307"/>
      <point x="692" y="1307" type="curve"/>
    </contour>
  </outline>
</glyph>
<glyph name="currency" format="2">
  <advance width="1167"/>
  <unicode hex="00A4"/>
  <outline>
    <contour>
      <point x="172" y="725" type="curve" smooth="yes"/>
      <point x="172" y="627"/>
      <point x="207" y="528"/>
      <point x="274" y="451" type="curve"/>
      <point x="117" y="291" type="line"/>
      <point x="147" y="258" type="line"/>
      <point x="307" y="418" type="line"/>
      <point x="385" y="348"/>
      <point x="483" y="313"/>
      <point x="582" y="313" type="curve" smooth="yes"/>
      <point x="680" y="313"/>
      <point x="780" y="348"/>
      <point x="858" y="418" type="curve"/>
      <point x="1016" y="258" type="line"/>
      <point x="1049" y="291" type="line"/>
      <point x="889" y="451" type="line"/>
      <point x="958" y="528"/>
      <point x="993" y="627"/>
      <point x="993" y="725" type="curve" smooth="yes"/>
      <point x="993" y="823"/>
      <point x="958" y="922"/>
      <point x="889" y="999" type="curve"/>
      <point x="1047" y="1157" type="line"/>
      <point x="1016" y="1190" type="line"/>
      <point x="858" y="1032" type="line"/>
      <point x="780" y="1102"/>
      <point x="680" y="1137"/>
      <point x="582" y="1137" type="curve" smooth="yes"/>
      <point x="483" y="1137"/>
      <point x="385" y="1102"/>
      <point x="307" y="1032" type="curve"/>
      <point x="147" y="1192" type="line"/>
      <point x="117" y="1159" type="line"/>
      <point x="274" y="999" type="line"/>
      <point x="207" y="922"/>
      <point x="172" y="823"/>
    </contour>
    <contour>
      <point x="217" y="725" type="curve" smooth="yes"/>
      <point x="217" y="928"/>
      <point x="383" y="1092"/>
      <point x="584" y="1092" type="curve" smooth="yes"/>
      <point x="782" y="1092"/>
      <point x="948" y="926"/>
      <point x="948" y="727" type="curve" smooth="yes"/>
      <point x="948" y="526"/>
      <point x="782" y="358"/>
      <point x="580" y="358" type="curve" smooth="yes"/>
      <point x="385" y="358"/>
      <point x="217" y="516"/>
    </contour>
  </outline>
</glyph>
<glyph name="yen" format="2">
  <advance width="1167"/>
  <unicode hex="00A5"/>
  <outline>
    <contour>
      <point x="586" y="688" type="line"/>
      <point x="115" y="1462" type="line"/>
      <point x="51" y="1462" type="line"/>
      <point x="541" y="662" type="line"/>
      <point x="199" y="662" type="line"/>
      <point x="199" y="610" type="line"/>
      <point x="559" y="610" type="line"/>
      <point x="559" y="383" type="line"/>
      <point x="199" y="383" type="line"/>
      <point x="199" y="332" type="line"/>
      <point x="559" y="332" type="line"/>
      <point x="559" y="0" type="line"/>
      <point x="612" y="0" type="line"/>
      <point x="612" y="332" type="line"/>
      <point x="971" y="332" type="line"/>
      <point x="971" y="383" type="line"/>
      <point x="612" y="383" type="line"/>
      <point x="612" y="610" type="line"/>
      <point x="971" y="610" type="line"/>
      <point x="971" y="662" type="line"/>
      <point x="627" y="662" type="line"/>
      <point x="1116" y="1462" type="line"/>
      <point x="1053" y="1462" type="line"/>
    </contour>
  </outline>
</glyph>
<glyph name="brokenbar" format="2">
  <advance width="1096"/>
  <unicode hex="00A6"/>
  <outline>
    <contour>
      <point x="518" y="1563" type="line"/>
      <point x="518" y="809" type="line"/>
      <point x="569" y="809" type="line"/>
      <point x="569" y="1563" type="line"/>
    </contour>
    <contour>
      <point x="518" y="242" type="line"/>
      <point x="518" y="-514" type="line"/>
      <point x="569" y="-514" type="line"/>
      <point x="569" y="242" type="line"/>
    </contour>
  </outline>
</glyph>
<glyph name="section" format="2">
  <advance width="1061"/>
  <unicode hex="00A7"/>
  <outline>
    <contour>
      <point x="168" y="809" type="curve" smooth="yes"/>
      <point x="168" y="616"/>
      <point x="315" y="569"/>
      <point x="498" y="514" type="curve" smooth="yes"/>
      <point x="672" y="463"/>
      <point x="813" y="416"/>
      <point x="813" y="272" type="curve" smooth="yes"/>
      <point x="813" y="137"/>
      <point x="715" y="47"/>
      <point x="477" y="47" type="curve" smooth="yes"/>
      <point x="354" y="47"/>
      <point x="238" y="74"/>
      <point x="133" y="125" type="curve"/>
      <point x="133" y="66" type="line"/>
      <point x="209" y="33"/>
      <point x="334" y="-2"/>
      <point x="477" y="-2" type="curve" smooth="yes"/>
      <point x="737" y="-2"/>
      <point x="866" y="106"/>
      <point x="866" y="272" type="curve" smooth="yes"/>
      <point x="866" y="395"/>
      <point x="791" y="457"/>
      <point x="690" y="500" type="curve"/>
      <point x="799" y="553"/>
      <point x="879" y="649"/>
      <point x="879" y="780" type="curve" smooth="yes"/>
      <point x="879" y="979"/>
      <point x="702" y="1024"/>
      <point x="528" y="1079" type="curve" smooth="yes"/>
      <point x="369" y="1130"/>
      <point x="233" y="1155"/>
      <point x="233" y="1296" type="curve" smooth="yes"/>
      <point x="233" y="1436"/>
      <point x="348" y="1505"/>
      <point x="539" y="1505" type="curve" smooth="yes"/>
      <point x="643" y="1505"/>
      <point x="758" y="1483"/>
      <point x="831" y="1446" type="curve"/>
      <point x="854" y="1495" type="line"/>
      <point x="770" y="1530"/>
      <point x="662" y="1554"/>
      <point x="539" y="1554" type="curve" smooth="yes"/>
      <point x="317" y="1554"/>
      <point x="180" y="1458"/>
      <point x="180" y="1296" type="curve" smooth="yes"/>
      <point x="180" y="1165"/>
      <point x="268" y="1112"/>
      <point x="389" y="1069" type="curve"/>
      <point x="258" y="1026"/>
      <point x="168" y="942"/>
    </contour>
    <contour>
      <point x="221" y="809" type="curve" smooth="yes"/>
      <point x="221" y="942"/>
      <point x="326" y="1012"/>
      <point x="461" y="1047" type="curve"/>
      <point x="692" y="989"/>
      <point x="825" y="930"/>
      <point x="825" y="780" type="curve" smooth="yes"/>
      <point x="825" y="662"/>
      <point x="752" y="569"/>
      <point x="637" y="522" type="curve"/>
      <point x="514" y="561" type="line" smooth="yes"/>
      <point x="354" y="612"/>
      <point x="221" y="647"/>
    </contour>
  </outline>
</glyph>
<glyph name="copyright" format="2">
  <advance width="1704"/>
  <unicode hex="00A9"/>
  <outline>
    <contour>
      <point x="852" y="-16" type="curve" smooth="yes"/>
      <point x="1264" y="-16"/>
      <point x="1602" y="319"/>
      <point x="1602" y="731" type="curve" smooth="yes"/>
      <point x="1602" y="1118"/>
      <point x="1288" y="1479"/>
      <point x="852" y="1479" type="curve" smooth="yes"/>
      <point x="444" y="1479"/>
      <point x="102" y="1157"/>
      <point x="102" y="731" type="curve" smooth="yes"/>
      <point x="102" y="322"/>
      <point x="414" y="-16"/>
    </contour>
    <contour>
      <point x="891" y="293" type="curve" smooth="yes"/>
      <point x="983" y="293"/>
      <point x="1057" y="307"/>
      <point x="1126" y="336" type="curve"/>
      <point x="1126" y="385" type="line"/>
      <point x="1044" y="354"/>
      <point x="987" y="344"/>
      <point x="891" y="344" type="curve" smooth="yes"/>
      <point x="682" y="344"/>
      <point x="526" y="473"/>
      <point x="526" y="729" type="curve" smooth="yes"/>
      <point x="526" y="969"/>
      <point x="680" y="1118"/>
      <point x="899" y="1118" type="curve" smooth="yes"/>
      <point x="1001" y="1118"/>
      <point x="1071" y="1100"/>
      <point x="1135" y="1071" type="curve"/>
      <point x="1157" y="1118" type="line"/>
      <point x="1087" y="1151"/>
      <point x="1018" y="1171"/>
      <point x="899" y="1171" type="curve" smooth="yes"/>
      <point x="647" y="1171"/>
      <point x="471" y="997"/>
      <point x="471" y="729" type="curve" smooth="yes"/>
      <point x="471" y="436"/>
      <point x="639" y="293"/>
    </contour>
    <contour>
      <point x="852" y="35" type="curve" smooth="yes"/>
      <point x="436" y="35"/>
      <point x="156" y="352"/>
      <point x="156" y="731" type="curve" smooth="yes"/>
      <point x="156" y="1118"/>
      <point x="461" y="1427"/>
      <point x="852" y="1427" type="curve" smooth="yes"/>
      <point x="1251" y="1427"/>
      <point x="1548" y="1106"/>
      <point x="1548" y="731" type="curve" smooth="yes"/>
      <point x="1548" y="360"/>
      <point x="1251" y="35"/>
    </contour>
  </outline>
</glyph>
<glyph name="overscore" format="2">
  <advance width="1024"/>
  <unicode hex="00AF"/>
  <outline>
    <contour>
      <point x="1030" y="1556" type="line"/>
      <point x="1030" y="1608" type="line"/>
      <point x="-6" y="1608" type="line"/>
      <point x="-6" y="1556" type="line"/>
    </contour>
  </outline>
</glyph>
<glyph name="micro" format="2">
  <advance width="1188"/>
  <unicode hex="00B5"/>
  <outline>
    <contour>
      <point x="1001" y="1081" type="line"/>
      <point x="950" y="1081" type="line"/>
      <point x="950" y="465" type="line" smooth="yes"/>
      <point x="950" y="188"/>
      <point x="852" y="31"/>
      <point x="578" y="31" type="curve" smooth="yes"/>
      <point x="346" y="31"/>
      <point x="236" y="147"/>
      <point x="236" y="379" type="curve" smooth="yes"/>
      <point x="236" y="1081" type="line"/>
      <point x="184" y="1081" type="line"/>
      <point x="184" y="-492" type="line"/>
      <point x="236" y="-492" type="line"/>
      <point x="236" y="-37" type="line" smooth="yes"/>
      <point x="236" y="25"/>
      <point x="236" y="92"/>
      <point x="236" y="145" type="curve"/>
      <point x="240" y="145" type="line"/>
      <point x="289" y="45"/>
      <point x="397" y="-20"/>
      <point x="578" y="-20" type="curve" smooth="yes"/>
      <point x="809" y="-20"/>
      <point x="891" y="78"/>
      <point x="944" y="193" type="curve"/>
      <point x="948" y="193" type="line"/>
      <point x="954" y="0" type="line"/>
      <point x="1001" y="0" type="line"/>
    </contour>
  </outline>
</glyph>
<glyph name="paragraph" format="2">
  <advance width="1341"/>
  <unicode hex="00B6"/>
  <outline>
    <contour>
      <point x="1059" y="-260" type="line"/>
      <point x="1059" y="1556" type="line"/>
      <point x="563" y="1556" type="line" smooth="yes"/>
      <point x="311" y="1556"/>
      <point x="195" y="1403"/>
      <point x="195" y="1141" type="curve" smooth="yes"/>
      <point x="195" y="897"/>
      <point x="305" y="709"/>
      <point x="532" y="709" type="curve" smooth="yes"/>
      <point x="592" y="709"/>
      <point x="633" y="715"/>
      <point x="678" y="727" type="curve"/>
      <point x="678" y="-260" type="line"/>
      <point x="731" y="-260" type="line"/>
      <point x="731" y="1505" type="line"/>
      <point x="1006" y="1505" type="line"/>
      <point x="1006" y="-260" type="line"/>
    </contour>
  </outline>
</glyph>
<glyph name="cedilla" format="2">
  <advance width="395"/>
  <unicode hex="00B8"/>
  <outline>
    <contour>
      <point x="369" y="-297" type="curve" smooth="yes"/>
      <point x="369" y="-199"/>
      <point x="299" y="-139"/>
      <point x="180" y="-133" type="curve"/>
      <point x="248" y="0" type="line"/>
      <point x="197" y="0" type="line"/>
      <point x="106" y="-174" type="line"/>
      <point x="252" y="-174"/>
      <point x="317" y="-213"/>
      <point x="317" y="-299" type="curve" smooth="yes"/>
      <point x="317" y="-391"/>
      <point x="242" y="-442"/>
      <point x="137" y="-442" type="curve" smooth="yes"/>
      <point x="86" y="-442"/>
      <point x="55" y="-440"/>
      <point x="20" y="-430" type="curve"/>
      <point x="20" y="-479" type="line"/>
      <point x="51" y="-487"/>
      <point x="86" y="-492"/>
      <point x="137" y="-492" type="curve" smooth="yes"/>
      <point x="270" y="-492"/>
      <point x="369" y="-416"/>
    </contour>
  </outline>
</glyph>
<glyph name="onesuperior" format="2">
  <advance width="672"/>
  <unicode hex="00B9"/>
  <outline>
    <contour>
      <point x="395" y="1729" type="line"/>
      <point x="354" y="1729" type="line"/>
      <point x="76" y="1579" type="line"/>
      <point x="98" y="1534" type="line"/>
      <point x="195" y="1585" type="line" smooth="yes"/>
      <point x="260" y="1620"/>
      <point x="297" y="1638"/>
      <point x="344" y="1669" type="curve"/>
      <point x="342" y="1595"/>
      <point x="342" y="1503"/>
      <point x="342" y="1425" type="curve" smooth="yes"/>
      <point x="342" y="852" type="line"/>
      <point x="395" y="852" type="line"/>
    </contour>
  </outline>
</glyph>
<glyph name="ordmasculine" format="2">
  <advance width="721"/>
  <unicode hex="00BA"/>
  <anchor x="362" y="809" name="bottom"/>
  <anchor x="369" y="1485" name="top"/>
  <outline>
    <contour>
      <point x="651" y="1147" type="curve" smooth="yes"/>
      <point x="651" y="1335"/>
      <point x="565" y="1485"/>
      <point x="369" y="1485" type="curve" smooth="yes"/>
      <point x="188" y="1485"/>
      <point x="76" y="1354"/>
      <point x="76" y="1147" type="curve" smooth="yes"/>
      <point x="76" y="954"/>
      <point x="174" y="809"/>
      <point x="362" y="809" type="curve" smooth="yes"/>
      <point x="555" y="809"/>
      <point x="651" y="956"/>
    </contour>
    <contour>
      <point x="131" y="1147" type="curve" smooth="yes"/>
      <point x="131" y="1325"/>
      <point x="219" y="1434"/>
      <point x="369" y="1434" type="curve" smooth="yes"/>
      <point x="528" y="1434"/>
      <point x="596" y="1303"/>
      <point x="596" y="1147" type="curve" smooth="yes"/>
      <point x="596" y="983"/>
      <point x="522" y="860"/>
      <point x="362" y="860" type="curve" smooth="yes"/>
      <point x="209" y="860"/>
      <point x="131" y="981"/>
    </contour>
  </outline>
</glyph>
<glyph name="AE" format="2">
  <advance width="1563"/>
  <unicode hex="00C6"/>
  <anchor x="782" y="0" name="bottom"/>
  <anchor x="782" y="1462" name="top"/>
  <outline>
    <contour>
      <point x="1536" y="0" type="line"/>
      <point x="1536" y="51" type="line"/>
      <point x="801" y="51" type="line"/>
      <point x="801" y="745" type="line"/>
      <point x="1495" y="745" type="line"/>
      <point x="1495" y="797" type="line"/>
      <point x="801" y="797" type="line"/>
      <point x="801" y="1411" type="line"/>
      <point x="1536" y="1411" type="line"/>
      <point x="1536" y="1462" type="line"/>
      <point x="627" y="1462" type="line"/>
      <point x="-2" y="0" type="line"/>
      <point x="61" y="0" type="line"/>
      <point x="295" y="553" type="line"/>
      <point x="748" y="553" type="line"/>
      <point x="748" y="0" type="line"/>
    </contour>
    <contour>
      <point x="319" y="604" type="line"/>
      <point x="662" y="1411" type="line"/>
      <point x="748" y="1411" type="line"/>
      <point x="748" y="604" type="line"/>
    </contour>
  </outline>
</glyph>
<glyph name="thorn" format="2">
  <advance width="1194"/>
  <unicode hex="00FE"/>
  <anchor x="598" y="-475" name="bottom"/>
  <anchor x="598" y="1556" name="top"/>
  <outline>
    <contour>
      <point x="1077" y="551" type="curve" smooth="yes"/>
      <point x="1077" y="911"/>
      <point x="928" y="1102"/>
      <point x="641" y="1102" type="curve" smooth="yes"/>
      <point x="416" y="1102"/>
      <point x="285" y="975"/>
      <point x="240" y="831" type="curve"/>
      <point x="236" y="831" type="line"/>
      <point x="238" y="899"/>
      <point x="240" y="1010"/>
      <point x="240" y="1075" type="curve" smooth="yes"/>
      <point x="240" y="1556" type="line"/>
      <point x="186" y="1556" type="line"/>
      <point x="186" y="-475" type="line"/>
      <point x="240" y="-475" type="line"/>
      <point x="240" y="-31" type="line" smooth="yes"/>
      <point x="240" y="55"/>
      <point x="240" y="145"/>
      <point x="236" y="238" type="curve"/>
      <point x="240" y="238" type="line"/>
      <point x="285" y="94"/>
      <point x="406" y="-20"/>
      <point x="621" y="-20" type="curve" smooth="yes"/>
      <point x="909" y="-20"/>
      <point x="1077" y="186"/>
    </contour>
    <contour>
      <point x="1022" y="551" type="curve" smooth="yes"/>
      <point x="1022" y="207"/>
      <point x="872" y="31"/>
      <point x="621" y="31" type="curve" smooth="yes"/>
      <point x="387" y="31"/>
      <point x="242" y="188"/>
      <point x="242" y="537" type="curve" smooth="yes"/>
      <point x="242" y="543" type="line" smooth="yes"/>
      <point x="242" y="862"/>
      <point x="379" y="1051"/>
      <point x="641" y="1051" type="curve" smooth="yes"/>
      <point x="891" y="1051"/>
      <point x="1022" y="889"/>
    </contour>
  </outline>
</glyph>
<glyph name="eogonek" format="2">
  <advance width="1106"/>
  <unicode hex="0119"/>
  <anchor x="553" y="-444" name="bottom"/>
  <anchor x="553" y="1081" name="top"/>
  <outline>
    <contour>
      <point x="717" y="-268" type="curve" smooth="yes"/>
      <point x="717" y="-164"/>
      <point x="803" y="-66"/>
      <point x="920" y="41" type="curve"/>
      <point x="868" y="45" type="line"/>
      <point x="721" y="-78"/>
      <point x="664" y="-178"/>
      <point x="664" y="-276" type="curve" smooth="yes"/>
      <point x="664" y="-389"/>
      <point x="737" y="-444"/>
      <point x="831" y="-444" type="curve" smooth="yes"/>
      <point x="874" y="-444"/>
      <point x="911" y="-436"/>
      <point x="934" y="-428" type="curve"/>
      <point x="934" y="-379" type="line"/>
      <point x="911" y="-387"/>
      <point x="874" y="-393"/>
      <point x="836" y="-393" type="curve" smooth="yes"/>
      <point x="756" y="-393"/>
      <point x="717" y="-348"/>
    </contour>
    <component base="e"/>
  </outline>
</glyph>
<glyph name="kgreenlandic" format="2">
  <advance width="930"/>
  <unicode hex="0138"/>
  <anchor x="465" y="0" name="bottom"/>
  <anchor x="465" y="1081" name="top"/>
  <outline>
    <contour>
      <point x="899" y="1081" type="line"/>
      <point x="829" y="1081" type="line"/>
      <point x="352" y="549" type="line" smooth="yes"/>
      <point x="307" y="500"/>
      <point x="281" y="469"/>
      <point x="233" y="416" type="curve"/>
      <point x="236" y="416" type="line"/>
      <point x="238" y="547"/>
      <point x="238" y="657"/>
      <point x="238" y="788" type="curve" smooth="yes"/>
      <point x="238" y="1081" type="line"/>
      <point x="184" y="1081" type="line"/>
      <point x="184" y="0" type="line"/>
      <point x="238" y="0" type="line"/>
      <point x="238" y="352" type="line"/>
      <point x="442" y="580" type="line"/>
      <point x="877" y="0" type="line"/>
      <point x="940" y="0" type="line"/>
      <point x="479" y="616" type="line"/>
    </contour>
  </outline>
</glyph>
<glyph name="Lslash" format="2">
  <advance width="1036"/>
  <unicode hex="0141"/>
  <anchor x="580" y="0" name="bottom"/>
  <anchor x="238" y="1462" name="top"/>
  <outline>
    <contour>
      <point x="211" y="0" type="line"/>
      <point x="995" y="0" type="line"/>
      <point x="995" y="51" type="line"/>
      <point x="264" y="51" type="line"/>
      <point x="264" y="614" type="line"/>
      <point x="645" y="860" type="line"/>
      <point x="614" y="903" type="line"/>
      <point x="264" y="678" type="line"/>
      <point x="264" y="1462" type="line"/>
      <point x="211" y="1462" type="line"/>
      <point x="211" y="643" type="line"/>
      <point x="20" y="520" type="line"/>
      <point x="51" y="477" type="line"/>
      <point x="211" y="580" type="line"/>
    </contour>
  </outline>
</glyph>
<glyph name="OE" format="2">
  <advance width="1841"/>
  <unicode hex="0152"/>
  <anchor x="922" y="0" name="bottom"/>
  <anchor x="922" y="1462" name="top"/>
  <outline>
    <contour>
      <point x="776" y="1468" type="curve" smooth="yes"/>
      <point x="365" y="1468"/>
      <point x="129" y="1176"/>
      <point x="129" y="735" type="curve" smooth="yes"/>
      <point x="129" y="293"/>
      <point x="344" y="-6"/>
      <point x="770" y="-6" type="curve" smooth="yes"/>
      <point x="838" y="-6"/>
      <point x="889" y="-2"/>
      <point x="934" y="0" type="curve"/>
      <point x="1714" y="0" type="line"/>
      <point x="1714" y="51" type="line"/>
      <point x="979" y="51" type="line"/>
      <point x="979" y="745" type="line"/>
      <point x="1673" y="745" type="line"/>
      <point x="1673" y="797" type="line"/>
      <point x="979" y="797" type="line"/>
      <point x="979" y="1411" type="line"/>
      <point x="1714" y="1411" type="line"/>
      <point x="1714" y="1462" type="line"/>
      <point x="954" y="1462" type="line" smooth="yes"/>
      <point x="883" y="1464"/>
      <point x="844" y="1468"/>
    </contour>
    <contour>
      <point x="776" y="1417" type="curve" smooth="yes"/>
      <point x="844" y="1417"/>
      <point x="895" y="1411"/>
      <point x="926" y="1409" type="curve"/>
      <point x="926" y="53" type="line"/>
      <point x="889" y="47"/>
      <point x="838" y="45"/>
      <point x="770" y="45" type="curve" smooth="yes"/>
      <point x="373" y="45"/>
      <point x="184" y="322"/>
      <point x="184" y="735" type="curve" smooth="yes"/>
      <point x="184" y="1139"/>
      <point x="379" y="1417"/>
    </contour>
  </outline>
</glyph>
<glyph name="Tbar" format="2">
  <advance width="1034"/>
  <unicode hex="0166"/>
  <anchor x="518" y="0" name="bottom"/>
  <anchor x="518" y="1462" name="top"/>
  <outline>
    <contour>
      <point x="489" y="0" type="line"/>
      <point x="543" y="0" type="line"/>
      <point x="543" y="727" type="line"/>
      <point x="930" y="727" type="line"/>
      <point x="930" y="778" type="line"/>
      <point x="543" y="778" type="line"/>
      <point x="543" y="1411" type="line"/>
      <point x="1030" y="1411" type="line"/>
      <point x="1030" y="1462" type="line"/>
      <point x="4" y="1462" type="line"/>
      <point x="4" y="1411" type="line"/>
      <point x="489" y="1411" type="line"/>
      <point x="489" y="778" type="line"/>
      <point x="100" y="778" type="line"/>
      <point x="100" y="727" type="line"/>
      <point x="489" y="727" type="line"/>
    </contour>
  </outline>
</glyph>
<glyph name="Uogonek" format="2">
  <advance width="1458"/>
  <unicode hex="0172"/>
  <anchor x="729" y="-444" name="bottom"/>
  <anchor x="729" y="1462" name="top"/>
  <outline>
    <contour>
      <point x="883" y="-250" type="curve" smooth="yes"/>
      <point x="883" y="-104"/>
      <point x="997" y="8"/>
      <point x="1071" y="82" type="curve"/>
      <point x="1044" y="102" type="line"/>
      <point x="922" y="-4"/>
      <point x="831" y="-119"/>
      <point x="831" y="-258" type="curve" smooth="yes"/>
      <point x="831" y="-391"/>
      <point x="903" y="-444"/>
      <point x="997" y="-444" type="curve" smooth="yes"/>
      <point x="1040" y="-444"/>
      <point x="1077" y="-436"/>
      <point x="1100" y="-428" type="curve"/>
      <point x="1100" y="-379" type="line"/>
      <point x="1077" y="-387"/>
      <point x="1040" y="-393"/>
      <point x="1001" y="-393" type="curve" smooth="yes"/>
      <point x="922" y="-393"/>
      <point x="883" y="-350"/>
    </contour>
    <component base="U"/>
  </outline>
</glyph>
<glyph name="uni0183" format="2">
  <advance width="1194"/>
  <unicode hex="0183"/>
  <anchor x="598" y="0" name="bottom"/>
  <anchor x="598" y="1556" name="top"/>
  <outline>
    <contour>
      <point x="604" y="-20" type="curve" smooth="yes"/>
      <point x="934" y="-20"/>
      <point x="1073" y="233"/>
      <point x="1073" y="545" type="curve" smooth="yes"/>
      <point x="1073" y="909"/>
      <point x="924" y="1104"/>
      <point x="637" y="1104" type="curve" smooth="yes"/>
      <point x="430" y="1104"/>
      <point x="281" y="989"/>
      <point x="236" y="831" type="curve"/>
      <point x="231" y="831" type="line"/>
      <point x="233" y="899"/>
      <point x="236" y="1010"/>
      <point x="236" y="1075" type="curve" smooth="yes"/>
      <point x="236" y="1505" type="line"/>
      <point x="952" y="1505" type="line"/>
      <point x="952" y="1556" type="line"/>
      <point x="182" y="1556" type="line"/>
      <point x="182" y="0" type="line"/>
      <point x="227" y="0" type="line"/>
      <point x="236" y="213" type="line"/>
      <point x="240" y="213" type="line"/>
      <point x="289" y="78"/>
      <point x="410" y="-20"/>
    </contour>
    <contour>
      <point x="604" y="31" type="curve" smooth="yes"/>
      <point x="356" y="31"/>
      <point x="236" y="201"/>
      <point x="236" y="518" type="curve" smooth="yes"/>
      <point x="236" y="539" type="line" smooth="yes"/>
      <point x="236" y="858"/>
      <point x="365" y="1053"/>
      <point x="637" y="1053" type="curve" smooth="yes"/>
      <point x="891" y="1053"/>
      <point x="1018" y="881"/>
      <point x="1018" y="545" type="curve" smooth="yes"/>
      <point x="1018" y="217"/>
      <point x="874" y="31"/>
    </contour>
  </outline>
</glyph>
<glyph name="uni0184" format="2">
  <advance width="1186"/>
  <unicode hex="0184"/>
  <anchor x="594" y="0" name="bottom"/>
  <anchor x="594" y="1462" name="top"/>
  <outline>
    <contour>
      <point x="645" y="0" type="curve" smooth="yes"/>
      <point x="903" y="0"/>
      <point x="1049" y="164"/>
      <point x="1049" y="416" type="curve" smooth="yes"/>
      <point x="1049" y="711"/>
      <point x="864" y="805"/>
      <point x="571" y="805" type="curve" smooth="yes"/>
      <point x="264" y="805" type="line"/>
      <point x="264" y="1462" type="line"/>
      <point x="211" y="1462" type="line"/>
      <point x="211" y="487" type="line" smooth="yes"/>
      <point x="211" y="166"/>
      <point x="352" y="0"/>
    </contour>
    <contour>
      <point x="647" y="51" type="curve" smooth="yes"/>
      <point x="389" y="51"/>
      <point x="264" y="195"/>
      <point x="264" y="504" type="curve" smooth="yes"/>
      <point x="264" y="754" type="line"/>
      <point x="561" y="754" type="line" smooth="yes"/>
      <point x="836" y="754"/>
      <point x="993" y="678"/>
      <point x="993" y="416" type="curve" smooth="yes"/>
      <point x="993" y="188"/>
      <point x="864" y="51"/>
    </contour>
  </outline>
</glyph>
<glyph name="uni0186" format="2">
  <advance width="1257"/>
  <unicode hex="0186"/>
  <anchor x="629" y="0" name="bottom"/>
  <anchor x="629" y="1462" name="top"/>
  <outline>
    <contour>
      <point x="422" y="-20" type="curve" smooth="yes"/>
      <point x="887" y="-20"/>
      <point x="1128" y="322"/>
      <point x="1128" y="770" type="curve" smooth="yes"/>
      <point x="1128" y="1196"/>
      <point x="928" y="1483"/>
      <point x="487" y="1483" type="curve" smooth="yes"/>
      <point x="334" y="1483"/>
      <point x="188" y="1446"/>
      <point x="80" y="1395" type="curve"/>
      <point x="100" y="1343" type="line"/>
      <point x="217" y="1405"/>
      <point x="362" y="1432"/>
      <point x="485" y="1432" type="curve" smooth="yes"/>
      <point x="887" y="1432"/>
      <point x="1073" y="1169"/>
      <point x="1073" y="770" type="curve" smooth="yes"/>
      <point x="1073" y="346"/>
      <point x="850" y="31"/>
      <point x="426" y="31" type="curve" smooth="yes"/>
      <point x="276" y="31"/>
      <point x="168" y="55"/>
      <point x="70" y="90" type="curve"/>
      <point x="70" y="39" type="line"/>
      <point x="160" y="4"/>
      <point x="268" y="-20"/>
    </contour>
  </outline>
</glyph>
<glyph name="uni018E" format="2">
  <advance width="1126"/>
  <unicode hex="018E"/>
  <anchor x="563" y="0" name="bottom"/>
  <anchor x="563" y="1462" name="top"/>
  <anchor x="1085" y="1462" name="topright"/>
  <outline>
    <contour>
      <point x="127" y="0" type="line"/>
      <point x="915" y="0" type="line"/>
      <point x="915" y="1462" type="line"/>
      <point x="127" y="1462" type="line"/>
      <point x="127" y="1411" type="line"/>
      <point x="862" y="1411" type="line"/>
      <point x="862" y="797" type="line"/>
      <point x="168" y="797" type="line"/>
      <point x="168" y="745" type="line"/>
      <point x="862" y="745" type="line"/>
      <point x="862" y="51" type="line"/>
      <point x="127" y="51" type="line"/>
    </contour>
  </outline>
</glyph>
<glyph name="uni0190" format="2">
  <advance width="1110"/>
  <unicode hex="0190"/>
  <anchor x="555" y="0" name="bottom"/>
  <anchor x="555" y="1462" name="top"/>
  <outline>
    <contour>
      <point x="627" y="1483" type="curve" smooth="yes"/>
      <point x="358" y="1483"/>
      <point x="170" y="1339"/>
      <point x="170" y="1102" type="curve" smooth="yes"/>
      <point x="170" y="887"/>
      <point x="285" y="799"/>
      <point x="408" y="764" type="curve"/>
      <point x="408" y="760" type="line"/>
      <point x="236" y="713"/>
      <point x="115" y="592"/>
      <point x="115" y="381" type="curve" smooth="yes"/>
      <point x="115" y="123"/>
      <point x="281" y="-20"/>
      <point x="596" y="-20" type="curve" smooth="yes"/>
      <point x="774" y="-20"/>
      <point x="922" y="25"/>
      <point x="1024" y="74" type="curve"/>
      <point x="1024" y="131" type="line"/>
      <point x="918" y="74"/>
      <point x="760" y="31"/>
      <point x="596" y="31" type="curve" smooth="yes"/>
      <point x="317" y="31"/>
      <point x="170" y="147"/>
      <point x="170" y="381" type="curve" smooth="yes"/>
      <point x="170" y="612"/>
      <point x="324" y="735"/>
      <point x="627" y="735" type="curve" smooth="yes"/>
      <point x="848" y="735" type="line"/>
      <point x="848" y="786" type="line"/>
      <point x="629" y="786" type="line" smooth="yes"/>
      <point x="336" y="786"/>
      <point x="225" y="895"/>
      <point x="225" y="1102" type="curve" smooth="yes"/>
      <point x="225" y="1313"/>
      <point x="393" y="1432"/>
      <point x="627" y="1432" type="curve" smooth="yes"/>
      <point x="786" y="1432"/>
      <point x="897" y="1386"/>
      <point x="993" y="1331" type="curve"/>
      <point x="1020" y="1378" type="line"/>
      <point x="924" y="1434"/>
      <point x="801" y="1483"/>
    </contour>
  </outline>
</glyph>
<glyph name="uni0194" format="2">
  <advance width="1266"/>
  <unicode hex="0194"/>
  <anchor x="633" y="-492" name="bottom"/>
  <anchor x="633" y="1462" name="top"/>
  <outline>
    <contour>
      <point x="584" y="-492" type="curve" smooth="yes"/>
      <point x="715" y="-492"/>
      <point x="788" y="-397"/>
      <point x="788" y="-262" type="curve" smooth="yes"/>
      <point x="788" y="-100"/>
      <point x="715" y="39"/>
      <point x="623" y="223" type="curve"/>
      <point x="1176" y="1462" type="line"/>
      <point x="1114" y="1462" type="line"/>
      <point x="702" y="532" type="line" smooth="yes"/>
      <point x="649" y="412"/>
      <point x="610" y="324"/>
      <point x="590" y="270" type="curve"/>
      <point x="567" y="324"/>
      <point x="524" y="418"/>
      <point x="473" y="530" type="curve" smooth="yes"/>
      <point x="55" y="1462" type="line"/>
      <point x="-6" y="1462" type="line"/>
      <point x="557" y="221" type="line"/>
      <point x="461" y="39"/>
      <point x="383" y="-115"/>
      <point x="383" y="-262" type="curve" smooth="yes"/>
      <point x="383" y="-399"/>
      <point x="457" y="-492"/>
    </contour>
    <contour>
      <point x="588" y="-440" type="curve" smooth="yes"/>
      <point x="498" y="-440"/>
      <point x="438" y="-379"/>
      <point x="438" y="-258" type="curve" smooth="yes"/>
      <point x="438" y="-125"/>
      <point x="514" y="18"/>
      <point x="590" y="170" type="curve"/>
      <point x="662" y="18"/>
      <point x="733" y="-117"/>
      <point x="733" y="-258" type="curve" smooth="yes"/>
      <point x="733" y="-375"/>
      <point x="680" y="-440"/>
    </contour>
  </outline>
</glyph>
<glyph name="uni0199" format="2">
  <advance width="930"/>
  <unicode hex="0199"/>
  <anchor x="465" y="0" name="bottom"/>
  <anchor x="465" y="1563" name="top"/>
  <outline>
    <contour>
      <point x="438" y="1563" type="curve" smooth="yes"/>
      <point x="274" y="1563"/>
      <point x="184" y="1456"/>
      <point x="184" y="1278" type="curve" smooth="yes"/>
      <point x="184" y="0" type="line"/>
      <point x="238" y="0" type="line"/>
      <point x="238" y="352" type="line"/>
      <point x="442" y="580" type="line"/>
      <point x="877" y="0" type="line"/>
      <point x="940" y="0" type="line"/>
      <point x="479" y="616" type="line"/>
      <point x="899" y="1081" type="line"/>
      <point x="829" y="1081" type="line"/>
      <point x="352" y="549" type="line" smooth="yes"/>
      <point x="309" y="502"/>
      <point x="274" y="463"/>
      <point x="240" y="420" type="curve"/>
      <point x="236" y="420" type="line"/>
      <point x="238" y="547"/>
      <point x="238" y="659"/>
      <point x="238" y="788" type="curve" smooth="yes"/>
      <point x="238" y="1272" type="line" smooth="yes"/>
      <point x="238" y="1436"/>
      <point x="307" y="1511"/>
      <point x="436" y="1511" type="curve" smooth="yes"/>
      <point x="471" y="1511"/>
      <point x="498" y="1507"/>
      <point x="518" y="1503" type="curve"/>
      <point x="518" y="1554" type="line"/>
      <point x="500" y="1559"/>
      <point x="469" y="1563"/>
    </contour>
  </outline>
</glyph>
<glyph name="uni019A" format="2">
  <advance width="424"/>
  <unicode hex="019A"/>
  <anchor x="213" y="0" name="bottom"/>
  <anchor x="213" y="1556" name="top"/>
  <outline>
    <contour>
      <point x="186" y="0" type="line"/>
      <point x="240" y="0" type="line"/>
      <point x="240" y="754" type="line"/>
      <point x="399" y="754" type="line"/>
      <point x="399" y="805" type="line"/>
      <point x="240" y="805" type="line"/>
      <point x="240" y="1556" type="line"/>
      <point x="186" y="1556" type="line"/>
      <point x="186" y="805" type="line"/>
      <point x="25" y="805" type="line"/>
      <point x="25" y="754" type="line"/>
      <point x="186" y="754" type="line"/>
    </contour>
  </outline>
</glyph>
<glyph name="uni01A3" format="2">
  <advance width="1663"/>
  <unicode hex="01A3"/>
  <anchor x="848" y="-492" name="bottom"/>
  <anchor x="848" y="1081" name="top"/>
  <outline>
    <contour>
      <point x="1055" y="541" type="curve" smooth="yes"/>
      <point x="1055" y="700"/>
      <point x="1018" y="844"/>
      <point x="942" y="946" type="curve"/>
      <point x="1001" y="1008"/>
      <point x="1075" y="1051"/>
      <point x="1188" y="1051" type="curve" smooth="yes"/>
      <point x="1352" y="1051"/>
      <point x="1438" y="950"/>
      <point x="1438" y="735" type="curve" smooth="yes"/>
      <point x="1438" y="-492" type="line"/>
      <point x="1491" y="-492" type="line"/>
      <point x="1491" y="741" type="line" smooth="yes"/>
      <point x="1491" y="975"/>
      <point x="1386" y="1102"/>
      <point x="1188" y="1102" type="curve" smooth="yes"/>
      <point x="1051" y="1102"/>
      <point x="965" y="1042"/>
      <point x="909" y="985" type="curve"/>
      <point x="836" y="1059"/>
      <point x="735" y="1102"/>
      <point x="598" y="1102" type="curve" smooth="yes"/>
      <point x="297" y="1102"/>
      <point x="121" y="885"/>
      <point x="121" y="541" type="curve" smooth="yes"/>
      <point x="121" y="219"/>
      <point x="274" y="-20"/>
      <point x="586" y="-20" type="curve" smooth="yes"/>
      <point x="907" y="-20"/>
      <point x="1055" y="223"/>
    </contour>
    <contour>
      <point x="176" y="541" type="curve" smooth="yes"/>
      <point x="176" y="860"/>
      <point x="328" y="1051"/>
      <point x="598" y="1051" type="curve" smooth="yes"/>
      <point x="887" y="1051"/>
      <point x="999" y="823"/>
      <point x="999" y="541" type="curve" smooth="yes"/>
      <point x="999" y="244"/>
      <point x="872" y="31"/>
      <point x="586" y="31" type="curve" smooth="yes"/>
      <point x="309" y="31"/>
      <point x="176" y="240"/>
    </contour>
  </outline>
</glyph>
<glyph name="uni01A5" format="2">
  <advance width="1194"/>
  <unicode hex="01A5"/>
  <anchor x="598" y="-475" name="bottom"/>
  <anchor x="598" y="1567" name="top"/>
  <outline>
    <contour>
      <point x="446" y="1567" type="curve" smooth="yes"/>
      <point x="279" y="1567"/>
      <point x="188" y="1460"/>
      <point x="188" y="1280" type="curve" smooth="yes"/>
      <point x="188" y="-475" type="line"/>
      <point x="242" y="-475" type="line"/>
      <point x="242" y="-31" type="line" smooth="yes"/>
      <point x="242" y="55"/>
      <point x="242" y="145"/>
      <point x="238" y="238" type="curve"/>
      <point x="242" y="238" type="line"/>
      <point x="287" y="94"/>
      <point x="408" y="-20"/>
      <point x="623" y="-20" type="curve" smooth="yes"/>
      <point x="911" y="-20"/>
      <point x="1079" y="186"/>
      <point x="1079" y="551" type="curve" smooth="yes"/>
      <point x="1079" y="911"/>
      <point x="930" y="1102"/>
      <point x="643" y="1102" type="curve" smooth="yes"/>
      <point x="418" y="1102"/>
      <point x="287" y="975"/>
      <point x="242" y="831" type="curve"/>
      <point x="238" y="831" type="line"/>
      <point x="240" y="899"/>
      <point x="242" y="1010"/>
      <point x="242" y="1075" type="curve" smooth="yes"/>
      <point x="242" y="1274" type="line" smooth="yes"/>
      <point x="242" y="1442"/>
      <point x="309" y="1516"/>
      <point x="446" y="1516" type="curve" smooth="yes"/>
      <point x="502" y="1516"/>
      <point x="545" y="1507"/>
      <point x="575" y="1497" type="curve"/>
      <point x="575" y="1550" type="line"/>
      <point x="547" y="1559"/>
      <point x="504" y="1567"/>
    </contour>
    <contour>
      <point x="643" y="1051" type="curve" smooth="yes"/>
      <point x="893" y="1051"/>
      <point x="1024" y="889"/>
      <point x="1024" y="551" type="curve" smooth="yes"/>
      <point x="1024" y="207"/>
      <point x="874" y="31"/>
      <point x="623" y="31" type="curve" smooth="yes"/>
      <point x="389" y="31"/>
      <point x="244" y="188"/>
      <point x="244" y="537" type="curve" smooth="yes"/>
      <point x="244" y="543" type="line" smooth="yes"/>
      <point x="244" y="862"/>
      <point x="381" y="1051"/>
    </contour>
  </outline>
</glyph>
<glyph name="uni01A7" format="2">
  <advance width="1112"/>
  <unicode hex="01A7"/>
  <anchor x="557" y="0" name="bottom"/>
  <anchor x="557" y="1462" name="top"/>
  <outline>
    <contour>
      <point x="547" y="1483" type="curve" smooth="yes"/>
      <point x="418" y="1483"/>
      <point x="283" y="1452"/>
      <point x="162" y="1399" type="curve"/>
      <point x="178" y="1354" type="line"/>
      <point x="301" y="1407"/>
      <point x="436" y="1432"/>
      <point x="545" y="1432" type="curve" smooth="yes"/>
      <point x="776" y="1432"/>
      <point x="934" y="1352"/>
      <point x="934" y="1133" type="curve" smooth="yes"/>
      <point x="934" y="918"/>
      <point x="764" y="854"/>
      <point x="547" y="768" type="curve" smooth="yes"/>
      <point x="295" y="668"/>
      <point x="102" y="594"/>
      <point x="102" y="342" type="curve" smooth="yes"/>
      <point x="102" y="88"/>
      <point x="307" y="-20"/>
      <point x="573" y="-20" type="curve" smooth="yes"/>
      <point x="762" y="-20"/>
      <point x="899" y="16"/>
      <point x="989" y="47" type="curve"/>
      <point x="989" y="102" type="line"/>
      <point x="881" y="63"/>
      <point x="743" y="31"/>
      <point x="578" y="31" type="curve" smooth="yes"/>
      <point x="346" y="31"/>
      <point x="158" y="119"/>
      <point x="158" y="346" type="curve" smooth="yes"/>
      <point x="158" y="559"/>
      <point x="322" y="627"/>
      <point x="569" y="721" type="curve" smooth="yes"/>
      <point x="807" y="811"/>
      <point x="989" y="895"/>
      <point x="989" y="1139" type="curve" smooth="yes"/>
      <point x="989" y="1384"/>
      <point x="809" y="1483"/>
    </contour>
  </outline>
</glyph>
<glyph name="uni01AB" format="2">
  <advance width="653"/>
  <unicode hex="01AB"/>
  <anchor x="328" y="-492" name="bottom"/>
  <anchor x="328" y="1350" name="top"/>
  <outline>
    <contour>
      <point x="383" y="-492" type="curve" smooth="yes"/>
      <point x="510" y="-492"/>
      <point x="596" y="-410"/>
      <point x="596" y="-268" type="curve" smooth="yes"/>
      <point x="596" y="57" type="line"/>
      <point x="551" y="41"/>
      <point x="502" y="31"/>
      <point x="434" y="31" type="curve" smooth="yes"/>
      <point x="283" y="31"/>
      <point x="240" y="125"/>
      <point x="240" y="293" type="curve" smooth="yes"/>
      <point x="240" y="1030" type="line"/>
      <point x="592" y="1030" type="line"/>
      <point x="592" y="1081" type="line"/>
      <point x="240" y="1081" type="line"/>
      <point x="240" y="1350" type="line"/>
      <point x="197" y="1350" type="line"/>
      <point x="184" y="1081" type="line"/>
      <point x="20" y="1075" type="line"/>
      <point x="20" y="1030" type="line"/>
      <point x="186" y="1030" type="line"/>
      <point x="186" y="287" type="line" smooth="yes"/>
      <point x="186" y="96"/>
      <point x="244" y="-20"/>
      <point x="434" y="-20" type="curve" smooth="yes"/>
      <point x="479" y="-20"/>
      <point x="514" y="-16"/>
      <point x="545" y="-8" type="curve"/>
      <point x="545" y="-262" type="line" smooth="yes"/>
      <point x="545" y="-385"/>
      <point x="483" y="-442"/>
      <point x="387" y="-442" type="curve" smooth="yes"/>
      <point x="338" y="-442"/>
      <point x="297" y="-432"/>
      <point x="264" y="-416" type="curve"/>
      <point x="264" y="-469" type="line"/>
      <point x="291" y="-481"/>
      <point x="326" y="-492"/>
    </contour>
  </outline>
</glyph>
<glyph name="uni01AD" format="2">
  <advance width="653"/>
  <unicode hex="01AD"/>
  <anchor x="328" y="0" name="bottom"/>
  <anchor x="328" y="1567" name="top"/>
  <outline>
    <contour>
      <point x="401" y="1567" type="curve" smooth="yes"/>
      <point x="274" y="1567"/>
      <point x="188" y="1485"/>
      <point x="188" y="1343" type="curve" smooth="yes"/>
      <point x="188" y="1081" type="line"/>
      <point x="20" y="1075" type="line"/>
      <point x="20" y="1030" type="line"/>
      <point x="186" y="1030" type="line"/>
      <point x="186" y="287" type="line" smooth="yes"/>
      <point x="186" y="96"/>
      <point x="244" y="-20"/>
      <point x="434" y="-20" type="curve" smooth="yes"/>
      <point x="506" y="-20"/>
      <point x="551" y="-8"/>
      <point x="596" y="6" type="curve"/>
      <point x="596" y="57" type="line"/>
      <point x="551" y="41"/>
      <point x="502" y="31"/>
      <point x="434" y="31" type="curve" smooth="yes"/>
      <point x="283" y="31"/>
      <point x="240" y="125"/>
      <point x="240" y="293" type="curve" smooth="yes"/>
      <point x="240" y="1030" type="line"/>
      <point x="592" y="1030" type="line"/>
      <point x="592" y="1081" type="line"/>
      <point x="240" y="1081" type="line"/>
      <point x="240" y="1337" type="line" smooth="yes"/>
      <point x="240" y="1460"/>
      <point x="301" y="1518"/>
      <point x="397" y="1518" type="curve" smooth="yes"/>
      <point x="446" y="1518"/>
      <point x="487" y="1507"/>
      <point x="520" y="1491" type="curve"/>
      <point x="520" y="1544" type="line"/>
      <point x="494" y="1556"/>
      <point x="459" y="1567"/>
    </contour>
  </outline>
</glyph>
<glyph name="uhorn" format="2">
  <advance width="1174"/>
  <unicode hex="01B0"/>
  <anchor x="588" y="0" name="bottom"/>
  <anchor x="588" y="1081" name="top"/>
  <outline>
    <contour>
      <point x="1190" y="1249" type="line"/>
      <point x="1145" y="1249" type="line"/>
      <point x="1145" y="1061"/>
      <point x="1077" y="985"/>
      <point x="985" y="952" type="curve"/>
      <point x="985" y="1081" type="line"/>
      <point x="932" y="1081" type="line"/>
      <point x="932" y="463" type="line" smooth="yes"/>
      <point x="932" y="168"/>
      <point x="772" y="31"/>
      <point x="537" y="31" type="curve" smooth="yes"/>
      <point x="334" y="31"/>
      <point x="221" y="139"/>
      <point x="221" y="381" type="curve" smooth="yes"/>
      <point x="221" y="1081" type="line"/>
      <point x="168" y="1081" type="line"/>
      <point x="168" y="373" type="line" smooth="yes"/>
      <point x="168" y="117"/>
      <point x="295" y="-20"/>
      <point x="537" y="-20" type="curve" smooth="yes"/>
      <point x="766" y="-20"/>
      <point x="883" y="102"/>
      <point x="930" y="227" type="curve"/>
      <point x="934" y="227" type="line"/>
      <point x="942" y="0" type="line"/>
      <point x="985" y="0" type="line"/>
      <point x="985" y="901" type="line"/>
      <point x="1126" y="942"/>
      <point x="1198" y="1047"/>
      <point x="1200" y="1239" type="curve"/>
    </contour>
  </outline>
</glyph>
<glyph name="uni01B1" format="2">
  <advance width="1579"/>
  <unicode hex="01B1"/>
  <anchor x="791" y="0" name="bottom"/>
  <anchor x="791" y="1462" name="top"/>
  <outline>
    <contour>
      <point x="793" y="29" type="curve" smooth="yes"/>
      <point x="442" y="29"/>
      <point x="193" y="264"/>
      <point x="193" y="674" type="curve" smooth="yes"/>
      <point x="193" y="1047"/>
      <point x="354" y="1253"/>
      <point x="641" y="1415" type="curve"/>
      <point x="641" y="1462" type="line"/>
      <point x="86" y="1462" type="line"/>
      <point x="86" y="1411" type="line"/>
      <point x="549" y="1411" type="line"/>
      <point x="305" y="1268"/>
      <point x="137" y="1055"/>
      <point x="137" y="674" type="curve" smooth="yes"/>
      <point x="137" y="231"/>
      <point x="403" y="-23"/>
      <point x="793" y="-23" type="curve" smooth="yes"/>
      <point x="1176" y="-23"/>
      <point x="1444" y="262"/>
      <point x="1444" y="674" type="curve" smooth="yes"/>
      <point x="1444" y="1055"/>
      <point x="1266" y="1264"/>
      <point x="1030" y="1411" type="curve"/>
      <point x="1495" y="1411" type="line"/>
      <point x="1495" y="1462" type="line"/>
      <point x="942" y="1462" type="line"/>
      <point x="942" y="1415" type="line"/>
      <point x="1202" y="1251"/>
      <point x="1389" y="1059"/>
      <point x="1389" y="674" type="curve" smooth="yes"/>
      <point x="1389" y="281"/>
      <point x="1139" y="29"/>
    </contour>
  </outline>
</glyph>
<glyph name="uni01B3" format="2">
  <advance width="1157"/>
  <unicode hex="01B3"/>
  <anchor x="569" y="0" name="bottom"/>
  <anchor x="569" y="1462" name="top"/>
  <outline>
    <contour>
      <point x="494" y="0" type="line"/>
      <point x="547" y="0" type="line"/>
      <point x="547" y="563" type="line"/>
      <point x="915" y="1296" type="line" smooth="yes"/>
      <point x="956" y="1380"/>
      <point x="987" y="1434"/>
      <point x="1071" y="1434" type="curve" smooth="yes"/>
      <point x="1106" y="1434"/>
      <point x="1130" y="1425"/>
      <point x="1147" y="1417" type="curve"/>
      <point x="1147" y="1468" type="line"/>
      <point x="1130" y="1477"/>
      <point x="1102" y="1485"/>
      <point x="1065" y="1485" type="curve" smooth="yes"/>
      <point x="956" y="1485"/>
      <point x="913" y="1413"/>
      <point x="872" y="1331" type="curve" smooth="yes"/>
      <point x="518" y="614" type="line"/>
      <point x="61" y="1462" type="line"/>
      <point x="0" y="1462" type="line"/>
      <point x="494" y="555" type="line"/>
    </contour>
  </outline>
</glyph>
<glyph name="uni01B8" format="2">
  <advance width="1126"/>
  <unicode hex="01B8"/>
  <anchor x="563" y="0" name="bottom"/>
  <anchor x="563" y="1462" name="top"/>
  <outline>
    <contour>
      <point x="596" y="-20" type="curve" smooth="yes"/>
      <point x="770" y="-20"/>
      <point x="909" y="20"/>
      <point x="1012" y="70" type="curve"/>
      <point x="1012" y="127" type="line"/>
      <point x="905" y="72"/>
      <point x="756" y="31"/>
      <point x="596" y="31" type="curve" smooth="yes"/>
      <point x="313" y="31"/>
      <point x="158" y="164"/>
      <point x="158" y="401" type="curve" smooth="yes"/>
      <point x="158" y="641"/>
      <point x="307" y="762"/>
      <point x="641" y="762" type="curve" smooth="yes"/>
      <point x="721" y="762" type="line"/>
      <point x="721" y="813" type="line"/>
      <point x="221" y="1411" type="line"/>
      <point x="993" y="1411" type="line"/>
      <point x="993" y="1462" type="line"/>
      <point x="150" y="1462" type="line"/>
      <point x="150" y="1419" type="line"/>
      <point x="655" y="813" type="line"/>
      <point x="289" y="813"/>
      <point x="102" y="678"/>
      <point x="102" y="401" type="curve" smooth="yes"/>
      <point x="102" y="139"/>
      <point x="276" y="-20"/>
    </contour>
  </outline>
</glyph>
<glyph name="uni01B9" format="2">
  <advance width="895"/>
  <unicode hex="01B9"/>
  <anchor x="449" y="-492" name="bottom"/>
  <anchor x="449" y="1081" name="top"/>
  <outline>
    <contour>
      <point x="510" y="-492" type="curve" smooth="yes"/>
      <point x="647" y="-492"/>
      <point x="754" y="-467"/>
      <point x="850" y="-426" type="curve"/>
      <point x="850" y="-369" type="line"/>
      <point x="752" y="-416"/>
      <point x="637" y="-440"/>
      <point x="510" y="-440" type="curve" smooth="yes"/>
      <point x="250" y="-440"/>
      <point x="106" y="-293"/>
      <point x="106" y="-55" type="curve" smooth="yes"/>
      <point x="106" y="211"/>
      <point x="274" y="348"/>
      <point x="633" y="348" type="curve" smooth="yes"/>
      <point x="711" y="348" type="line"/>
      <point x="711" y="393" type="line"/>
      <point x="172" y="1030" type="line"/>
      <point x="825" y="1030" type="line"/>
      <point x="825" y="1081" type="line"/>
      <point x="92" y="1081" type="line"/>
      <point x="92" y="1040" type="line"/>
      <point x="639" y="399" type="line"/>
      <point x="227" y="399"/>
      <point x="51" y="223"/>
      <point x="51" y="-59" type="curve" smooth="yes"/>
      <point x="51" y="-326"/>
      <point x="217" y="-492"/>
    </contour>
  </outline>
</glyph>
<glyph name="uni01BB" format="2">
  <advance width="1171"/>
  <unicode hex="01BB"/>
  <anchor x="586" y="0" name="bottom"/>
  <anchor x="586" y="1581" name="top"/>
  <outline>
    <contour>
      <point x="555" y="1581" type="curve" smooth="yes"/>
      <point x="397" y="1581"/>
      <point x="270" y="1526"/>
      <point x="160" y="1442" type="curve"/>
      <point x="188" y="1399" type="line"/>
      <point x="283" y="1468"/>
      <point x="408" y="1530"/>
      <point x="551" y="1530" type="curve" smooth="yes"/>
      <point x="774" y="1530"/>
      <point x="905" y="1413"/>
      <point x="905" y="1200" type="curve" smooth="yes"/>
      <point x="905" y="1026"/>
      <point x="838" y="915"/>
      <point x="723" y="774" type="curve"/>
      <point x="219" y="774" type="line"/>
      <point x="219" y="723" type="line"/>
      <point x="682" y="723" type="line"/>
      <point x="121" y="47" type="line"/>
      <point x="121" y="0" type="line"/>
      <point x="1006" y="0" type="line"/>
      <point x="1006" y="51" type="line"/>
      <point x="195" y="51" type="line"/>
      <point x="195" y="53" type="line"/>
      <point x="745" y="723" type="line"/>
      <point x="999" y="723" type="line"/>
      <point x="999" y="774" type="line"/>
      <point x="786" y="774" type="line"/>
      <point x="893" y="907"/>
      <point x="961" y="1024"/>
      <point x="961" y="1200" type="curve" smooth="yes"/>
      <point x="961" y="1440"/>
      <point x="805" y="1581"/>
    </contour>
  </outline>
</glyph>
<glyph name="uni01BC" format="2">
  <advance width="1153"/>
  <unicode hex="01BC"/>
  <anchor x="578" y="0" name="bottom"/>
  <anchor x="578" y="1462" name="top"/>
  <outline>
    <contour>
      <point x="541" y="-20" type="curve" smooth="yes"/>
      <point x="797" y="-20"/>
      <point x="1018" y="123"/>
      <point x="1018" y="449" type="curve" smooth="yes"/>
      <point x="1018" y="731"/>
      <point x="819" y="866"/>
      <point x="530" y="866" type="curve" smooth="yes"/>
      <point x="393" y="866" type="line"/>
      <point x="393" y="1411" type="line"/>
      <point x="967" y="1411" type="line"/>
      <point x="967" y="1462" type="line"/>
      <point x="137" y="1462" type="line"/>
      <point x="137" y="1411" type="line"/>
      <point x="340" y="1411" type="line"/>
      <point x="340" y="815" type="line"/>
      <point x="512" y="815" type="line" smooth="yes"/>
      <point x="784" y="815"/>
      <point x="963" y="707"/>
      <point x="963" y="449" type="curve" smooth="yes"/>
      <point x="963" y="156"/>
      <point x="768" y="31"/>
      <point x="541" y="31" type="curve" smooth="yes"/>
      <point x="377" y="31"/>
      <point x="276" y="76"/>
      <point x="186" y="127" type="curve"/>
      <point x="186" y="66" type="line"/>
      <point x="248" y="31"/>
      <point x="362" y="-20"/>
    </contour>
  </outline>
</glyph>
<glyph name="uni01BF" format="2">
  <advance width="1229"/>
  <unicode hex="01BF"/>
  <anchor x="614" y="-475" name="bottom"/>
  <anchor x="614" y="1081" name="top"/>
  <outline>
    <contour>
      <point x="655" y="1102" type="curve" smooth="yes"/>
      <point x="406" y="1102"/>
      <point x="281" y="961"/>
      <point x="240" y="811" type="curve"/>
      <point x="236" y="811" type="line"/>
      <point x="231" y="1081" type="line"/>
      <point x="186" y="1081" type="line"/>
      <point x="186" y="-475" type="line"/>
      <point x="240" y="-475" type="line"/>
      <point x="240" y="-10" type="line"/>
      <point x="780" y="-8"/>
      <point x="1075" y="238"/>
      <point x="1075" y="649" type="curve" smooth="yes"/>
      <point x="1075" y="934"/>
      <point x="918" y="1102"/>
    </contour>
    <contour>
      <point x="655" y="1051" type="curve" smooth="yes"/>
      <point x="883" y="1051"/>
      <point x="1020" y="899"/>
      <point x="1020" y="649" type="curve" smooth="yes"/>
      <point x="1020" y="250"/>
      <point x="731" y="43"/>
      <point x="240" y="41" type="curve"/>
      <point x="240" y="524" type="line" smooth="yes"/>
      <point x="240" y="844"/>
      <point x="358" y="1051"/>
    </contour>
  </outline>
</glyph>
<glyph name="uni01C2" format="2">
  <advance width="1057"/>
  <unicode hex="01C2"/>
  <anchor x="528" y="0" name="bottom"/>
  <anchor x="528" y="1556" name="top"/>
  <outline>
    <contour>
      <point x="555" y="1556" type="line"/>
      <point x="502" y="1556" type="line"/>
      <point x="502" y="981" type="line"/>
      <point x="139" y="981" type="line"/>
      <point x="139" y="930" type="line"/>
      <point x="502" y="930" type="line"/>
      <point x="502" y="639" type="line"/>
      <point x="139" y="639" type="line"/>
      <point x="139" y="588" type="line"/>
      <point x="502" y="588" type="line"/>
      <point x="502" y="0" type="line"/>
      <point x="555" y="0" type="line"/>
      <point x="555" y="588" type="line"/>
      <point x="918" y="588" type="line"/>
      <point x="918" y="639" type="line"/>
      <point x="555" y="639" type="line"/>
      <point x="555" y="930" type="line"/>
      <point x="918" y="930" type="line"/>
      <point x="918" y="981" type="line"/>
      <point x="555" y="981" type="line"/>
    </contour>
  </outline>
</glyph>
<glyph name="uni01F6" format="2">
  <advance width="2048"/>
  <unicode hex="01F6"/>
  <anchor x="1024" y="0" name="bottom"/>
  <anchor x="1024" y="1462" name="top"/>
  <outline>
    <contour>
      <point x="211" y="0" type="line"/>
      <point x="264" y="0" type="line"/>
      <point x="264" y="741" type="line"/>
      <point x="1104" y="741" type="line"/>
      <point x="1104" y="385" type="line" smooth="yes"/>
      <point x="1104" y="90"/>
      <point x="1262" y="-20"/>
      <point x="1485" y="-20" type="curve" smooth="yes"/>
      <point x="1686" y="-20"/>
      <point x="1847" y="88"/>
      <point x="1847" y="385" type="curve" smooth="yes"/>
      <point x="1847" y="1081" type="line"/>
      <point x="1800" y="1081" type="line"/>
      <point x="1800" y="393" type="line" smooth="yes"/>
      <point x="1800" y="119"/>
      <point x="1669" y="31"/>
      <point x="1485" y="31" type="curve" smooth="yes"/>
      <point x="1296" y="31"/>
      <point x="1157" y="113"/>
      <point x="1157" y="393" type="curve" smooth="yes"/>
      <point x="1157" y="1462" type="line"/>
      <point x="1104" y="1462" type="line"/>
      <point x="1104" y="793" type="line"/>
      <point x="264" y="793" type="line"/>
      <point x="264" y="1462" type="line"/>
      <point x="211" y="1462" type="line"/>
    </contour>
  </outline>
</glyph>
<glyph name="uni01F7" format="2">
  <advance width="1223"/>
  <unicode hex="01F7"/>
  <anchor x="612" y="-492" name="bottom"/>
  <anchor x="612" y="1462" name="top"/>
  <outline>
    <contour>
      <point x="700" y="1485" type="curve" smooth="yes"/>
      <point x="436" y="1485"/>
      <point x="303" y="1323"/>
      <point x="264" y="1178" type="curve"/>
      <point x="260" y="1178" type="line"/>
      <point x="254" y="1464" type="line"/>
      <point x="211" y="1464" type="line"/>
      <point x="211" y="-492" type="line"/>
      <point x="258" y="-492" type="line"/>
      <point x="258" y="-4" type="line"/>
      <point x="692" y="111"/>
      <point x="1112" y="414"/>
      <point x="1112" y="961" type="curve" smooth="yes"/>
      <point x="1112" y="1348"/>
      <point x="920" y="1485"/>
    </contour>
    <contour>
      <point x="692" y="1434" type="curve" smooth="yes"/>
      <point x="883" y="1434"/>
      <point x="1057" y="1323"/>
      <point x="1057" y="956" type="curve" smooth="yes"/>
      <point x="1057" y="449"/>
      <point x="680" y="164"/>
      <point x="258" y="45" type="curve"/>
      <point x="258" y="909" type="line"/>
      <point x="258" y="1253"/>
      <point x="436" y="1434"/>
    </contour>
  </outline>
</glyph>
<glyph name="Aringacute" format="2">
  <advance width="1180"/>
  <unicode hex="01FA"/>
  <anchor x="590" y="0" name="bottom"/>
  <anchor x="590" y="1976" name="top"/>
  <outline>
    <contour>
      <point x="-16" y="0" type="line"/>
      <point x="45" y="0" type="line"/>
      <point x="279" y="477" type="line"/>
      <point x="907" y="477" type="line"/>
      <point x="1130" y="0" type="line"/>
      <point x="1192" y="0" type="line"/>
      <point x="629" y="1182" type="line"/>
      <point x="737" y="1204"/>
      <point x="809" y="1276"/>
      <point x="809" y="1399" type="curve" smooth="yes"/>
      <point x="809" y="1524"/>
      <point x="727" y="1608"/>
      <point x="600" y="1608" type="curve" smooth="yes"/>
      <point x="475" y="1608"/>
      <point x="387" y="1522"/>
      <point x="387" y="1401" type="curve" smooth="yes"/>
      <point x="387" y="1272"/>
      <point x="463" y="1198"/>
      <point x="569" y="1184" type="curve"/>
    </contour>
    <contour>
      <point x="303" y="528" type="line"/>
      <point x="545" y="1022" type="line" smooth="yes"/>
      <point x="563" y="1061"/>
      <point x="580" y="1094"/>
      <point x="598" y="1139" type="curve"/>
      <point x="616" y="1094"/>
      <point x="635" y="1055"/>
      <point x="651" y="1020" type="curve" smooth="yes"/>
      <point x="881" y="528" type="line"/>
    </contour>
    <contour>
      <point x="598" y="1227" type="curve" smooth="yes"/>
      <point x="502" y="1227"/>
      <point x="430" y="1290"/>
      <point x="430" y="1399" type="curve" smooth="yes"/>
      <point x="430" y="1499"/>
      <point x="496" y="1565"/>
      <point x="598" y="1565" type="curve" smooth="yes"/>
      <point x="700" y="1565"/>
      <point x="766" y="1499"/>
      <point x="766" y="1399" type="curve" smooth="yes"/>
      <point x="766" y="1290"/>
      <point x="698" y="1227"/>
    </contour>
    <contour>
      <point x="571" y="1683" type="line"/>
      <point x="614" y="1683" type="line"/>
      <point x="719" y="1774"/>
      <point x="803" y="1866"/>
      <point x="872" y="1962" type="curve"/>
      <point x="872" y="1976" type="line"/>
      <point x="811" y="1976" type="line"/>
      <point x="754" y="1884"/>
      <point x="659" y="1778"/>
      <point x="571" y="1696" type="curve"/>
    </contour>
  </outline>
</glyph>
<glyph name="uni021D" format="2">
  <advance width="952"/>
  <unicode hex="021D"/>
  <anchor x="487" y="-354" name="bottom"/>
  <anchor x="412" y="1081" name="top"/>
  <outline>
    <contour>
      <point x="61" y="-494" type="line"/>
      <point x="526" y="-387"/>
      <point x="846" y="-256"/>
      <point x="846" y="90" type="curve" smooth="yes"/>
      <point x="846" y="291"/>
      <point x="723" y="401"/>
      <point x="590" y="455" type="curve"/>
      <point x="731" y="520"/>
      <point x="815" y="625"/>
      <point x="815" y="778" type="curve" smooth="yes"/>
      <point x="815" y="989"/>
      <point x="653" y="1104"/>
      <point x="430" y="1104" type="curve" smooth="yes"/>
      <point x="303" y="1104"/>
      <point x="193" y="1067"/>
      <point x="96" y="1018" type="curve"/>
      <point x="117" y="973" type="line"/>
      <point x="205" y="1018"/>
      <point x="317" y="1053"/>
      <point x="430" y="1053" type="curve" smooth="yes"/>
      <point x="594" y="1053"/>
      <point x="760" y="979"/>
      <point x="760" y="778" type="curve" smooth="yes"/>
      <point x="760" y="565"/>
      <point x="596" y="481"/>
      <point x="274" y="397" type="curve"/>
      <point x="287" y="350" type="line"/>
      <point x="381" y="375"/>
      <point x="465" y="401"/>
      <point x="537" y="430" type="curve"/>
      <point x="696" y="360"/>
      <point x="791" y="258"/>
      <point x="791" y="88" type="curve" smooth="yes"/>
      <point x="791" y="-209"/>
      <point x="504" y="-334"/>
      <point x="61" y="-440" type="curve"/>
    </contour>
  </outline>
</glyph>
<glyph name="uni0220" format="2">
  <advance width="1337"/>
  <unicode hex="0220"/>
  <anchor x="670" y="-492" name="bottom"/>
  <anchor x="670" y="1462" name="top"/>
  <outline>
    <contour>
      <point x="700" y="1483" type="curve" smooth="yes"/>
      <point x="430" y="1483"/>
      <point x="305" y="1354"/>
      <point x="262" y="1204" type="curve"/>
      <point x="258" y="1204" type="line"/>
      <point x="254" y="1462" type="line"/>
      <point x="211" y="1462" type="line"/>
      <point x="211" y="0" type="line"/>
      <point x="264" y="0" type="line"/>
      <point x="264" y="958" type="line" smooth="yes"/>
      <point x="264" y="1272"/>
      <point x="408" y="1432"/>
      <point x="700" y="1432" type="curve" smooth="yes"/>
      <point x="961" y="1432"/>
      <point x="1092" y="1307"/>
      <point x="1092" y="977" type="curve" smooth="yes"/>
      <point x="1092" y="-492" type="line"/>
      <point x="1145" y="-492" type="line"/>
      <point x="1145" y="987" type="line" smooth="yes"/>
      <point x="1145" y="1329"/>
      <point x="995" y="1483"/>
    </contour>
  </outline>
</glyph>
<glyph name="uni0221" format="2">
  <advance width="1731"/>
  <unicode hex="0221"/>
  <anchor x="866" y="-199" name="bottom"/>
  <anchor x="866" y="1556" name="top"/>
  <outline>
    <contour>
      <point x="1069" y="-199" type="line"/>
      <point x="1071" y="-141"/>
      <point x="1083" y="-37"/>
      <point x="1096" y="12" type="curve"/>
      <point x="1128" y="6"/>
      <point x="1245" y="0"/>
      <point x="1376" y="0" type="curve" smooth="yes"/>
      <point x="1612" y="0"/>
      <point x="1702" y="98"/>
      <point x="1702" y="238" type="curve" smooth="yes"/>
      <point x="1702" y="369"/>
      <point x="1595" y="436"/>
      <point x="1450" y="436" type="curve" smooth="yes"/>
      <point x="1196" y="436"/>
      <point x="1100" y="223"/>
      <point x="1059" y="84" type="curve"/>
      <point x="1026" y="127"/>
      <point x="1012" y="211"/>
      <point x="1012" y="311" type="curve" smooth="yes"/>
      <point x="1012" y="1556" type="line"/>
      <point x="958" y="1556" type="line"/>
      <point x="958" y="1112" type="line" smooth="yes"/>
      <point x="958" y="1026"/>
      <point x="958" y="940"/>
      <point x="963" y="848" type="curve"/>
      <point x="958" y="848" type="line"/>
      <point x="913" y="991"/>
      <point x="793" y="1102"/>
      <point x="596" y="1102" type="curve" smooth="yes"/>
      <point x="289" y="1102"/>
      <point x="121" y="895"/>
      <point x="121" y="520" type="curve" smooth="yes"/>
      <point x="121" y="170"/>
      <point x="268" y="-20"/>
      <point x="580" y="-20" type="curve" smooth="yes"/>
      <point x="795" y="-20"/>
      <point x="909" y="98"/>
      <point x="958" y="225" type="curve"/>
      <point x="961" y="225" type="line"/>
      <point x="973" y="111"/>
      <point x="1001" y="53"/>
      <point x="1044" y="23" type="curve"/>
      <point x="1030" y="-43"/>
      <point x="1020" y="-141"/>
      <point x="1018" y="-195" type="curve"/>
    </contour>
    <contour>
      <point x="580" y="31" type="curve" smooth="yes"/>
      <point x="305" y="31"/>
      <point x="176" y="193"/>
      <point x="176" y="520" type="curve" smooth="yes"/>
      <point x="176" y="874"/>
      <point x="326" y="1051"/>
      <point x="596" y="1051" type="curve" smooth="yes"/>
      <point x="840" y="1051"/>
      <point x="958" y="872"/>
      <point x="958" y="545" type="curve" smooth="yes"/>
      <point x="958" y="539" type="line" smooth="yes"/>
      <point x="958" y="213"/>
      <point x="852" y="31"/>
    </contour>
    <contour>
      <point x="1372" y="51" type="curve" smooth="yes"/>
      <point x="1257" y="51"/>
      <point x="1155" y="57"/>
      <point x="1106" y="63" type="curve"/>
      <point x="1151" y="217"/>
      <point x="1231" y="387"/>
      <point x="1448" y="387" type="curve" smooth="yes"/>
      <point x="1581" y="387"/>
      <point x="1649" y="334"/>
      <point x="1649" y="236" type="curve" smooth="yes"/>
      <point x="1649" y="125"/>
      <point x="1585" y="51"/>
    </contour>
  </outline>
</glyph>
<glyph name="uni0235" format="2">
  <advance width="1464"/>
  <unicode hex="0235"/>
  <anchor x="733" y="0" name="bottom"/>
  <anchor x="733" y="1081" name="top"/>
  <outline>
    <contour>
      <point x="864" y="-39" type="line"/>
      <point x="887" y="41"/>
      <point x="926" y="133"/>
      <point x="965" y="180" type="curve"/>
      <point x="997" y="57"/>
      <point x="1071" y="-20"/>
      <point x="1202" y="-20" type="curve" smooth="yes"/>
      <point x="1317" y="-20"/>
      <point x="1425" y="53"/>
      <point x="1425" y="182" type="curve" smooth="yes"/>
      <point x="1425" y="303"/>
      <point x="1339" y="379"/>
      <point x="1210" y="379" type="curve" smooth="yes"/>
      <point x="1114" y="379"/>
      <point x="1044" y="338"/>
      <point x="1001" y="301" type="curve"/>
      <point x="1001" y="709" type="line" smooth="yes"/>
      <point x="1001" y="977"/>
      <point x="866" y="1102"/>
      <point x="633" y="1102" type="curve" smooth="yes"/>
      <point x="403" y="1102"/>
      <point x="287" y="979"/>
      <point x="240" y="854" type="curve"/>
      <point x="236" y="854" type="line"/>
      <point x="227" y="1081" type="line"/>
      <point x="184" y="1081" type="line"/>
      <point x="184" y="0" type="line"/>
      <point x="238" y="0" type="line"/>
      <point x="238" y="618" type="line" smooth="yes"/>
      <point x="238" y="913"/>
      <point x="397" y="1051"/>
      <point x="633" y="1051" type="curve" smooth="yes"/>
      <point x="831" y="1051"/>
      <point x="948" y="946"/>
      <point x="948" y="707" type="curve" smooth="yes"/>
      <point x="948" y="387" type="line" smooth="yes"/>
      <point x="948" y="342"/>
      <point x="950" y="287"/>
      <point x="954" y="248" type="curve"/>
      <point x="895" y="180"/>
      <point x="842" y="70"/>
      <point x="813" y="-31" type="curve"/>
    </contour>
    <contour>
      <point x="1202" y="31" type="curve" smooth="yes"/>
      <point x="1085" y="31"/>
      <point x="1018" y="123"/>
      <point x="1008" y="233" type="curve"/>
      <point x="1053" y="291"/>
      <point x="1124" y="328"/>
      <point x="1208" y="328" type="curve" smooth="yes"/>
      <point x="1311" y="328"/>
      <point x="1370" y="272"/>
      <point x="1370" y="182" type="curve" smooth="yes"/>
      <point x="1370" y="94"/>
      <point x="1303" y="31"/>
    </contour>
  </outline>
</glyph>
<glyph name="uni0239" format="2">
  <advance width="1970"/>
  <unicode hex="0239"/>
  <anchor x="985" y="-473" name="bottom"/>
  <anchor x="985" y="1081" name="top"/>
  <outline>
    <contour>
      <point x="1399" y="1104" type="curve" smooth="yes"/>
      <point x="1176" y="1104"/>
      <point x="1034" y="989"/>
      <point x="985" y="770" type="curve"/>
      <point x="936" y="989"/>
      <point x="795" y="1104"/>
      <point x="571" y="1104" type="curve" smooth="yes"/>
      <point x="248" y="1104"/>
      <point x="121" y="858"/>
      <point x="121" y="547" type="curve" smooth="yes"/>
      <point x="121" y="182"/>
      <point x="276" y="-20"/>
      <point x="578" y="-20" type="curve" smooth="yes"/>
      <point x="793" y="-20"/>
      <point x="915" y="104"/>
      <point x="958" y="252" type="curve"/>
      <point x="963" y="252" type="line"/>
      <point x="961" y="186"/>
      <point x="958" y="74"/>
      <point x="958" y="8" type="curve" smooth="yes"/>
      <point x="958" y="-473" type="line"/>
      <point x="1012" y="-473" type="line"/>
      <point x="1012" y="8" type="line" smooth="yes"/>
      <point x="1012" y="74"/>
      <point x="1010" y="186"/>
      <point x="1008" y="252" type="curve"/>
      <point x="1012" y="252" type="line"/>
      <point x="1055" y="104"/>
      <point x="1178" y="-20"/>
      <point x="1393" y="-20" type="curve" smooth="yes"/>
      <point x="1694" y="-20"/>
      <point x="1849" y="182"/>
      <point x="1849" y="547" type="curve" smooth="yes"/>
      <point x="1849" y="858"/>
      <point x="1722" y="1104"/>
    </contour>
    <contour>
      <point x="571" y="1053" type="curve" smooth="yes"/>
      <point x="831" y="1053"/>
      <point x="958" y="885"/>
      <point x="958" y="545" type="curve" smooth="yes"/>
      <point x="958" y="213"/>
      <point x="836" y="31"/>
      <point x="578" y="31" type="curve" smooth="yes"/>
      <point x="309" y="31"/>
      <point x="176" y="211"/>
      <point x="176" y="547" type="curve" smooth="yes"/>
      <point x="176" y="874"/>
      <point x="307" y="1053"/>
    </contour>
    <contour>
      <point x="1399" y="1053" type="curve" smooth="yes"/>
      <point x="1663" y="1053"/>
      <point x="1794" y="874"/>
      <point x="1794" y="547" type="curve" smooth="yes"/>
      <point x="1794" y="211"/>
      <point x="1661" y="31"/>
      <point x="1393" y="31" type="curve" smooth="yes"/>
      <point x="1135" y="31"/>
      <point x="1012" y="213"/>
      <point x="1012" y="545" type="curve" smooth="yes"/>
      <point x="1012" y="879"/>
      <point x="1133" y="1053"/>
    </contour>
  </outline>
</glyph>
<glyph name="uni0240" format="2">
  <advance width="934"/>
  <unicode hex="0240"/>
  <anchor x="467" y="-492" name="bottom"/>
  <anchor x="467" y="1081" name="top"/>
  <outline>
    <contour>
      <point x="725" y="-492" type="curve" smooth="yes"/>
      <point x="811" y="-492"/>
      <point x="868" y="-475"/>
      <point x="903" y="-463" type="curve"/>
      <point x="903" y="-412" type="line"/>
      <point x="866" y="-426"/>
      <point x="805" y="-440"/>
      <point x="733" y="-440" type="curve" smooth="yes"/>
      <point x="555" y="-440"/>
      <point x="508" y="-362"/>
      <point x="438" y="-176" type="curve" smooth="yes"/>
      <point x="377" y="-12"/>
      <point x="287" y="35"/>
      <point x="150" y="41" type="curve"/>
      <point x="850" y="1051" type="line"/>
      <point x="850" y="1081" type="line"/>
      <point x="139" y="1081" type="line"/>
      <point x="139" y="1030" type="line"/>
      <point x="772" y="1030" type="line"/>
      <point x="84" y="35" type="line"/>
      <point x="84" y="0" type="line"/>
      <point x="96" y="0" type="line" smooth="yes"/>
      <point x="246" y="0"/>
      <point x="332" y="-43"/>
      <point x="389" y="-199" type="curve" smooth="yes"/>
      <point x="461" y="-391"/>
      <point x="524" y="-492"/>
    </contour>
  </outline>
</glyph>
<glyph name="uni0242" format="2">
  <advance width="801"/>
  <unicode hex="0242"/>
  <anchor x="401" y="0" name="bottom"/>
  <anchor x="401" y="1081" name="top"/>
  <outline>
    <contour>
      <point x="367" y="1098" type="curve" smooth="yes"/>
      <point x="211" y="1098"/>
      <point x="111" y="1059"/>
      <point x="18" y="1012" type="curve"/>
      <point x="39" y="965" type="line"/>
      <point x="117" y="1004"/>
      <point x="219" y="1047"/>
      <point x="365" y="1047" type="curve" smooth="yes"/>
      <point x="578" y="1047"/>
      <point x="709" y="924"/>
      <point x="709" y="711" type="curve" smooth="yes"/>
      <point x="709" y="444"/>
      <point x="512" y="348"/>
      <point x="315" y="274" type="curve"/>
      <point x="315" y="0" type="line"/>
      <point x="369" y="0" type="line"/>
      <point x="369" y="242" type="line"/>
      <point x="545" y="311"/>
      <point x="764" y="428"/>
      <point x="764" y="715" type="curve" smooth="yes"/>
      <point x="764" y="948"/>
      <point x="614" y="1098"/>
    </contour>
  </outline>
</glyph>
<glyph name="uni0247" format="2">
  <advance width="1106"/>
  <unicode hex="0247"/>
  <anchor x="553" y="-326" name="bottom"/>
  <anchor x="553" y="1384" name="top"/>
  <outline>
    <contour>
      <point x="885" y="1384" type="line"/>
      <point x="831" y="1384" type="line"/>
      <point x="238" y="-326" type="line"/>
      <point x="291" y="-326" type="line"/>
    </contour>
    <component base="e"/>
  </outline>
</glyph>
<glyph name="uni0248" format="2">
  <advance width="473"/>
  <unicode hex="0248"/>
  <anchor x="238" y="-356" name="bottom"/>
  <anchor x="238" y="1462" name="top"/>
  <outline>
    <contour>
      <point x="-43" y="-356" type="curve" smooth="yes"/>
      <point x="182" y="-356"/>
      <point x="270" y="-238"/>
      <point x="270" y="-14" type="curve" smooth="yes"/>
      <point x="270" y="680" type="line"/>
      <point x="469" y="680" type="line"/>
      <point x="469" y="731" type="line"/>
      <point x="270" y="731" type="line"/>
      <point x="270" y="1462" type="line"/>
      <point x="217" y="1462" type="line"/>
      <point x="217" y="731" type="line"/>
      <point x="20" y="731" type="line"/>
      <point x="20" y="680" type="line"/>
      <point x="217" y="680" type="line"/>
      <point x="217" y="-20" type="line" smooth="yes"/>
      <point x="217" y="-190"/>
      <point x="154" y="-303"/>
      <point x="-45" y="-303" type="curve" smooth="yes"/>
      <point x="-106" y="-303"/>
      <point x="-160" y="-293"/>
      <point x="-199" y="-276" type="curve"/>
      <point x="-199" y="-330" type="line"/>
      <point x="-164" y="-344"/>
      <point x="-111" y="-356"/>
    </contour>
  </outline>
</glyph>
<glyph name="uni024A" format="2">
  <advance width="1501"/>
  <unicode hex="024A"/>
  <anchor x="752" y="-498" name="bottom"/>
  <anchor x="752" y="1462" name="top"/>
  <outline>
    <contour>
      <point x="760" y="1479" type="curve" smooth="yes"/>
      <point x="340" y="1479"/>
      <point x="133" y="1180"/>
      <point x="133" y="737" type="curve" smooth="yes"/>
      <point x="133" y="295"/>
      <point x="328" y="-20"/>
      <point x="754" y="-20" type="curve" smooth="yes"/>
      <point x="1047" y="-20"/>
      <point x="1217" y="143"/>
      <point x="1280" y="348" type="curve"/>
      <point x="1284" y="348" type="line"/>
      <point x="1282" y="281"/>
      <point x="1280" y="180"/>
      <point x="1280" y="115" type="curve" smooth="yes"/>
      <point x="1280" y="-256" type="line" smooth="yes"/>
      <point x="1280" y="-414"/>
      <point x="1352" y="-498"/>
      <point x="1493" y="-498" type="curve" smooth="yes"/>
      <point x="1540" y="-498"/>
      <point x="1577" y="-489"/>
      <point x="1606" y="-477" type="curve"/>
      <point x="1606" y="-426" type="line"/>
      <point x="1573" y="-438"/>
      <point x="1542" y="-446"/>
      <point x="1497" y="-446" type="curve" smooth="yes"/>
      <point x="1386" y="-446"/>
      <point x="1333" y="-383"/>
      <point x="1333" y="-242" type="curve"/>
      <point x="1333" y="1462" type="line"/>
      <point x="1284" y="1462" type="line"/>
      <point x="1282" y="1122" type="line"/>
      <point x="1278" y="1122" type="line"/>
      <point x="1221" y="1319"/>
      <point x="1040" y="1479"/>
    </contour>
    <contour>
      <point x="758" y="1427" type="curve" smooth="yes"/>
      <point x="1038" y="1427"/>
      <point x="1280" y="1260"/>
      <point x="1280" y="856" type="curve" smooth="yes"/>
      <point x="1280" y="618" type="line" smooth="yes"/>
      <point x="1280" y="215"/>
      <point x="1044" y="31"/>
      <point x="758" y="31" type="curve" smooth="yes"/>
      <point x="356" y="31"/>
      <point x="188" y="326"/>
      <point x="188" y="735" type="curve" smooth="yes"/>
      <point x="188" y="1139"/>
      <point x="362" y="1427"/>
    </contour>
  </outline>
</glyph>
<glyph name="uni024D" format="2">
  <advance width="768"/>
  <unicode hex="024D"/>
  <anchor x="213" y="0" name="bottom"/>
  <anchor x="385" y="1081" name="top"/>
  <outline>
    <contour>
      <point x="535" y="592" type="line"/>
      <point x="31" y="592" type="line"/>
      <point x="31" y="541" type="line"/>
      <point x="535" y="541" type="line"/>
    </contour>
    <component base="r"/>
  </outline>
</glyph>
<glyph name="uni024E" format="2">
  <advance width="1034"/>
  <unicode hex="024E"/>
  <anchor x="518" y="0" name="bottom"/>
  <anchor x="518" y="1462" name="top"/>
  <outline>
    <contour>
      <point x="1008" y="1190" type="line"/>
      <point x="20" y="1190" type="line"/>
      <point x="20" y="1139" type="line"/>
      <point x="1008" y="1139" type="line"/>
    </contour>
    <component base="Y"/>
  </outline>
</glyph>
<glyph name="uni024F" format="2">
  <advance width="877"/>
  <unicode hex="024F"/>
  <anchor x="102" y="-498" name="bottom"/>
  <anchor x="438" y="1081" name="top"/>
  <outline>
    <contour>
      <point x="872" y="696" type="line"/>
      <point x="0" y="696" type="line"/>
      <point x="0" y="645" type="line"/>
      <point x="872" y="645" type="line"/>
    </contour>
    <component base="y"/>
  </outline>
</glyph>
<glyph name="uni0253" format="2">
  <advance width="1194"/>
  <unicode hex="0253"/>
  <anchor x="598" y="0" name="bottom"/>
  <anchor x="598" y="1567" name="top"/>
  <outline>
    <contour>
      <point x="467" y="1567" type="curve" smooth="yes"/>
      <point x="283" y="1567"/>
      <point x="182" y="1452"/>
      <point x="182" y="1260" type="curve" smooth="yes"/>
      <point x="182" y="0" type="line"/>
      <point x="227" y="0" type="line"/>
      <point x="236" y="213" type="line"/>
      <point x="240" y="213" type="line"/>
      <point x="289" y="78"/>
      <point x="410" y="-20"/>
      <point x="604" y="-20" type="curve" smooth="yes"/>
      <point x="934" y="-20"/>
      <point x="1073" y="233"/>
      <point x="1073" y="545" type="curve" smooth="yes"/>
      <point x="1073" y="909"/>
      <point x="924" y="1104"/>
      <point x="637" y="1104" type="curve" smooth="yes"/>
      <point x="430" y="1104"/>
      <point x="281" y="989"/>
      <point x="236" y="831" type="curve"/>
      <point x="231" y="831" type="line"/>
      <point x="233" y="899"/>
      <point x="236" y="985"/>
      <point x="236" y="1051" type="curve" smooth="yes"/>
      <point x="236" y="1253" type="line" smooth="yes"/>
      <point x="236" y="1434"/>
      <point x="313" y="1516"/>
      <point x="467" y="1516" type="curve" smooth="yes"/>
      <point x="510" y="1516"/>
      <point x="543" y="1511"/>
      <point x="573" y="1503" type="curve"/>
      <point x="573" y="1556" type="line"/>
      <point x="539" y="1563"/>
      <point x="506" y="1567"/>
    </contour>
    <contour>
      <point x="637" y="1053" type="curve" smooth="yes"/>
      <point x="891" y="1053"/>
      <point x="1018" y="881"/>
      <point x="1018" y="545" type="curve" smooth="yes"/>
      <point x="1018" y="217"/>
      <point x="874" y="31"/>
      <point x="604" y="31" type="curve" smooth="yes"/>
      <point x="354" y="31"/>
      <point x="236" y="197"/>
      <point x="236" y="539" type="curve" smooth="yes"/>
      <point x="236" y="858"/>
      <point x="365" y="1053"/>
    </contour>
  </outline>
</glyph>
<glyph name="uni0254" format="2">
  <advance width="969"/>
  <unicode hex="0254"/>
  <anchor x="485" y="0" name="bottom"/>
  <anchor x="485" y="1081" name="top"/>
  <outline>
    <contour>
      <point x="362" y="1102" type="curve" smooth="yes"/>
      <point x="264" y="1102"/>
      <point x="143" y="1077"/>
      <point x="68" y="1044" type="curve"/>
      <point x="78" y="993" type="line"/>
      <point x="160" y="1030"/>
      <point x="279" y="1051"/>
      <point x="356" y="1051" type="curve" smooth="yes"/>
      <point x="657" y="1051"/>
      <point x="793" y="858"/>
      <point x="793" y="555" type="curve" smooth="yes"/>
      <point x="793" y="276"/>
      <point x="670" y="31"/>
      <point x="342" y="31" type="curve" smooth="yes"/>
      <point x="244" y="31"/>
      <point x="141" y="51"/>
      <point x="61" y="84" type="curve"/>
      <point x="61" y="29" type="line"/>
      <point x="129" y="2"/>
      <point x="225" y="-20"/>
      <point x="338" y="-20" type="curve" smooth="yes"/>
      <point x="700" y="-20"/>
      <point x="848" y="240"/>
      <point x="848" y="557" type="curve" smooth="yes"/>
      <point x="848" y="887"/>
      <point x="700" y="1102"/>
    </contour>
  </outline>
</glyph>
<glyph name="uni0255" format="2">
  <advance width="1012"/>
  <unicode hex="0255"/>
  <anchor x="506" y="0" name="bottom"/>
  <anchor x="506" y="1081" name="top"/>
  <outline>
    <contour>
      <point x="653" y="1102" type="curve" smooth="yes"/>
      <point x="322" y="1102"/>
      <point x="121" y="864"/>
      <point x="121" y="535" type="curve" smooth="yes"/>
      <point x="121" y="387"/>
      <point x="156" y="256"/>
      <point x="225" y="158" type="curve"/>
      <point x="186" y="90"/>
      <point x="156" y="12"/>
      <point x="137" y="-66" type="curve"/>
      <point x="188" y="-78" type="line"/>
      <point x="207" y="-8"/>
      <point x="229" y="59"/>
      <point x="262" y="115" type="curve"/>
      <point x="344" y="31"/>
      <point x="461" y="-20"/>
      <point x="618" y="-20" type="curve" smooth="yes"/>
      <point x="827" y="-20"/>
      <point x="932" y="76"/>
      <point x="932" y="205" type="curve" smooth="yes"/>
      <point x="932" y="328"/>
      <point x="827" y="412"/>
      <point x="666" y="412" type="curve" smooth="yes"/>
      <point x="485" y="412"/>
      <point x="344" y="324"/>
      <point x="258" y="207" type="curve"/>
      <point x="201" y="295"/>
      <point x="176" y="410"/>
      <point x="176" y="535" type="curve" smooth="yes"/>
      <point x="176" y="838"/>
      <point x="358" y="1051"/>
      <point x="653" y="1051" type="curve" smooth="yes"/>
      <point x="731" y="1051"/>
      <point x="813" y="1038"/>
      <point x="895" y="1001" type="curve"/>
      <point x="905" y="1053" type="line"/>
      <point x="829" y="1085"/>
      <point x="752" y="1102"/>
    </contour>
    <contour>
      <point x="662" y="360" type="curve" smooth="yes"/>
      <point x="799" y="360"/>
      <point x="877" y="297"/>
      <point x="877" y="201" type="curve" smooth="yes"/>
      <point x="877" y="111"/>
      <point x="795" y="31"/>
      <point x="618" y="31" type="curve" smooth="yes"/>
      <point x="473" y="31"/>
      <point x="362" y="82"/>
      <point x="291" y="164" type="curve"/>
      <point x="373" y="281"/>
      <point x="506" y="360"/>
    </contour>
  </outline>
</glyph>
<glyph name="uni0256" format="2">
  <advance width="1194"/>
  <unicode hex="0256"/>
  <anchor x="598" y="-485" name="bottom"/>
  <anchor x="598" y="1556" name="top"/>
  <anchor x="1153" y="1556" name="topright"/>
  <outline>
    <contour>
      <point x="1214" y="-485" type="curve" smooth="yes"/>
      <point x="1264" y="-485"/>
      <point x="1313" y="-475"/>
      <point x="1339" y="-465" type="curve"/>
      <point x="1339" y="-414" type="line"/>
      <point x="1313" y="-424"/>
      <point x="1272" y="-434"/>
      <point x="1217" y="-434" type="curve" smooth="yes"/>
      <point x="1090" y="-434"/>
      <point x="1008" y="-367"/>
      <point x="1008" y="-186" type="curve" smooth="yes"/>
      <point x="1008" y="1556" type="line"/>
      <point x="954" y="1556" type="line"/>
      <point x="954" y="1112" type="line" smooth="yes"/>
      <point x="954" y="1026"/>
      <point x="954" y="936"/>
      <point x="958" y="844" type="curve"/>
      <point x="954" y="844" type="line"/>
      <point x="909" y="987"/>
      <point x="788" y="1102"/>
      <point x="573" y="1102" type="curve" smooth="yes"/>
      <point x="285" y="1102"/>
      <point x="117" y="895"/>
      <point x="117" y="530" type="curve" smooth="yes"/>
      <point x="117" y="170"/>
      <point x="266" y="-20"/>
      <point x="553" y="-20" type="curve" smooth="yes"/>
      <point x="778" y="-20"/>
      <point x="909" y="106"/>
      <point x="954" y="250" type="curve"/>
      <point x="958" y="250" type="line"/>
      <point x="956" y="182"/>
      <point x="954" y="72"/>
      <point x="954" y="6" type="curve" smooth="yes"/>
      <point x="954" y="-201" type="line" smooth="yes"/>
      <point x="954" y="-389"/>
      <point x="1049" y="-485"/>
    </contour>
    <contour>
      <point x="553" y="31" type="curve" smooth="yes"/>
      <point x="303" y="31"/>
      <point x="172" y="193"/>
      <point x="172" y="530" type="curve" smooth="yes"/>
      <point x="172" y="874"/>
      <point x="322" y="1051"/>
      <point x="573" y="1051" type="curve" smooth="yes"/>
      <point x="807" y="1051"/>
      <point x="952" y="893"/>
      <point x="952" y="545" type="curve" smooth="yes"/>
      <point x="952" y="539" type="line" smooth="yes"/>
      <point x="952" y="219"/>
      <point x="815" y="31"/>
    </contour>
  </outline>
</glyph>
<glyph name="uni0257" format="2">
  <advance width="1194"/>
  <unicode hex="0257"/>
  <anchor x="598" y="0" name="bottom"/>
  <anchor x="598" y="1565" name="top"/>
  <outline>
    <contour>
      <point x="580" y="-20" type="curve" smooth="yes"/>
      <point x="795" y="-20"/>
      <point x="909" y="94"/>
      <point x="958" y="231" type="curve"/>
      <point x="963" y="231" type="line"/>
      <point x="967" y="0" type="line"/>
      <point x="1012" y="0" type="line"/>
      <point x="1012" y="1311" type="line" smooth="yes"/>
      <point x="1012" y="1438"/>
      <point x="1065" y="1513"/>
      <point x="1174" y="1513" type="curve" smooth="yes"/>
      <point x="1214" y="1513"/>
      <point x="1257" y="1509"/>
      <point x="1298" y="1491" type="curve"/>
      <point x="1298" y="1544" type="line"/>
      <point x="1266" y="1556"/>
      <point x="1225" y="1565"/>
      <point x="1174" y="1565" type="curve" smooth="yes"/>
      <point x="1057" y="1565"/>
      <point x="958" y="1485"/>
      <point x="958" y="1319" type="curve" smooth="yes"/>
      <point x="958" y="1112" type="line" smooth="yes"/>
      <point x="958" y="1026"/>
      <point x="958" y="940"/>
      <point x="963" y="848" type="curve"/>
      <point x="958" y="848" type="line"/>
      <point x="913" y="991"/>
      <point x="793" y="1102"/>
      <point x="596" y="1102" type="curve" smooth="yes"/>
      <point x="289" y="1102"/>
      <point x="121" y="895"/>
      <point x="121" y="520" type="curve" smooth="yes"/>
      <point x="121" y="170"/>
      <point x="268" y="-20"/>
    </contour>
    <contour>
      <point x="580" y="31" type="curve" smooth="yes"/>
      <point x="305" y="31"/>
      <point x="176" y="193"/>
      <point x="176" y="520" type="curve" smooth="yes"/>
      <point x="176" y="874"/>
      <point x="326" y="1051"/>
      <point x="596" y="1051" type="curve" smooth="yes"/>
      <point x="840" y="1051"/>
      <point x="958" y="872"/>
      <point x="958" y="545" type="curve" smooth="yes"/>
      <point x="958" y="539" type="line" smooth="yes"/>
      <point x="958" y="219"/>
      <point x="852" y="31"/>
    </contour>
  </outline>
</glyph>
<glyph name="eopenreversedhook" format="2">
  <advance width="1214"/>
  <unicode hex="025D"/>
  <anchor x="440" y="0" name="bottom"/>
  <anchor x="440" y="1081" name="top"/>
  <outline>
    <contour>
      <point x="1065" y="637" type="curve" smooth="yes"/>
      <point x="1116" y="637"/>
      <point x="1165" y="651"/>
      <point x="1214" y="666" type="curve"/>
      <point x="1188" y="719" type="line"/>
      <point x="1153" y="707"/>
      <point x="1116" y="694"/>
      <point x="1059" y="694" type="curve" smooth="yes"/>
      <point x="961" y="694"/>
      <point x="920" y="752"/>
      <point x="881" y="897" type="curve" smooth="yes"/>
      <point x="856" y="989" type="line"/>
      <point x="682" y="934" type="line"/>
      <point x="694" y="889" type="line"/>
      <point x="815" y="926" type="line"/>
      <point x="852" y="768"/>
      <point x="897" y="637"/>
    </contour>
    <component base="afii10073"/>
  </outline>
</glyph>
<glyph name="uni025E" format="2">
  <advance width="1073"/>
  <unicode hex="025E"/>
  <anchor x="537" y="0" name="bottom"/>
  <anchor x="537" y="1081" name="top"/>
  <outline>
    <contour>
      <point x="604" y="1102" type="curve" smooth="yes"/>
      <point x="279" y="1102"/>
      <point x="121" y="870"/>
      <point x="121" y="530" type="curve" smooth="yes"/>
      <point x="121" y="193"/>
      <point x="258" y="-20"/>
      <point x="569" y="-20" type="curve" smooth="yes"/>
      <point x="842" y="-20"/>
      <point x="977" y="115"/>
      <point x="977" y="303" type="curve" smooth="yes"/>
      <point x="977" y="453"/>
      <point x="901" y="537"/>
      <point x="737" y="578" type="curve"/>
      <point x="737" y="582" type="line"/>
      <point x="872" y="612"/>
      <point x="940" y="705"/>
      <point x="940" y="827" type="curve" smooth="yes"/>
      <point x="940" y="999"/>
      <point x="807" y="1102"/>
    </contour>
    <contour>
      <point x="604" y="1051" type="curve" smooth="yes"/>
      <point x="778" y="1051"/>
      <point x="885" y="963"/>
      <point x="885" y="827" type="curve" smooth="yes"/>
      <point x="885" y="672"/>
      <point x="774" y="602"/>
      <point x="537" y="602" type="curve" smooth="yes"/>
      <point x="467" y="602" type="line"/>
      <point x="467" y="551" type="line"/>
      <point x="549" y="551" type="line" smooth="yes"/>
      <point x="784" y="551"/>
      <point x="922" y="483"/>
      <point x="922" y="303" type="curve" smooth="yes"/>
      <point x="922" y="152"/>
      <point x="811" y="31"/>
      <point x="573" y="31" type="curve" smooth="yes"/>
      <point x="297" y="31"/>
      <point x="176" y="213"/>
      <point x="176" y="530" type="curve" smooth="yes"/>
      <point x="176" y="840"/>
      <point x="309" y="1051"/>
    </contour>
  </outline>
</glyph>
<glyph name="uni025F" format="2">
  <advance width="424"/>
  <unicode hex="025F"/>
  <anchor x="213" y="-492" name="bottom"/>
  <anchor x="213" y="1081" name="top"/>
  <anchor x="383" y="1079" name="topright"/>
  <outline>
    <contour>
      <point x="23" y="-492" type="curve" smooth="yes"/>
      <point x="139" y="-492"/>
      <point x="238" y="-412"/>
      <point x="238" y="-246" type="curve" smooth="yes"/>
      <point x="238" y="514" type="line"/>
      <point x="416" y="514" type="line"/>
      <point x="416" y="565" type="line"/>
      <point x="238" y="565" type="line"/>
      <point x="238" y="1081" type="line"/>
      <point x="184" y="1081" type="line"/>
      <point x="184" y="565" type="line"/>
      <point x="14" y="565" type="line"/>
      <point x="14" y="514" type="line"/>
      <point x="184" y="514" type="line"/>
      <point x="184" y="-238" type="line" smooth="yes"/>
      <point x="184" y="-365"/>
      <point x="131" y="-440"/>
      <point x="23" y="-440" type="curve" smooth="yes"/>
      <point x="-18" y="-440"/>
      <point x="-61" y="-436"/>
      <point x="-102" y="-418" type="curve"/>
      <point x="-102" y="-471" type="line"/>
      <point x="-70" y="-483"/>
      <point x="-29" y="-492"/>
    </contour>
  </outline>
</glyph>
<glyph name="uni0260" format="2">
  <advance width="1194"/>
  <unicode hex="0260"/>
  <anchor x="598" y="-492" name="bottom"/>
  <anchor x="598" y="1565" name="top"/>
  <outline>
    <contour>
      <point x="1169" y="1565" type="curve" smooth="yes"/>
      <point x="1053" y="1565"/>
      <point x="954" y="1485"/>
      <point x="954" y="1319" type="curve" smooth="yes"/>
      <point x="954" y="1071" type="line" smooth="yes"/>
      <point x="954" y="997"/>
      <point x="954" y="948"/>
      <point x="956" y="889" type="curve"/>
      <point x="952" y="889" type="line"/>
      <point x="895" y="1008"/>
      <point x="793" y="1102"/>
      <point x="594" y="1102" type="curve" smooth="yes"/>
      <point x="279" y="1102"/>
      <point x="121" y="881"/>
      <point x="121" y="524" type="curve" smooth="yes"/>
      <point x="121" y="166"/>
      <point x="287" y="-20"/>
      <point x="565" y="-20" type="curve" smooth="yes"/>
      <point x="768" y="-20"/>
      <point x="905" y="70"/>
      <point x="954" y="240" type="curve"/>
      <point x="958" y="240" type="line"/>
      <point x="954" y="160"/>
      <point x="954" y="115"/>
      <point x="954" y="35" type="curve" smooth="yes"/>
      <point x="954" y="-51" type="line" smooth="yes"/>
      <point x="954" y="-287"/>
      <point x="848" y="-440"/>
      <point x="559" y="-440" type="curve" smooth="yes"/>
      <point x="406" y="-440"/>
      <point x="276" y="-401"/>
      <point x="178" y="-354" type="curve"/>
      <point x="178" y="-416" type="line"/>
      <point x="276" y="-457"/>
      <point x="393" y="-492"/>
      <point x="559" y="-492" type="curve" smooth="yes"/>
      <point x="887" y="-492"/>
      <point x="1008" y="-311"/>
      <point x="1008" y="-51" type="curve" smooth="yes"/>
      <point x="1008" y="1311" type="line" smooth="yes"/>
      <point x="1008" y="1438"/>
      <point x="1061" y="1513"/>
      <point x="1169" y="1513" type="curve" smooth="yes"/>
      <point x="1210" y="1513"/>
      <point x="1253" y="1509"/>
      <point x="1294" y="1491" type="curve"/>
      <point x="1294" y="1544" type="line"/>
      <point x="1262" y="1556"/>
      <point x="1221" y="1565"/>
    </contour>
    <contour>
      <point x="594" y="1051" type="curve" smooth="yes"/>
      <point x="870" y="1051"/>
      <point x="954" y="858"/>
      <point x="954" y="602" type="curve" smooth="yes"/>
      <point x="954" y="504" type="line" smooth="yes"/>
      <point x="954" y="279"/>
      <point x="885" y="31"/>
      <point x="565" y="31" type="curve" smooth="yes"/>
      <point x="315" y="31"/>
      <point x="176" y="203"/>
      <point x="176" y="524" type="curve" smooth="yes"/>
      <point x="176" y="854"/>
      <point x="307" y="1051"/>
    </contour>
  </outline>
</glyph>
<glyph name="uni0262" format="2">
  <advance width="1174"/>
  <unicode hex="0262"/>
  <anchor x="588" y="0" name="bottom"/>
  <anchor x="588" y="1081" name="top"/>
  <anchor x="1081" y="1081" name="topright"/>
  <outline>
    <contour>
      <point x="690" y="1106" type="curve" smooth="yes"/>
      <point x="326" y="1106"/>
      <point x="104" y="858"/>
      <point x="104" y="543" type="curve" smooth="yes"/>
      <point x="104" y="203"/>
      <point x="315" y="-16"/>
      <point x="664" y="-16" type="curve" smooth="yes"/>
      <point x="803" y="-16"/>
      <point x="913" y="12"/>
      <point x="1018" y="55" type="curve"/>
      <point x="1018" y="530" type="line"/>
      <point x="623" y="530" type="line"/>
      <point x="623" y="479" type="line"/>
      <point x="965" y="479" type="line"/>
      <point x="965" y="88" type="line"/>
      <point x="893" y="61"/>
      <point x="791" y="35"/>
      <point x="676" y="35" type="curve" smooth="yes"/>
      <point x="342" y="35"/>
      <point x="160" y="229"/>
      <point x="160" y="545" type="curve" smooth="yes"/>
      <point x="160" y="846"/>
      <point x="371" y="1055"/>
      <point x="684" y="1055" type="curve" smooth="yes"/>
      <point x="805" y="1055"/>
      <point x="903" y="1026"/>
      <point x="989" y="981" type="curve"/>
      <point x="1010" y="1034" type="line"/>
      <point x="920" y="1077"/>
      <point x="815" y="1106"/>
    </contour>
  </outline>
</glyph>
<glyph name="uni0266" format="2">
  <advance width="1174"/>
  <unicode hex="0266"/>
  <anchor x="588" y="0" name="bottom"/>
  <anchor x="588" y="1565" name="top"/>
  <outline>
    <contour>
      <point x="184" y="0" type="line"/>
      <point x="238" y="0" type="line"/>
      <point x="238" y="618" type="line" smooth="yes"/>
      <point x="238" y="913"/>
      <point x="397" y="1051"/>
      <point x="633" y="1051" type="curve" smooth="yes"/>
      <point x="831" y="1051"/>
      <point x="948" y="946"/>
      <point x="948" y="707" type="curve" smooth="yes"/>
      <point x="948" y="0" type="line"/>
      <point x="1001" y="0" type="line"/>
      <point x="1001" y="709" type="line" smooth="yes"/>
      <point x="1001" y="977"/>
      <point x="866" y="1102"/>
      <point x="633" y="1102" type="curve" smooth="yes"/>
      <point x="403" y="1102"/>
      <point x="281" y="983"/>
      <point x="238" y="854" type="curve"/>
      <point x="233" y="854" type="line"/>
      <point x="236" y="913"/>
      <point x="238" y="954"/>
      <point x="238" y="1016" type="curve" smooth="yes"/>
      <point x="238" y="1311" type="line" smooth="yes"/>
      <point x="238" y="1438"/>
      <point x="291" y="1513"/>
      <point x="399" y="1513" type="curve" smooth="yes"/>
      <point x="440" y="1513"/>
      <point x="483" y="1509"/>
      <point x="524" y="1491" type="curve"/>
      <point x="524" y="1544" type="line"/>
      <point x="492" y="1556"/>
      <point x="451" y="1565"/>
      <point x="399" y="1565" type="curve" smooth="yes"/>
      <point x="283" y="1565"/>
      <point x="184" y="1485"/>
      <point x="184" y="1319" type="curve" smooth="yes"/>
    </contour>
  </outline>
</glyph>
<glyph name="uni026D" format="2">
  <advance width="424"/>
  <unicode hex="026D"/>
  <anchor x="213" y="-492" name="bottom"/>
  <anchor x="213" y="1556" name="top"/>
  <outline>
    <contour>
      <point x="420" y="-492" type="curve" smooth="yes"/>
      <point x="467" y="-492"/>
      <point x="502" y="-483"/>
      <point x="524" y="-477" type="curve"/>
      <point x="524" y="-424" type="line"/>
      <point x="500" y="-432"/>
      <point x="463" y="-440"/>
      <point x="424" y="-440" type="curve" smooth="yes"/>
      <point x="303" y="-440"/>
      <point x="240" y="-383"/>
      <point x="240" y="-215" type="curve" smooth="yes"/>
      <point x="240" y="1556" type="line"/>
      <point x="186" y="1556" type="line"/>
      <point x="186" y="-233" type="line" smooth="yes"/>
      <point x="186" y="-408"/>
      <point x="266" y="-492"/>
    </contour>
  </outline>
</glyph>
<glyph name="uni026E" format="2">
  <advance width="1141"/>
  <unicode hex="026E"/>
  <anchor x="578" y="-492" name="bottom"/>
  <anchor x="578" y="1556" name="top"/>
  <outline>
    <contour>
      <point x="614" y="-492" type="curve" smooth="yes"/>
      <point x="907" y="-492"/>
      <point x="1077" y="-305"/>
      <point x="1077" y="-29" type="curve" smooth="yes"/>
      <point x="1077" y="244"/>
      <point x="913" y="399"/>
      <point x="489" y="399" type="curve"/>
      <point x="1047" y="1040" type="line"/>
      <point x="1047" y="1081" type="line"/>
      <point x="240" y="1081" type="line"/>
      <point x="240" y="1556" type="line"/>
      <point x="186" y="1556" type="line"/>
      <point x="186" y="0" type="line"/>
      <point x="240" y="0" type="line"/>
      <point x="240" y="1030" type="line"/>
      <point x="963" y="1030" type="line"/>
      <point x="418" y="393" type="line"/>
      <point x="418" y="348" type="line"/>
      <point x="496" y="348" type="line" smooth="yes"/>
      <point x="862" y="348"/>
      <point x="1022" y="227"/>
      <point x="1022" y="-29" type="curve" smooth="yes"/>
      <point x="1022" y="-276"/>
      <point x="874" y="-440"/>
      <point x="614" y="-440" type="curve" smooth="yes"/>
      <point x="487" y="-440"/>
      <point x="377" y="-412"/>
      <point x="279" y="-365" type="curve"/>
      <point x="279" y="-426" type="line"/>
      <point x="375" y="-467"/>
      <point x="477" y="-492"/>
    </contour>
  </outline>
</glyph>
<glyph name="uni0272" format="2">
  <advance width="1174"/>
  <unicode hex="0272"/>
  <anchor x="588" y="-492" name="bottom"/>
  <anchor x="588" y="1081" name="top"/>
  <anchor x="1133" y="1081" name="topright"/>
  <outline>
    <contour>
      <point x="633" y="1102" type="curve" smooth="yes"/>
      <point x="403" y="1102"/>
      <point x="287" y="979"/>
      <point x="240" y="854" type="curve"/>
      <point x="236" y="854" type="line"/>
      <point x="227" y="1081" type="line"/>
      <point x="184" y="1081" type="line"/>
      <point x="184" y="-238" type="line" smooth="yes"/>
      <point x="184" y="-365"/>
      <point x="131" y="-440"/>
      <point x="23" y="-440" type="curve" smooth="yes"/>
      <point x="-18" y="-440"/>
      <point x="-61" y="-436"/>
      <point x="-102" y="-418" type="curve"/>
      <point x="-102" y="-471" type="line"/>
      <point x="-70" y="-483"/>
      <point x="-29" y="-492"/>
      <point x="23" y="-492" type="curve" smooth="yes"/>
      <point x="139" y="-492"/>
      <point x="238" y="-412"/>
      <point x="238" y="-246" type="curve" smooth="yes"/>
      <point x="238" y="618" type="line" smooth="yes"/>
      <point x="238" y="913"/>
      <point x="397" y="1051"/>
      <point x="633" y="1051" type="curve" smooth="yes"/>
      <point x="831" y="1051"/>
      <point x="948" y="946"/>
      <point x="948" y="707" type="curve" smooth="yes"/>
      <point x="948" y="0" type="line"/>
      <point x="1001" y="0" type="line"/>
      <point x="1001" y="709" type="line" smooth="yes"/>
      <point x="1001" y="977"/>
      <point x="866" y="1102"/>
    </contour>
  </outline>
</glyph>
<glyph name="uni0274" format="2">
  <advance width="1151"/>
  <unicode hex="0274"/>
  <anchor x="575" y="0" name="bottom"/>
  <anchor x="575" y="1081" name="top"/>
  <anchor x="1133" y="1081" name="topright"/>
  <outline>
    <contour>
      <point x="170" y="0" type="line"/>
      <point x="223" y="0" type="line"/>
      <point x="223" y="811" type="line" smooth="yes"/>
      <point x="223" y="864"/>
      <point x="223" y="930"/>
      <point x="221" y="1004" type="curve"/>
      <point x="961" y="0" type="line"/>
      <point x="1006" y="0" type="line"/>
      <point x="1006" y="1098" type="line"/>
      <point x="952" y="1098" type="line"/>
      <point x="952" y="319" type="line" smooth="yes"/>
      <point x="952" y="246"/>
      <point x="952" y="184"/>
      <point x="954" y="98" type="curve"/>
      <point x="217" y="1098" type="line"/>
      <point x="170" y="1098" type="line"/>
    </contour>
  </outline>
</glyph>
<glyph name="uni027A" format="2">
  <advance width="768"/>
  <unicode hex="027A"/>
  <anchor x="385" y="0" name="bottom"/>
  <anchor x="385" y="1556" name="top"/>
  <outline>
    <contour>
      <point x="199" y="-16" type="curve" smooth="yes"/>
      <point x="373" y="-16"/>
      <point x="485" y="82"/>
      <point x="524" y="207" type="curve"/>
      <point x="528" y="207" type="line"/>
      <point x="532" y="0" type="line"/>
      <point x="582" y="0" type="line"/>
      <point x="582" y="1556" type="line"/>
      <point x="528" y="1556" type="line"/>
      <point x="528" y="473" type="line" smooth="yes"/>
      <point x="528" y="205"/>
      <point x="426" y="35"/>
      <point x="199" y="35" type="curve" smooth="yes"/>
      <point x="137" y="35"/>
      <point x="96" y="41"/>
      <point x="45" y="55" type="curve"/>
      <point x="33" y="6" type="line"/>
      <point x="82" y="-8"/>
      <point x="133" y="-16"/>
    </contour>
  </outline>
</glyph>
<glyph name="rfishhookreversed" format="2">
  <advance width="670"/>
  <unicode hex="027F"/>
  <anchor x="336" y="-492" name="bottom"/>
  <anchor x="336" y="1081" name="top"/>
  <outline>
    <contour>
      <point x="207" y="1102" type="curve" smooth="yes"/>
      <point x="117" y="1102"/>
      <point x="51" y="1081"/>
      <point x="25" y="1069" type="curve"/>
      <point x="35" y="1018" type="line"/>
      <point x="70" y="1036"/>
      <point x="131" y="1051"/>
      <point x="195" y="1051" type="curve" smooth="yes"/>
      <point x="377" y="1051"/>
      <point x="449" y="954"/>
      <point x="449" y="741" type="curve" smooth="yes"/>
      <point x="449" y="-492" type="line"/>
      <point x="502" y="-492" type="line"/>
      <point x="502" y="756" type="line" smooth="yes"/>
      <point x="502" y="973"/>
      <point x="414" y="1102"/>
    </contour>
  </outline>
</glyph>
<glyph name="eshcurl" format="2">
  <advance width="414"/>
  <unicode hex="0286"/>
  <anchor x="207" y="-492" name="bottom"/>
  <anchor x="207" y="1546" name="top"/>
  <outline>
    <contour>
      <point x="14" y="-492" type="curve" smooth="yes"/>
      <point x="154" y="-492"/>
      <point x="225" y="-401"/>
      <point x="225" y="-152" type="curve"/>
      <point x="383" y="-152" type="line"/>
      <point x="383" y="-100" type="line"/>
      <point x="225" y="-100" type="line"/>
      <point x="225" y="1247" type="line" smooth="yes"/>
      <point x="225" y="1427"/>
      <point x="307" y="1495"/>
      <point x="434" y="1495" type="curve" smooth="yes"/>
      <point x="489" y="1495"/>
      <point x="526" y="1487"/>
      <point x="555" y="1475" type="curve"/>
      <point x="555" y="1526" type="line"/>
      <point x="526" y="1538"/>
      <point x="485" y="1546"/>
      <point x="436" y="1546" type="curve" smooth="yes"/>
      <point x="268" y="1546"/>
      <point x="172" y="1450"/>
      <point x="172" y="1262" type="curve" smooth="yes"/>
      <point x="172" y="-100" type="line"/>
      <point x="63" y="-100" type="line" smooth="yes"/>
      <point x="-84" y="-100"/>
      <point x="-174" y="-174"/>
      <point x="-174" y="-299" type="curve" smooth="yes"/>
      <point x="-174" y="-420"/>
      <point x="-96" y="-492"/>
    </contour>
    <contour>
      <point x="14" y="-440" type="curve" smooth="yes"/>
      <point x="-68" y="-440"/>
      <point x="-119" y="-389"/>
      <point x="-119" y="-299" type="curve" smooth="yes"/>
      <point x="-119" y="-205"/>
      <point x="-63" y="-152"/>
      <point x="68" y="-152" type="curve" smooth="yes"/>
      <point x="172" y="-152" type="line"/>
      <point x="172" y="-197" type="line" smooth="yes"/>
      <point x="172" y="-381"/>
      <point x="111" y="-440"/>
    </contour>
  </outline>
</glyph>
<glyph name="uni0289" format="2">
  <advance width="1174"/>
  <unicode hex="0289"/>
  <anchor x="588" y="0" name="bottom"/>
  <anchor x="588" y="1081" name="top"/>
  <outline>
    <contour>
      <point x="20" y="539" type="line"/>
      <point x="1137" y="539" type="line"/>
      <point x="1137" y="590" type="line"/>
      <point x="20" y="590" type="line"/>
    </contour>
    <component base="u"/>
  </outline>
</glyph>
<glyph name="uni028A" format="2">
  <advance width="1114"/>
  <unicode hex="028A"/>
  <anchor x="557" y="0" name="bottom"/>
  <anchor x="557" y="1081" name="top"/>
  <outline>
    <contour>
      <point x="561" y="-27" type="curve" smooth="yes"/>
      <point x="842" y="-27"/>
      <point x="1036" y="180"/>
      <point x="1036" y="489" type="curve" smooth="yes"/>
      <point x="1036" y="766"/>
      <point x="907" y="922"/>
      <point x="743" y="1030" type="curve"/>
      <point x="1073" y="1030" type="line"/>
      <point x="1073" y="1081" type="line"/>
      <point x="659" y="1081" type="line"/>
      <point x="659" y="1034" type="line"/>
      <point x="850" y="913"/>
      <point x="981" y="772"/>
      <point x="981" y="489" type="curve" smooth="yes"/>
      <point x="981" y="211"/>
      <point x="811" y="25"/>
      <point x="561" y="25" type="curve" smooth="yes"/>
      <point x="303" y="25"/>
      <point x="137" y="203"/>
      <point x="137" y="489" type="curve" smooth="yes"/>
      <point x="137" y="743"/>
      <point x="233" y="901"/>
      <point x="461" y="1034" type="curve"/>
      <point x="461" y="1081" type="line"/>
      <point x="43" y="1081" type="line"/>
      <point x="43" y="1030" type="line"/>
      <point x="373" y="1030" type="line"/>
      <point x="180" y="909"/>
      <point x="82" y="735"/>
      <point x="82" y="489" type="curve" smooth="yes"/>
      <point x="82" y="168"/>
      <point x="266" y="-27"/>
    </contour>
  </outline>
</glyph>
<glyph name="ezhcurl" format="2">
  <advance width="895"/>
  <unicode hex="0293"/>
  <anchor x="449" y="-492" name="bottom"/>
  <anchor x="449" y="1081" name="top"/>
  <outline>
    <contour>
      <point x="309" y="-492" type="curve" smooth="yes"/>
      <point x="553" y="-492"/>
      <point x="690" y="-356"/>
      <point x="741" y="-285" type="curve"/>
      <point x="782" y="-332"/>
      <point x="825" y="-393"/>
      <point x="868" y="-459" type="curve"/>
      <point x="915" y="-428" type="line"/>
      <point x="870" y="-358"/>
      <point x="821" y="-299"/>
      <point x="774" y="-240" type="curve"/>
      <point x="797" y="-203"/>
      <point x="831" y="-125"/>
      <point x="831" y="-10" type="curve" smooth="yes"/>
      <point x="831" y="250"/>
      <point x="668" y="399"/>
      <point x="244" y="399" type="curve"/>
      <point x="801" y="1040" type="line"/>
      <point x="801" y="1081" type="line"/>
      <point x="68" y="1081" type="line"/>
      <point x="68" y="1030" type="line"/>
      <point x="717" y="1030" type="line"/>
      <point x="172" y="393" type="line"/>
      <point x="172" y="348" type="line"/>
      <point x="246" y="348" type="line" smooth="yes"/>
      <point x="606" y="348"/>
      <point x="770" y="248"/>
      <point x="776" y="-12" type="curve" smooth="yes"/>
      <point x="778" y="-100"/>
      <point x="754" y="-174"/>
      <point x="737" y="-201" type="curve"/>
      <point x="631" y="-84"/>
      <point x="477" y="-4"/>
      <point x="285" y="-4" type="curve" smooth="yes"/>
      <point x="66" y="-4"/>
      <point x="-31" y="-113"/>
      <point x="-31" y="-246" type="curve" smooth="yes"/>
      <point x="-31" y="-412"/>
      <point x="113" y="-492"/>
    </contour>
    <contour>
      <point x="311" y="-440" type="curve" smooth="yes"/>
      <point x="145" y="-440"/>
      <point x="25" y="-375"/>
      <point x="25" y="-246" type="curve" smooth="yes"/>
      <point x="25" y="-135"/>
      <point x="98" y="-55"/>
      <point x="285" y="-55" type="curve" smooth="yes"/>
      <point x="442" y="-55"/>
      <point x="580" y="-109"/>
      <point x="709" y="-246" type="curve"/>
      <point x="641" y="-342"/>
      <point x="516" y="-440"/>
    </contour>
  </outline>
</glyph>
<glyph name="uni029B" format="2">
  <advance width="1180"/>
  <unicode hex="029B"/>
  <anchor x="590" y="0" name="bottom"/>
  <anchor x="590" y="1573" name="top"/>
  <outline>
    <contour>
      <point x="1171" y="1573" type="curve" smooth="yes"/>
      <point x="1034" y="1573"/>
      <point x="956" y="1491"/>
      <point x="956" y="1323" type="curve" smooth="yes"/>
      <point x="956" y="1057" type="line"/>
      <point x="879" y="1087"/>
      <point x="791" y="1106"/>
      <point x="690" y="1106" type="curve" smooth="yes"/>
      <point x="326" y="1106"/>
      <point x="104" y="858"/>
      <point x="104" y="543" type="curve" smooth="yes"/>
      <point x="104" y="203"/>
      <point x="315" y="-16"/>
      <point x="664" y="-16" type="curve" smooth="yes"/>
      <point x="803" y="-16"/>
      <point x="913" y="12"/>
      <point x="1018" y="55" type="curve"/>
      <point x="1018" y="530" type="line"/>
      <point x="623" y="530" type="line"/>
      <point x="623" y="479" type="line"/>
      <point x="965" y="479" type="line"/>
      <point x="965" y="88" type="line"/>
      <point x="893" y="61"/>
      <point x="791" y="35"/>
      <point x="676" y="35" type="curve" smooth="yes"/>
      <point x="342" y="35"/>
      <point x="160" y="229"/>
      <point x="160" y="545" type="curve" smooth="yes"/>
      <point x="160" y="846"/>
      <point x="371" y="1055"/>
      <point x="684" y="1055" type="curve" smooth="yes"/>
      <point x="805" y="1055"/>
      <point x="903" y="1026"/>
      <point x="989" y="981" type="curve"/>
      <point x="1010" y="1034" type="line"/>
      <point x="1010" y="1317" type="line" smooth="yes"/>
      <point x="1010" y="1468"/>
      <point x="1071" y="1522"/>
      <point x="1169" y="1522" type="curve" smooth="yes"/>
      <point x="1214" y="1522"/>
      <point x="1247" y="1511"/>
      <point x="1278" y="1499" type="curve"/>
      <point x="1278" y="1554" type="line"/>
      <point x="1255" y="1563"/>
      <point x="1223" y="1573"/>
    </contour>
  </outline>
</glyph>
<glyph name="uni02A1" format="2">
  <advance width="813"/>
  <unicode hex="02A1"/>
  <anchor x="346" y="0" name="bottom"/>
  <anchor x="408" y="1563" name="top"/>
  <anchor x="731" y="1556" name="topright"/>
  <outline>
    <contour>
      <point x="367" y="1563" type="curve" smooth="yes"/>
      <point x="211" y="1563"/>
      <point x="111" y="1524"/>
      <point x="18" y="1477" type="curve"/>
      <point x="39" y="1430" type="line"/>
      <point x="117" y="1468"/>
      <point x="219" y="1511"/>
      <point x="365" y="1511" type="curve" smooth="yes"/>
      <point x="578" y="1511"/>
      <point x="709" y="1389"/>
      <point x="709" y="1159" type="curve" smooth="yes"/>
      <point x="709" y="870"/>
      <point x="512" y="774"/>
      <point x="315" y="694" type="curve"/>
      <point x="315" y="367" type="line"/>
      <point x="106" y="367" type="line"/>
      <point x="106" y="315" type="line"/>
      <point x="315" y="315" type="line"/>
      <point x="315" y="0" type="line"/>
      <point x="369" y="0" type="line"/>
      <point x="369" y="315" type="line"/>
      <point x="575" y="315" type="line"/>
      <point x="575" y="367" type="line"/>
      <point x="369" y="367" type="line"/>
      <point x="369" y="662" type="line"/>
      <point x="545" y="737"/>
      <point x="764" y="846"/>
      <point x="764" y="1163" type="curve" smooth="yes"/>
      <point x="764" y="1413"/>
      <point x="614" y="1563"/>
    </contour>
  </outline>
</glyph>
<glyph name="uni02A2" format="2">
  <advance width="813"/>
  <unicode hex="02A2"/>
  <anchor x="408" y="0" name="bottom"/>
  <anchor x="408" y="1563" name="top"/>
  <outline>
    <contour>
      <point x="446" y="1563" type="curve" smooth="yes"/>
      <point x="199" y="1563"/>
      <point x="49" y="1413"/>
      <point x="49" y="1163" type="curve" smooth="yes"/>
      <point x="49" y="846"/>
      <point x="268" y="737"/>
      <point x="444" y="662" type="curve"/>
      <point x="444" y="367" type="line"/>
      <point x="227" y="367" type="line"/>
      <point x="227" y="315" type="line"/>
      <point x="444" y="315" type="line"/>
      <point x="444" y="0" type="line"/>
      <point x="498" y="0" type="line"/>
      <point x="498" y="315" type="line"/>
      <point x="696" y="315" type="line"/>
      <point x="696" y="367" type="line"/>
      <point x="498" y="367" type="line"/>
      <point x="498" y="694" type="line"/>
      <point x="301" y="774"/>
      <point x="104" y="870"/>
      <point x="104" y="1159" type="curve" smooth="yes"/>
      <point x="104" y="1389"/>
      <point x="236" y="1511"/>
      <point x="449" y="1511" type="curve" smooth="yes"/>
      <point x="594" y="1511"/>
      <point x="696" y="1468"/>
      <point x="774" y="1430" type="curve"/>
      <point x="795" y="1477" type="line"/>
      <point x="702" y="1524"/>
      <point x="602" y="1563"/>
    </contour>
  </outline>
</glyph>
<glyph name="dzlig" format="2">
  <advance width="1847"/>
  <unicode hex="02A3"/>
  <anchor x="924" y="0" name="bottom"/>
  <anchor x="924" y="1556" name="top"/>
  <outline>
    <contour>
      <point x="580" y="-20" type="curve" smooth="yes"/>
      <point x="795" y="-20"/>
      <point x="909" y="94"/>
      <point x="958" y="231" type="curve"/>
      <point x="963" y="231" type="line"/>
      <point x="967" y="0" type="line"/>
      <point x="1757" y="0" type="line"/>
      <point x="1757" y="51" type="line"/>
      <point x="1071" y="51" type="line"/>
      <point x="1763" y="1051" type="line"/>
      <point x="1763" y="1081" type="line"/>
      <point x="1012" y="1081" type="line"/>
      <point x="1012" y="1556" type="line"/>
      <point x="958" y="1556" type="line"/>
      <point x="958" y="1112" type="line" smooth="yes"/>
      <point x="958" y="1026"/>
      <point x="958" y="940"/>
      <point x="963" y="848" type="curve"/>
      <point x="958" y="848" type="line"/>
      <point x="913" y="991"/>
      <point x="793" y="1102"/>
      <point x="596" y="1102" type="curve" smooth="yes"/>
      <point x="289" y="1102"/>
      <point x="121" y="895"/>
      <point x="121" y="520" type="curve" smooth="yes"/>
      <point x="121" y="170"/>
      <point x="268" y="-20"/>
    </contour>
    <contour>
      <point x="580" y="31" type="curve" smooth="yes"/>
      <point x="305" y="31"/>
      <point x="176" y="193"/>
      <point x="176" y="520" type="curve" smooth="yes"/>
      <point x="176" y="874"/>
      <point x="326" y="1051"/>
      <point x="596" y="1051" type="curve" smooth="yes"/>
      <point x="840" y="1051"/>
      <point x="958" y="872"/>
      <point x="958" y="545" type="curve" smooth="yes"/>
      <point x="958" y="539" type="line" smooth="yes"/>
      <point x="958" y="219"/>
      <point x="852" y="31"/>
    </contour>
    <contour>
      <point x="1012" y="55" type="line"/>
      <point x="1012" y="1030" type="line"/>
      <point x="1686" y="1030" type="line"/>
    </contour>
  </outline>
</glyph>
<glyph name="uni02A7" format="2">
  <advance width="1067"/>
  <unicode hex="02A7"/>
  <anchor x="535" y="-492" name="bottom"/>
  <anchor x="535" y="1563" name="top"/>
  <outline>
    <contour>
      <point x="672" y="-197" type="curve" smooth="yes"/>
      <point x="672" y="1272" type="line" smooth="yes"/>
      <point x="672" y="1436"/>
      <point x="741" y="1511"/>
      <point x="870" y="1511" type="curve" smooth="yes"/>
      <point x="905" y="1511"/>
      <point x="932" y="1507"/>
      <point x="952" y="1503" type="curve"/>
      <point x="952" y="1554" type="line"/>
      <point x="934" y="1559"/>
      <point x="903" y="1563"/>
      <point x="872" y="1563" type="curve" smooth="yes"/>
      <point x="709" y="1563"/>
      <point x="618" y="1456"/>
      <point x="618" y="1278" type="curve" smooth="yes"/>
      <point x="618" y="1081" type="line"/>
      <point x="240" y="1081" type="line"/>
      <point x="240" y="1350" type="line"/>
      <point x="197" y="1350" type="line"/>
      <point x="184" y="1081" type="line"/>
      <point x="20" y="1075" type="line"/>
      <point x="20" y="1030" type="line"/>
      <point x="186" y="1030" type="line"/>
      <point x="186" y="287" type="line" smooth="yes"/>
      <point x="186" y="96"/>
      <point x="244" y="-20"/>
      <point x="455" y="-20" type="curve" smooth="yes"/>
      <point x="522" y="-20"/>
      <point x="567" y="-10"/>
      <point x="618" y="10" type="curve"/>
      <point x="618" y="-190" type="line" smooth="yes"/>
      <point x="618" y="-356"/>
      <point x="559" y="-440"/>
      <point x="430" y="-440" type="curve" smooth="yes"/>
      <point x="379" y="-440"/>
      <point x="342" y="-432"/>
      <point x="307" y="-420" type="curve"/>
      <point x="307" y="-473" type="line"/>
      <point x="338" y="-485"/>
      <point x="375" y="-492"/>
      <point x="430" y="-492" type="curve" smooth="yes"/>
      <point x="594" y="-492"/>
      <point x="672" y="-381"/>
    </contour>
    <contour>
      <point x="455" y="31" type="curve" smooth="yes"/>
      <point x="283" y="31"/>
      <point x="240" y="125"/>
      <point x="240" y="293" type="curve" smooth="yes"/>
      <point x="240" y="1030" type="line"/>
      <point x="618" y="1030" type="line"/>
      <point x="618" y="59" type="line"/>
      <point x="567" y="41"/>
      <point x="518" y="31"/>
    </contour>
  </outline>
</glyph>
<glyph name="tcligcurl" format="2">
  <advance width="1622"/>
  <unicode hex="02A8"/>
  <anchor x="811" y="0" name="bottom"/>
  <anchor x="811" y="1350" name="top"/>
  <outline>
    <contour>
      <point x="455" y="-20" type="curve" smooth="yes"/>
      <point x="623" y="-20"/>
      <point x="741" y="66"/>
      <point x="834" y="150" type="curve"/>
      <point x="920" y="39"/>
      <point x="1051" y="-20"/>
      <point x="1219" y="-20" type="curve" smooth="yes"/>
      <point x="1427" y="-20"/>
      <point x="1532" y="76"/>
      <point x="1532" y="205" type="curve" smooth="yes"/>
      <point x="1532" y="328"/>
      <point x="1427" y="412"/>
      <point x="1266" y="412" type="curve" smooth="yes"/>
      <point x="1085" y="412"/>
      <point x="946" y="326"/>
      <point x="846" y="229" type="curve"/>
      <point x="807" y="297"/>
      <point x="776" y="399"/>
      <point x="776" y="535" type="curve" smooth="yes"/>
      <point x="776" y="838"/>
      <point x="958" y="1051"/>
      <point x="1253" y="1051" type="curve" smooth="yes"/>
      <point x="1331" y="1051"/>
      <point x="1413" y="1038"/>
      <point x="1495" y="1001" type="curve"/>
      <point x="1505" y="1053" type="line"/>
      <point x="1430" y="1085"/>
      <point x="1352" y="1102"/>
      <point x="1253" y="1102" type="curve" smooth="yes"/>
      <point x="922" y="1102"/>
      <point x="721" y="864"/>
      <point x="721" y="535" type="curve" smooth="yes"/>
      <point x="721" y="395"/>
      <point x="750" y="281"/>
      <point x="805" y="190" type="curve"/>
      <point x="705" y="98"/>
      <point x="598" y="31"/>
      <point x="455" y="31" type="curve" smooth="yes"/>
      <point x="303" y="31"/>
      <point x="240" y="115"/>
      <point x="240" y="293" type="curve" smooth="yes"/>
      <point x="240" y="1030" type="line"/>
      <point x="592" y="1030" type="line"/>
      <point x="592" y="1081" type="line"/>
      <point x="240" y="1081" type="line"/>
      <point x="240" y="1350" type="line"/>
      <point x="197" y="1350" type="line"/>
      <point x="184" y="1081" type="line"/>
      <point x="20" y="1075" type="line"/>
      <point x="20" y="1030" type="line"/>
      <point x="186" y="1030" type="line"/>
      <point x="186" y="287" type="line" smooth="yes"/>
      <point x="186" y="96"/>
      <point x="256" y="-20"/>
    </contour>
    <contour>
      <point x="1219" y="31" type="curve" smooth="yes"/>
      <point x="1061" y="31"/>
      <point x="952" y="82"/>
      <point x="872" y="186" type="curve"/>
      <point x="969" y="283"/>
      <point x="1106" y="360"/>
      <point x="1262" y="360" type="curve" smooth="yes"/>
      <point x="1399" y="360"/>
      <point x="1477" y="297"/>
      <point x="1477" y="201" type="curve" smooth="yes"/>
      <point x="1477" y="111"/>
      <point x="1395" y="31"/>
    </contour>
  </outline>
</glyph>
<glyph name="uni02AE" format="2">
  <advance width="1174"/>
  <unicode hex="02AE"/>
  <anchor x="588" y="-475" name="bottom"/>
  <anchor x="588" y="1081" name="top"/>
  <outline>
    <contour>
      <point x="-4" y="1118" type="curve" smooth="yes"/>
      <point x="-53" y="1118"/>
      <point x="-80" y="1112"/>
      <point x="-104" y="1106" type="curve"/>
      <point x="-104" y="1055" type="line"/>
      <point x="-82" y="1061"/>
      <point x="-53" y="1067"/>
      <point x="-8" y="1067" type="curve" smooth="yes"/>
      <point x="106" y="1067"/>
      <point x="172" y="995"/>
      <point x="172" y="834" type="curve" smooth="yes"/>
      <point x="172" y="373" type="line" smooth="yes"/>
      <point x="172" y="104"/>
      <point x="307" y="-20"/>
      <point x="541" y="-20" type="curve" smooth="yes"/>
      <point x="770" y="-20"/>
      <point x="893" y="98"/>
      <point x="936" y="227" type="curve"/>
      <point x="940" y="227" type="line"/>
      <point x="938" y="168"/>
      <point x="936" y="127"/>
      <point x="936" y="66" type="curve" smooth="yes"/>
      <point x="936" y="-475" type="line"/>
      <point x="989" y="-475" type="line"/>
      <point x="989" y="1081" type="line"/>
      <point x="936" y="1081" type="line"/>
      <point x="936" y="463" type="line" smooth="yes"/>
      <point x="936" y="168"/>
      <point x="776" y="31"/>
      <point x="541" y="31" type="curve" smooth="yes"/>
      <point x="342" y="31"/>
      <point x="225" y="135"/>
      <point x="225" y="375" type="curve" smooth="yes"/>
      <point x="225" y="856" type="line" smooth="yes"/>
      <point x="225" y="1022"/>
      <point x="143" y="1118"/>
    </contour>
  </outline>
</glyph>
<glyph name="uni02C0" format="2">
  <advance width="592"/>
  <unicode hex="02C0"/>
  <outline>
    <contour>
      <point x="217" y="950" type="line"/>
      <point x="264" y="950" type="line"/>
      <point x="264" y="1069" type="line"/>
      <point x="453" y="1102"/>
      <point x="549" y="1194"/>
      <point x="549" y="1327" type="curve" smooth="yes"/>
      <point x="549" y="1466"/>
      <point x="457" y="1569"/>
      <point x="268" y="1569" type="curve" smooth="yes"/>
      <point x="166" y="1569"/>
      <point x="72" y="1540"/>
      <point x="10" y="1501" type="curve"/>
      <point x="33" y="1454" type="line"/>
      <point x="88" y="1493"/>
      <point x="168" y="1520"/>
      <point x="264" y="1520" type="curve" smooth="yes"/>
      <point x="428" y="1520"/>
      <point x="496" y="1430"/>
      <point x="496" y="1329" type="curve" smooth="yes"/>
      <point x="496" y="1210"/>
      <point x="395" y="1128"/>
      <point x="217" y="1110" type="curve"/>
    </contour>
  </outline>
</glyph>
<glyph name="circumflex" format="2">
  <advance width="680"/>
  <unicode hex="02C6"/>
  <outline>
    <contour>
      <point x="365" y="1563" type="curve"/>
      <point x="319" y="1563" type="line"/>
      <point x="270" y="1479"/>
      <point x="158" y="1337"/>
      <point x="82" y="1253" type="curve"/>
      <point x="82" y="1241" type="line"/>
      <point x="125" y="1241" type="line"/>
      <point x="201" y="1317"/>
      <point x="285" y="1419"/>
      <point x="342" y="1497" type="curve"/>
      <point x="399" y="1419"/>
      <point x="479" y="1317"/>
      <point x="555" y="1241" type="curve"/>
      <point x="598" y="1241" type="line"/>
      <point x="598" y="1253" type="line"/>
      <point x="522" y="1337"/>
      <point x="414" y="1479"/>
    </contour>
  </outline>
</glyph>
<glyph name="caron" format="2">
  <advance width="680"/>
  <unicode hex="02C7"/>
  <outline>
    <contour>
      <point x="315" y="1241" type="curve"/>
      <point x="360" y="1241" type="line"/>
      <point x="410" y="1325"/>
      <point x="522" y="1466"/>
      <point x="598" y="1550" type="curve"/>
      <point x="598" y="1563" type="line"/>
      <point x="555" y="1563" type="line"/>
      <point x="479" y="1487"/>
      <point x="395" y="1384"/>
      <point x="338" y="1307" type="curve"/>
      <point x="281" y="1384"/>
      <point x="201" y="1487"/>
      <point x="125" y="1563" type="curve"/>
      <point x="82" y="1563" type="line"/>
      <point x="82" y="1550" type="line"/>
      <point x="158" y="1466"/>
      <point x="266" y="1325"/>
    </contour>
  </outline>
</glyph>
<glyph name="ogonek" format="2">
  <advance width="434"/>
  <unicode hex="02DB"/>
  <outline>
    <contour>
      <point x="135" y="-268" type="curve" smooth="yes"/>
      <point x="135" y="-164"/>
      <point x="229" y="-74"/>
      <point x="324" y="0" type="curve"/>
      <point x="287" y="23" type="line"/>
      <point x="143" y="-84"/>
      <point x="82" y="-178"/>
      <point x="82" y="-276" type="curve" smooth="yes"/>
      <point x="82" y="-389"/>
      <point x="156" y="-444"/>
      <point x="250" y="-444" type="curve" smooth="yes"/>
      <point x="293" y="-444"/>
      <point x="330" y="-436"/>
      <point x="352" y="-428" type="curve"/>
      <point x="352" y="-379" type="line"/>
      <point x="330" y="-387"/>
      <point x="293" y="-393"/>
      <point x="254" y="-393" type="curve" smooth="yes"/>
      <point x="174" y="-393"/>
      <point x="135" y="-348"/>
    </contour>
  </outline>
</glyph>
<glyph name="uni02EF" format="2">
  <advance width="717"/>
  <unicode hex="02EF"/>
  <outline>
    <contour>
      <point x="338" y="-403" type="line"/>
      <point x="377" y="-403" type="line"/>
      <point x="635" y="-86" type="line"/>
      <point x="578" y="-86" type="line"/>
      <point x="358" y="-360" type="line"/>
      <point x="141" y="-86" type="line"/>
      <point x="82" y="-86" type="line"/>
    </contour>
  </outline>
</glyph>
<glyph name="uni02F0" format="2">
  <advance width="717"/>
  <unicode hex="02F0"/>
  <outline>
    <contour>
      <point x="82" y="-403" type="line"/>
      <point x="139" y="-403" type="line"/>
      <point x="358" y="-127" type="line"/>
      <point x="575" y="-403" type="line"/>
      <point x="635" y="-403" type="line"/>
      <point x="379" y="-84" type="line"/>
      <point x="340" y="-84" type="line"/>
    </contour>
  </outline>
</glyph>
<glyph name="breveinvertedcomb" format="2">
  <unicode hex="0311"/>
  <anchor x="4" y="1081" name="_top"/>
  <anchor x="4" y="1470" name="top"/>
  <outline>
    <contour>
      <point x="4" y="1470" type="curve" smooth="yes"/>
      <point x="-143" y="1470"/>
      <point x="-229" y="1391"/>
      <point x="-248" y="1241" type="curve"/>
      <point x="-197" y="1241" type="line"/>
      <point x="-184" y="1350"/>
      <point x="-129" y="1421"/>
      <point x="4" y="1421" type="curve" smooth="yes"/>
      <point x="129" y="1421"/>
      <point x="193" y="1350"/>
      <point x="203" y="1241" type="curve"/>
      <point x="254" y="1241" type="line"/>
      <point x="242" y="1391"/>
      <point x="152" y="1470"/>
    </contour>
  </outline>
</glyph>
<glyph name="leftangleabovecomb" format="2">
  <unicode hex="031A"/>
  <anchor x="287" y="1372" name="_topright"/>
  <outline>
    <contour>
      <point x="-125" y="1905" type="line"/>
      <point x="-125" y="1841" type="line"/>
      <point x="219" y="1841" type="line"/>
      <point x="219" y="1509" type="line"/>
      <point x="289" y="1509" type="line"/>
      <point x="289" y="1905" type="line"/>
    </contour>
  </outline>
</glyph>
<glyph name="ringhalfrightbelowcomb" format="2">
  <unicode hex="0339"/>
  <anchor x="-4" y="0" name="_bottom"/>
  <anchor x="-4" y="-483" name="bottom"/>
  <outline>
    <contour>
      <point x="-115" y="-51" type="curve"/>
      <point x="-115" y="-90" type="line"/>
      <point x="-18" y="-90"/>
      <point x="66" y="-154"/>
      <point x="66" y="-266" type="curve" smooth="yes"/>
      <point x="66" y="-377"/>
      <point x="6" y="-440"/>
      <point x="-115" y="-440" type="curve"/>
      <point x="-115" y="-483" type="line"/>
      <point x="18" y="-483"/>
      <point x="109" y="-403"/>
      <point x="109" y="-266" type="curve" smooth="yes"/>
      <point x="109" y="-131"/>
      <point x="18" y="-51"/>
    </contour>
  </outline>
</glyph>
<glyph name="seagullbelowcomb" format="2">
  <unicode hex="033C"/>
  <anchor x="2" y="0" name="_bottom"/>
  <anchor x="2" y="-334" name="bottom"/>
  <outline>
    <contour>
      <point x="-338" y="-334" type="curve"/>
      <point x="-276" y="-334" type="line"/>
      <point x="-276" y="-242"/>
      <point x="-225" y="-199"/>
      <point x="-156" y="-199" type="curve" smooth="yes"/>
      <point x="-76" y="-199"/>
      <point x="-31" y="-242"/>
      <point x="-31" y="-334" type="curve"/>
      <point x="39" y="-334" type="line"/>
      <point x="39" y="-242"/>
      <point x="88" y="-199"/>
      <point x="160" y="-199" type="curve" smooth="yes"/>
      <point x="236" y="-199"/>
      <point x="279" y="-242"/>
      <point x="279" y="-334" type="curve"/>
      <point x="340" y="-334" type="line"/>
      <point x="340" y="-195"/>
      <point x="260" y="-125"/>
      <point x="154" y="-125" type="curve" smooth="yes"/>
      <point x="80" y="-125"/>
      <point x="25" y="-172"/>
      <point x="2" y="-225" type="curve"/>
      <point x="-23" y="-172"/>
      <point x="-76" y="-125"/>
      <point x="-158" y="-125" type="curve" smooth="yes"/>
      <point x="-256" y="-125"/>
      <point x="-338" y="-193"/>
    </contour>
  </outline>
</glyph>
<glyph name="tildeverticalcomb" format="2">
  <unicode hex="033E"/>
  <anchor x="0" y="1081" name="_top"/>
  <anchor x="0" y="1774" name="top"/>
  <outline>
    <contour>
      <point x="-113" y="1599" type="curve" smooth="yes"/>
      <point x="-113" y="1477"/>
      <point x="66" y="1452"/>
      <point x="66" y="1352" type="curve" smooth="yes"/>
      <point x="66" y="1286"/>
      <point x="27" y="1245"/>
      <point x="-111" y="1225" type="curve"/>
      <point x="-111" y="1180" type="line"/>
      <point x="27" y="1200"/>
      <point x="113" y="1253"/>
      <point x="113" y="1362" type="curve" smooth="yes"/>
      <point x="113" y="1485"/>
      <point x="-66" y="1513"/>
      <point x="-66" y="1604" type="curve" smooth="yes"/>
      <point x="-66" y="1677"/>
      <point x="-18" y="1700"/>
      <point x="111" y="1716" type="curve"/>
      <point x="111" y="1774" type="line"/>
      <point x="-41" y="1753"/>
      <point x="-113" y="1702"/>
    </contour>
  </outline>
</glyph>
<glyph name="leftanglebelowcomb" format="2">
  <unicode hex="0349"/>
  <anchor x="0" y="0" name="_bottom"/>
  <anchor x="0" y="-471" name="bottom"/>
  <outline>
    <contour>
      <point x="-158" y="-150" type="line"/>
      <point x="-158" y="-217" type="line"/>
      <point x="98" y="-217" type="line"/>
      <point x="98" y="-471" type="line"/>
      <point x="158" y="-471" type="line"/>
      <point x="158" y="-150" type="line"/>
    </contour>
  </outline>
</glyph>
<glyph name="nottildeabovecomb" format="2">
  <unicode hex="034A"/>
  <anchor x="-2" y="1081" name="_top"/>
  <anchor x="-2" y="1585" name="top"/>
  <outline>
    <contour>
      <point x="145" y="1264" type="curve" smooth="yes"/>
      <point x="233" y="1264"/>
      <point x="309" y="1333"/>
      <point x="332" y="1485" type="curve"/>
      <point x="272" y="1485" type="line"/>
      <point x="248" y="1356"/>
      <point x="201" y="1309"/>
      <point x="139" y="1309" type="curve" smooth="yes"/>
      <point x="104" y="1309"/>
      <point x="72" y="1335"/>
      <point x="35" y="1368" type="curve"/>
      <point x="143" y="1552" type="line"/>
      <point x="84" y="1585" type="line"/>
      <point x="-12" y="1417" type="line"/>
      <point x="-53" y="1456"/>
      <point x="-96" y="1487"/>
      <point x="-150" y="1487" type="curve" smooth="yes"/>
      <point x="-252" y="1487"/>
      <point x="-322" y="1403"/>
      <point x="-334" y="1264" type="curve"/>
      <point x="-279" y="1264" type="line"/>
      <point x="-252" y="1403"/>
      <point x="-207" y="1442"/>
      <point x="-150" y="1442" type="curve" smooth="yes"/>
      <point x="-109" y="1442"/>
      <point x="-70" y="1415"/>
      <point x="-33" y="1382" type="curve"/>
      <point x="-137" y="1198" type="line"/>
      <point x="-82" y="1165" type="line"/>
      <point x="14" y="1331" type="line"/>
      <point x="51" y="1294"/>
      <point x="92" y="1264"/>
    </contour>
  </outline>
</glyph>
<glyph name="homotheticabovecomb" format="2">
  <unicode hex="034B"/>
  <anchor x="-4" y="1081" name="_top"/>
  <anchor x="-4" y="1841" name="top"/>
  <outline>
    <contour>
      <point x="362" y="1647" type="curve"/>
      <point x="313" y="1647" type="line"/>
      <point x="305" y="1528"/>
      <point x="272" y="1464"/>
      <point x="174" y="1464" type="curve" smooth="yes"/>
      <point x="35" y="1464"/>
      <point x="-8" y="1642"/>
      <point x="-174" y="1642" type="curve" smooth="yes"/>
      <point x="-303" y="1642"/>
      <point x="-358" y="1554"/>
      <point x="-369" y="1411" type="curve"/>
      <point x="-319" y="1411" type="line"/>
      <point x="-313" y="1522"/>
      <point x="-274" y="1593"/>
      <point x="-174" y="1593" type="curve" smooth="yes"/>
      <point x="-43" y="1593"/>
      <point x="8" y="1415"/>
      <point x="174" y="1415" type="curve" smooth="yes"/>
      <point x="303" y="1415"/>
      <point x="356" y="1505"/>
    </contour>
    <contour>
      <point x="0" y="1350" type="curve" smooth="yes"/>
      <point x="-37" y="1350"/>
      <point x="-47" y="1319"/>
      <point x="-47" y="1286" type="curve" smooth="yes"/>
      <point x="-47" y="1251"/>
      <point x="-37" y="1223"/>
      <point x="0" y="1223" type="curve" smooth="yes"/>
      <point x="45" y="1223"/>
      <point x="51" y="1251"/>
      <point x="51" y="1286" type="curve" smooth="yes"/>
      <point x="51" y="1319"/>
      <point x="45" y="1350"/>
    </contour>
    <contour>
      <point x="-2" y="1841" type="curve" smooth="yes"/>
      <point x="-39" y="1841"/>
      <point x="-49" y="1810"/>
      <point x="-49" y="1778" type="curve" smooth="yes"/>
      <point x="-49" y="1743"/>
      <point x="-39" y="1714"/>
      <point x="-2" y="1714" type="curve" smooth="yes"/>
      <point x="43" y="1714"/>
      <point x="49" y="1743"/>
      <point x="49" y="1778" type="curve" smooth="yes"/>
      <point x="49" y="1810"/>
      <point x="43" y="1841"/>
    </contour>
  </outline>
</glyph>
<glyph name="arrowheadrightabovecomb" format="2">
  <unicode hex="0350"/>
  <anchor x="4" y="1081" name="_top"/>
  <anchor x="4" y="1642" name="top"/>
  <outline>
    <contour>
      <point x="-145" y="1642" type="curve"/>
      <point x="-158" y="1642" type="line"/>
      <point x="-158" y="1599" type="line"/>
      <point x="-94" y="1540"/>
      <point x="6" y="1468"/>
      <point x="82" y="1421" type="curve"/>
      <point x="10" y="1378"/>
      <point x="-90" y="1307"/>
      <point x="-158" y="1245" type="curve"/>
      <point x="-158" y="1204" type="line"/>
      <point x="-145" y="1204" type="line"/>
      <point x="-61" y="1274"/>
      <point x="82" y="1360"/>
      <point x="164" y="1405" type="curve"/>
      <point x="164" y="1440" type="line"/>
      <point x="82" y="1483"/>
      <point x="-66" y="1579"/>
    </contour>
  </outline>
</glyph>
<glyph name="xbelowcomb" format="2">
  <unicode hex="0353"/>
  <anchor x="0" y="0" name="_bottom"/>
  <anchor x="0" y="-369" name="bottom"/>
  <outline>
    <contour>
      <point x="-119" y="-166" type="line"/>
      <point x="-33" y="-252" type="line"/>
      <point x="-121" y="-338" type="line"/>
      <point x="-90" y="-369" type="line"/>
      <point x="-2" y="-283" type="line"/>
      <point x="82" y="-369" type="line"/>
      <point x="119" y="-332" type="line"/>
      <point x="33" y="-246" type="line"/>
      <point x="121" y="-160" type="line"/>
      <point x="90" y="-129" type="line"/>
      <point x="2" y="-215" type="line"/>
      <point x="-82" y="-129" type="line"/>
    </contour>
  </outline>
</glyph>
<glyph name="arrowheadrightbelowcomb" format="2">
  <unicode hex="0355"/>
  <anchor x="4" y="0" name="_bottom"/>
  <anchor x="4" y="-504" name="bottom"/>
  <outline>
    <contour>
      <point x="-145" y="-66" type="curve"/>
      <point x="-158" y="-66" type="line"/>
      <point x="-158" y="-109" type="line"/>
      <point x="-94" y="-168"/>
      <point x="6" y="-240"/>
      <point x="82" y="-287" type="curve"/>
      <point x="10" y="-330"/>
      <point x="-90" y="-401"/>
      <point x="-158" y="-463" type="curve"/>
      <point x="-158" y="-504" type="line"/>
      <point x="-145" y="-504" type="line"/>
      <point x="-61" y="-434"/>
      <point x="82" y="-348"/>
      <point x="164" y="-303" type="curve"/>
      <point x="164" y="-268" type="line"/>
      <point x="82" y="-225"/>
      <point x="-66" y="-129"/>
    </contour>
  </outline>
</glyph>
<glyph name="doubleringbelowcomb" format="2">
  <unicode hex="035A"/>
  <anchor x="0" y="0" name="_bottom"/>
  <anchor x="0" y="-487" name="bottom"/>
  <outline>
    <contour>
      <point x="-178" y="-70" type="curve" smooth="yes"/>
      <point x="-303" y="-70"/>
      <point x="-391" y="-156"/>
      <point x="-391" y="-279" type="curve" smooth="yes"/>
      <point x="-391" y="-406"/>
      <point x="-307" y="-487"/>
      <point x="-178" y="-487" type="curve" smooth="yes"/>
      <point x="-90" y="-487"/>
      <point x="-31" y="-457"/>
      <point x="0" y="-397" type="curve"/>
      <point x="31" y="-457"/>
      <point x="90" y="-487"/>
      <point x="176" y="-487" type="curve" smooth="yes"/>
      <point x="307" y="-487"/>
      <point x="391" y="-406"/>
      <point x="391" y="-279" type="curve" smooth="yes"/>
      <point x="391" y="-156"/>
      <point x="303" y="-70"/>
      <point x="176" y="-70" type="curve" smooth="yes"/>
      <point x="94" y="-70"/>
      <point x="33" y="-104"/>
      <point x="0" y="-162" type="curve"/>
      <point x="-33" y="-104"/>
      <point x="-94" y="-70"/>
    </contour>
    <contour>
      <point x="27" y="-279" type="curve" smooth="yes"/>
      <point x="27" y="-186"/>
      <point x="86" y="-123"/>
      <point x="178" y="-123" type="curve" smooth="yes"/>
      <point x="266" y="-123"/>
      <point x="328" y="-186"/>
      <point x="328" y="-279" type="curve" smooth="yes"/>
      <point x="328" y="-375"/>
      <point x="268" y="-434"/>
      <point x="178" y="-434" type="curve" smooth="yes"/>
      <point x="86" y="-434"/>
      <point x="27" y="-375"/>
    </contour>
    <contour>
      <point x="-25" y="-279" type="curve" smooth="yes"/>
      <point x="-25" y="-375"/>
      <point x="-82" y="-434"/>
      <point x="-176" y="-434" type="curve" smooth="yes"/>
      <point x="-262" y="-434"/>
      <point x="-328" y="-375"/>
      <point x="-328" y="-279" type="curve" smooth="yes"/>
      <point x="-328" y="-186"/>
      <point x="-268" y="-123"/>
      <point x="-176" y="-123" type="curve" smooth="yes"/>
      <point x="-88" y="-123"/>
      <point x="-25" y="-186"/>
    </contour>
  </outline>
</glyph>
<glyph name="arrowdoublerightbelowcomb" format="2">
  <unicode hex="0362"/>
  <anchor x="43" y="0" name="_bottom"/>
  <anchor x="43" y="-379" name="bottom"/>
  <outline>
    <contour>
      <point x="-709" y="-236" type="line"/>
      <point x="-709" y="-285" type="line"/>
      <point x="635" y="-285" type="line"/>
      <point x="635" y="-379" type="line"/>
      <point x="793" y="-264" type="line"/>
      <point x="635" y="-143" type="line"/>
      <point x="635" y="-236" type="line"/>
    </contour>
  </outline>
</glyph>
<glyph name="heta" format="2">
  <advance width="686"/>
  <unicode hex="0371"/>
  <anchor x="344" y="0" name="bottom"/>
  <anchor x="344" y="1081" name="top"/>
  <outline>
    <contour>
      <point x="240" y="1079" type="line"/>
      <point x="186" y="1079" type="line"/>
      <point x="186" y="0" type="line"/>
      <point x="240" y="0" type="line"/>
      <point x="240" y="539" type="line"/>
      <point x="629" y="539" type="line"/>
      <point x="629" y="590" type="line"/>
      <point x="240" y="590" type="line"/>
    </contour>
  </outline>
</glyph>
<glyph name="archaicsampi" format="2">
  <advance width="971"/>
  <unicode hex="0373"/>
  <anchor x="485" y="0" name="bottom"/>
  <anchor x="485" y="1569" name="top"/>
  <outline>
    <contour>
      <point x="512" y="0" type="line"/>
      <point x="512" y="1518" type="line"/>
      <point x="893" y="1518" type="line"/>
      <point x="893" y="1569" type="line"/>
      <point x="78" y="1569" type="line"/>
      <point x="78" y="1518" type="line"/>
      <point x="459" y="1518" type="line"/>
      <point x="459" y="0" type="line"/>
    </contour>
    <contour>
      <point x="866" y="1569" type="line"/>
      <point x="866" y="1153" type="line"/>
      <point x="920" y="1153" type="line"/>
      <point x="920" y="1569" type="line"/>
    </contour>
    <contour>
      <point x="51" y="1569" type="line"/>
      <point x="51" y="1153" type="line"/>
      <point x="104" y="1153" type="line"/>
      <point x="104" y="1569" type="line"/>
    </contour>
  </outline>
</glyph>
<glyph name="Delta" format="2">
  <advance width="1157"/>
  <unicode hex="0394"/>
  <anchor x="580" y="0" name="bottom"/>
  <anchor x="580" y="1462" name="top"/>
  <outline>
    <contour>
      <point x="604" y="1462" type="line"/>
      <point x="553" y="1462" type="line"/>
      <point x="8" y="27" type="line"/>
      <point x="8" y="0" type="line"/>
      <point x="1149" y="0" type="line"/>
      <point x="1149" y="25" type="line"/>
    </contour>
    <contour>
      <point x="1079" y="51" type="line"/>
      <point x="76" y="51" type="line"/>
      <point x="498" y="1174" type="line" smooth="yes"/>
      <point x="532" y="1266"/>
      <point x="559" y="1348"/>
      <point x="578" y="1397" type="curve"/>
      <point x="594" y="1350"/>
      <point x="629" y="1251"/>
      <point x="664" y="1161" type="curve" smooth="yes"/>
    </contour>
  </outline>
</glyph>
<glyph name="Lambda" format="2">
  <advance width="1153"/>
  <unicode hex="039B"/>
  <anchor x="578" y="0" name="bottom"/>
  <anchor x="578" y="1462" name="top"/>
  <outline>
    <contour>
      <point x="602" y="1462" type="line"/>
      <point x="551" y="1462" type="line"/>
      <point x="0" y="0" type="line"/>
      <point x="57" y="0" type="line"/>
      <point x="498" y="1169" type="line" smooth="yes"/>
      <point x="532" y="1262"/>
      <point x="555" y="1325"/>
      <point x="575" y="1386" type="curve"/>
      <point x="596" y="1325"/>
      <point x="625" y="1247"/>
      <point x="653" y="1169" type="curve" smooth="yes"/>
      <point x="1096" y="0" type="line"/>
      <point x="1153" y="0" type="line"/>
    </contour>
  </outline>
</glyph>
<glyph name="alpha" format="2">
  <advance width="1178"/>
  <unicode hex="03B1"/>
  <anchor x="590" y="0" name="bottom"/>
  <anchor x="590" y="1081" name="top"/>
  <outline>
    <contour>
      <point x="571" y="31" type="curve" smooth="yes"/>
      <point x="307" y="31"/>
      <point x="176" y="209"/>
      <point x="176" y="537" type="curve" smooth="yes"/>
      <point x="176" y="864"/>
      <point x="326" y="1051"/>
      <point x="586" y="1051" type="curve" smooth="yes"/>
      <point x="813" y="1051"/>
      <point x="942" y="918"/>
      <point x="942" y="575" type="curve" smooth="yes"/>
      <point x="942" y="528" type="line" smooth="yes"/>
      <point x="942" y="227"/>
      <point x="831" y="31"/>
    </contour>
    <contour>
      <point x="571" y="-20" type="curve" smooth="yes"/>
      <point x="776" y="-20"/>
      <point x="889" y="92"/>
      <point x="938" y="227" type="curve"/>
      <point x="942" y="227" type="line"/>
      <point x="942" y="51"/>
      <point x="979" y="-20"/>
      <point x="1098" y="-20" type="curve" smooth="yes"/>
      <point x="1126" y="-20"/>
      <point x="1157" y="-14"/>
      <point x="1176" y="-6" type="curve"/>
      <point x="1176" y="43" type="line"/>
      <point x="1153" y="35"/>
      <point x="1126" y="31"/>
      <point x="1100" y="31" type="curve" smooth="yes"/>
      <point x="1028" y="31"/>
      <point x="995" y="80"/>
      <point x="995" y="244" type="curve" smooth="yes"/>
      <point x="995" y="713" type="line" smooth="yes"/>
      <point x="995" y="899"/>
      <point x="1008" y="991"/>
      <point x="1030" y="1081" type="curve"/>
      <point x="981" y="1081" type="line"/>
      <point x="961" y="1020"/>
      <point x="940" y="948"/>
      <point x="942" y="874" type="curve"/>
      <point x="938" y="874" type="line"/>
      <point x="891" y="1024"/>
      <point x="768" y="1102"/>
      <point x="586" y="1102" type="curve" smooth="yes"/>
      <point x="295" y="1102"/>
      <point x="121" y="899"/>
      <point x="121" y="537" type="curve" smooth="yes"/>
      <point x="121" y="176"/>
      <point x="270" y="-20"/>
    </contour>
  </outline>
</glyph>
<glyph name="beta" format="2">
  <advance width="1217"/>
  <unicode hex="03B2"/>
  <anchor x="629" y="0" name="bottom"/>
  <anchor x="629" y="1567" name="top"/>
  <anchor x="1081" y="1567" name="topright"/>
  <outline>
    <contour>
      <point x="647" y="1567" type="curve" smooth="yes"/>
      <point x="350" y="1567"/>
      <point x="186" y="1382"/>
      <point x="186" y="1106" type="curve" smooth="yes"/>
      <point x="186" y="-492" type="line"/>
      <point x="240" y="-492" type="line"/>
      <point x="240" y="111" type="line"/>
      <point x="369" y="29"/>
      <point x="492" y="-8"/>
      <point x="629" y="-8" type="curve" smooth="yes"/>
      <point x="930" y="-8"/>
      <point x="1110" y="166"/>
      <point x="1110" y="428" type="curve" smooth="yes"/>
      <point x="1110" y="664"/>
      <point x="987" y="793"/>
      <point x="786" y="823" type="curve"/>
      <point x="786" y="827" type="line"/>
      <point x="956" y="860"/>
      <point x="1055" y="1006"/>
      <point x="1055" y="1190" type="curve" smooth="yes"/>
      <point x="1055" y="1430"/>
      <point x="903" y="1567"/>
    </contour>
    <contour>
      <point x="647" y="1516" type="curve" smooth="yes"/>
      <point x="879" y="1516"/>
      <point x="999" y="1393"/>
      <point x="999" y="1190" type="curve" smooth="yes"/>
      <point x="999" y="958"/>
      <point x="856" y="848"/>
      <point x="637" y="848" type="curve" smooth="yes"/>
      <point x="516" y="848" type="line"/>
      <point x="516" y="797" type="line"/>
      <point x="637" y="797" type="line" smooth="yes"/>
      <point x="938" y="797"/>
      <point x="1055" y="653"/>
      <point x="1055" y="428" type="curve" smooth="yes"/>
      <point x="1055" y="190"/>
      <point x="893" y="43"/>
      <point x="629" y="43" type="curve" smooth="yes"/>
      <point x="481" y="43"/>
      <point x="360" y="84"/>
      <point x="240" y="166" type="curve"/>
      <point x="240" y="1098" type="line" smooth="yes"/>
      <point x="240" y="1360"/>
      <point x="383" y="1516"/>
    </contour>
  </outline>
</glyph>
<glyph name="delta" format="2">
  <advance width="1161"/>
  <unicode hex="03B4"/>
  <anchor x="582" y="0" name="bottom"/>
  <anchor x="582" y="1573" name="top"/>
  <outline>
    <contour>
      <point x="635" y="1573" type="curve" smooth="yes"/>
      <point x="434" y="1573"/>
      <point x="293" y="1464"/>
      <point x="293" y="1296" type="curve" smooth="yes"/>
      <point x="293" y="1133"/>
      <point x="389" y="1065"/>
      <point x="573" y="958" type="curve"/>
      <point x="248" y="860"/>
      <point x="119" y="676"/>
      <point x="119" y="432" type="curve" smooth="yes"/>
      <point x="119" y="150"/>
      <point x="299" y="-20"/>
      <point x="584" y="-20" type="curve" smooth="yes"/>
      <point x="881" y="-20"/>
      <point x="1040" y="172"/>
      <point x="1040" y="453" type="curve" smooth="yes"/>
      <point x="1040" y="731"/>
      <point x="856" y="852"/>
      <point x="637" y="979" type="curve" smooth="yes"/>
      <point x="449" y="1087"/>
      <point x="348" y="1147"/>
      <point x="348" y="1296" type="curve" smooth="yes"/>
      <point x="348" y="1434"/>
      <point x="449" y="1522"/>
      <point x="635" y="1522" type="curve" smooth="yes"/>
      <point x="756" y="1522"/>
      <point x="856" y="1497"/>
      <point x="975" y="1434" type="curve"/>
      <point x="999" y="1479" type="line"/>
      <point x="862" y="1550"/>
      <point x="748" y="1573"/>
    </contour>
    <contour>
      <point x="625" y="924" type="curve"/>
      <point x="842" y="813"/>
      <point x="985" y="676"/>
      <point x="985" y="453" type="curve" smooth="yes"/>
      <point x="985" y="188"/>
      <point x="842" y="31"/>
      <point x="584" y="31" type="curve" smooth="yes"/>
      <point x="336" y="31"/>
      <point x="174" y="178"/>
      <point x="174" y="432" type="curve" smooth="yes"/>
      <point x="174" y="702"/>
      <point x="340" y="848"/>
    </contour>
  </outline>
</glyph>
<glyph name="eta" format="2">
  <advance width="1174"/>
  <unicode hex="03B7"/>
  <anchor x="588" y="-492" name="bottom"/>
  <anchor x="588" y="1081" name="top"/>
  <outline>
    <contour>
      <point x="633" y="1102" type="curve" smooth="yes"/>
      <point x="403" y="1102"/>
      <point x="287" y="979"/>
      <point x="240" y="854" type="curve"/>
      <point x="236" y="854" type="line"/>
      <point x="227" y="1081" type="line"/>
      <point x="184" y="1081" type="line"/>
      <point x="184" y="0" type="line"/>
      <point x="238" y="0" type="line"/>
      <point x="238" y="618" type="line" smooth="yes"/>
      <point x="238" y="913"/>
      <point x="397" y="1051"/>
      <point x="633" y="1051" type="curve" smooth="yes"/>
      <point x="831" y="1051"/>
      <point x="948" y="946"/>
      <point x="948" y="707" type="curve" smooth="yes"/>
      <point x="948" y="-492" type="line"/>
      <point x="1001" y="-492" type="line"/>
      <point x="1001" y="709" type="line" smooth="yes"/>
      <point x="1001" y="977"/>
      <point x="866" y="1102"/>
    </contour>
  </outline>
</glyph>
<glyph name="theta" format="2">
  <advance width="1137"/>
  <unicode hex="03B8"/>
  <anchor x="569" y="0" name="bottom"/>
  <anchor x="569" y="1587" name="top"/>
  <anchor x="1014" y="1587" name="topright"/>
  <outline>
    <contour>
      <point x="1022" y="807" type="curve" smooth="yes"/>
      <point x="1022" y="1333"/>
      <point x="864" y="1587"/>
      <point x="569" y="1587" type="curve" smooth="yes"/>
      <point x="281" y="1587"/>
      <point x="115" y="1333"/>
      <point x="115" y="803" type="curve" smooth="yes"/>
      <point x="115" y="238"/>
      <point x="274" y="-20"/>
      <point x="565" y="-20" type="curve" smooth="yes"/>
      <point x="858" y="-20"/>
      <point x="1022" y="238"/>
    </contour>
    <contour>
      <point x="565" y="31" type="curve" smooth="yes"/>
      <point x="307" y="31"/>
      <point x="176" y="281"/>
      <point x="170" y="782" type="curve"/>
      <point x="967" y="782" type="line"/>
      <point x="961" y="281"/>
      <point x="831" y="31"/>
    </contour>
    <contour>
      <point x="569" y="1536" type="curve" smooth="yes"/>
      <point x="829" y="1536"/>
      <point x="961" y="1303"/>
      <point x="965" y="834" type="curve"/>
      <point x="170" y="834" type="line"/>
      <point x="176" y="1303"/>
      <point x="313" y="1536"/>
    </contour>
  </outline>
</glyph>
<glyph name="nu" format="2">
  <advance width="1010"/>
  <unicode hex="03BD"/>
  <anchor x="506" y="0" name="bottom"/>
  <anchor x="506" y="1081" name="top"/>
  <outline>
    <contour>
      <point x="-2" y="1081" type="line"/>
      <point x="403" y="0" type="line"/>
      <point x="451" y="0" type="line"/>
      <point x="764" y="272"/>
      <point x="936" y="606"/>
      <point x="936" y="1081" type="curve"/>
      <point x="883" y="1081" type="line"/>
      <point x="883" y="629"/>
      <point x="713" y="301"/>
      <point x="438" y="61" type="curve"/>
      <point x="434" y="61" type="line"/>
      <point x="424" y="90"/>
      <point x="416" y="113"/>
      <point x="408" y="135" type="curve" smooth="yes"/>
      <point x="57" y="1081" type="line"/>
    </contour>
  </outline>
</glyph>
<glyph name="xi" format="2">
  <advance width="918"/>
  <unicode hex="03BE"/>
  <anchor x="459" y="-403" name="bottom"/>
  <anchor x="459" y="1556" name="top"/>
  <outline>
    <contour>
      <point x="121" y="430" type="curve" smooth="yes"/>
      <point x="121" y="180"/>
      <point x="266" y="86"/>
      <point x="518" y="35" type="curve" smooth="yes"/>
      <point x="745" y="-12"/>
      <point x="799" y="-49"/>
      <point x="799" y="-158" type="curve" smooth="yes"/>
      <point x="799" y="-219"/>
      <point x="772" y="-287"/>
      <point x="690" y="-403" type="curve"/>
      <point x="752" y="-403" type="line"/>
      <point x="815" y="-311"/>
      <point x="852" y="-231"/>
      <point x="852" y="-158" type="curve" smooth="yes"/>
      <point x="852" y="-6"/>
      <point x="758" y="35"/>
      <point x="541" y="82" type="curve" smooth="yes"/>
      <point x="315" y="131"/>
      <point x="176" y="197"/>
      <point x="176" y="430" type="curve" smooth="yes"/>
      <point x="176" y="684"/>
      <point x="381" y="799"/>
      <point x="643" y="799" type="curve" smooth="yes"/>
      <point x="778" y="799" type="line"/>
      <point x="778" y="850" type="line"/>
      <point x="643" y="850" type="line" smooth="yes"/>
      <point x="377" y="850"/>
      <point x="242" y="932"/>
      <point x="242" y="1124" type="curve" smooth="yes"/>
      <point x="242" y="1409"/>
      <point x="518" y="1505"/>
      <point x="764" y="1505" type="curve" smooth="yes"/>
      <point x="834" y="1505" type="line"/>
      <point x="834" y="1556" type="line"/>
      <point x="186" y="1556" type="line"/>
      <point x="186" y="1505" type="line"/>
      <point x="291" y="1505" type="line" smooth="yes"/>
      <point x="403" y="1505"/>
      <point x="451" y="1505"/>
      <point x="526" y="1509" type="curve"/>
      <point x="342" y="1464"/>
      <point x="186" y="1348"/>
      <point x="186" y="1124" type="curve" smooth="yes"/>
      <point x="186" y="950"/>
      <point x="287" y="854"/>
      <point x="457" y="823" type="curve"/>
      <point x="457" y="819" type="line"/>
      <point x="262" y="774"/>
      <point x="121" y="653"/>
    </contour>
  </outline>
</glyph>
<glyph name="pi" format="2">
  <advance width="1196"/>
  <unicode hex="03C0"/>
  <anchor x="598" y="0" name="bottom"/>
  <anchor x="598" y="1081" name="top"/>
  <outline>
    <contour>
      <point x="1049" y="31" type="curve" smooth="yes"/>
      <point x="954" y="31"/>
      <point x="918" y="92"/>
      <point x="918" y="205" type="curve" smooth="yes"/>
      <point x="918" y="1034" type="line"/>
      <point x="1143" y="1034" type="line"/>
      <point x="1143" y="1081" type="line"/>
      <point x="201" y="1081" type="line"/>
      <point x="25" y="1079" type="line"/>
      <point x="25" y="1034" type="line"/>
      <point x="244" y="1034" type="line"/>
      <point x="244" y="0" type="line"/>
      <point x="297" y="0" type="line"/>
      <point x="297" y="1034" type="line"/>
      <point x="864" y="1034" type="line"/>
      <point x="864" y="188" type="line" smooth="yes"/>
      <point x="864" y="51"/>
      <point x="928" y="-20"/>
      <point x="1040" y="-20" type="curve" smooth="yes"/>
      <point x="1079" y="-20"/>
      <point x="1110" y="-14"/>
      <point x="1130" y="-8" type="curve"/>
      <point x="1130" y="43" type="line"/>
      <point x="1112" y="37"/>
      <point x="1090" y="31"/>
    </contour>
  </outline>
</glyph>
<glyph name="uni03D0" format="2">
  <advance width="1081"/>
  <unicode hex="03D0"/>
  <anchor x="541" y="-20" name="bottom"/>
  <anchor x="541" y="1587" name="top"/>
  <outline>
    <contour>
      <point x="221" y="1120" type="curve"/>
      <point x="299" y="1090"/>
      <point x="442" y="1049"/>
      <point x="594" y="1049" type="curve" smooth="yes"/>
      <point x="821" y="1049"/>
      <point x="934" y="1159"/>
      <point x="934" y="1323" type="curve" smooth="yes"/>
      <point x="934" y="1448"/>
      <point x="852" y="1587"/>
      <point x="633" y="1587" type="curve" smooth="yes"/>
      <point x="348" y="1587"/>
      <point x="127" y="1343"/>
      <point x="127" y="709" type="curve" smooth="yes"/>
      <point x="127" y="256"/>
      <point x="246" y="-20"/>
      <point x="575" y="-20" type="curve" smooth="yes"/>
      <point x="819" y="-20"/>
      <point x="993" y="172"/>
      <point x="993" y="500" type="curve" smooth="yes"/>
      <point x="993" y="795"/>
      <point x="840" y="948"/>
      <point x="592" y="948" type="curve" smooth="yes"/>
      <point x="373" y="948"/>
      <point x="246" y="831"/>
      <point x="182" y="762" type="curve"/>
      <point x="182" y="870"/>
      <point x="197" y="1038"/>
    </contour>
    <contour>
      <point x="575" y="31" type="curve" smooth="yes"/>
      <point x="279" y="31"/>
      <point x="180" y="293"/>
      <point x="182" y="696" type="curve"/>
      <point x="264" y="786"/>
      <point x="381" y="897"/>
      <point x="592" y="897" type="curve" smooth="yes"/>
      <point x="825" y="897"/>
      <point x="938" y="737"/>
      <point x="938" y="500" type="curve" smooth="yes"/>
      <point x="938" y="199"/>
      <point x="788" y="31"/>
    </contour>
    <contour>
      <point x="633" y="1536" type="curve" smooth="yes"/>
      <point x="807" y="1536"/>
      <point x="879" y="1442"/>
      <point x="879" y="1319" type="curve" smooth="yes"/>
      <point x="879" y="1184"/>
      <point x="778" y="1100"/>
      <point x="594" y="1100" type="curve" smooth="yes"/>
      <point x="457" y="1100"/>
      <point x="309" y="1141"/>
      <point x="236" y="1176" type="curve"/>
      <point x="299" y="1380"/>
      <point x="414" y="1536"/>
    </contour>
  </outline>
</glyph>
<glyph name="uni03D1" format="2">
  <advance width="1135"/>
  <unicode hex="03D1"/>
  <outline>
    <contour>
      <point x="498" y="1587" type="curve" smooth="yes"/>
      <point x="301" y="1587"/>
      <point x="207" y="1464"/>
      <point x="207" y="1307" type="curve" smooth="yes"/>
      <point x="207" y="1024"/>
      <point x="463" y="885"/>
      <point x="911" y="885" type="curve"/>
      <point x="913" y="852"/>
      <point x="915" y="813"/>
      <point x="915" y="772" type="curve" smooth="yes"/>
      <point x="915" y="283"/>
      <point x="786" y="31"/>
      <point x="502" y="31" type="curve" smooth="yes"/>
      <point x="350" y="31"/>
      <point x="233" y="115"/>
      <point x="233" y="313" type="curve" smooth="yes"/>
      <point x="233" y="430"/>
      <point x="268" y="569"/>
      <point x="268" y="684" type="curve" smooth="yes"/>
      <point x="268" y="801"/>
      <point x="203" y="854"/>
      <point x="119" y="854" type="curve" smooth="yes"/>
      <point x="76" y="854"/>
      <point x="43" y="846"/>
      <point x="8" y="829" type="curve"/>
      <point x="23" y="784" type="line"/>
      <point x="49" y="797"/>
      <point x="78" y="803"/>
      <point x="113" y="803" type="curve" smooth="yes"/>
      <point x="170" y="803"/>
      <point x="213" y="770"/>
      <point x="213" y="680" type="curve" smooth="yes"/>
      <point x="213" y="588"/>
      <point x="178" y="436"/>
      <point x="178" y="309" type="curve" smooth="yes"/>
      <point x="178" y="88"/>
      <point x="324" y="-20"/>
      <point x="498" y="-20" type="curve" smooth="yes"/>
      <point x="858" y="-20"/>
      <point x="973" y="348"/>
      <point x="973" y="778" type="curve" smooth="yes"/>
      <point x="973" y="809"/>
      <point x="971" y="852"/>
      <point x="969" y="885" type="curve"/>
      <point x="1106" y="885" type="line"/>
      <point x="1106" y="936" type="line"/>
      <point x="965" y="936" type="line"/>
      <point x="913" y="1411"/>
      <point x="735" y="1587"/>
    </contour>
    <contour>
      <point x="498" y="1536" type="curve" smooth="yes"/>
      <point x="727" y="1536"/>
      <point x="872" y="1309"/>
      <point x="907" y="936" type="curve"/>
      <point x="492" y="936"/>
      <point x="262" y="1061"/>
      <point x="262" y="1307" type="curve" smooth="yes"/>
      <point x="262" y="1444"/>
      <point x="340" y="1536"/>
    </contour>
  </outline>
</glyph>
<glyph name="uni03D7" format="2">
  <advance width="1266"/>
  <unicode hex="03D7"/>
  <outline>
    <contour>
      <point x="1063" y="-492" type="curve" smooth="yes"/>
      <point x="1174" y="-492"/>
      <point x="1227" y="-422"/>
      <point x="1227" y="-330" type="curve" smooth="yes"/>
      <point x="1227" y="49" type="line"/>
      <point x="1204" y="45"/>
      <point x="1188" y="41"/>
      <point x="1159" y="41" type="curve" smooth="yes"/>
      <point x="1020" y="41"/>
      <point x="936" y="111"/>
      <point x="936" y="369" type="curve" smooth="yes"/>
      <point x="936" y="627"/>
      <point x="1024" y="915"/>
      <point x="1139" y="1081" type="curve"/>
      <point x="1069" y="1081" type="line"/>
      <point x="274" y="199" type="line"/>
      <point x="315" y="291"/>
      <point x="393" y="479"/>
      <point x="393" y="741" type="curve" smooth="yes"/>
      <point x="393" y="995"/>
      <point x="297" y="1102"/>
      <point x="152" y="1102" type="curve" smooth="yes"/>
      <point x="98" y="1102"/>
      <point x="55" y="1092"/>
      <point x="25" y="1075" type="curve"/>
      <point x="25" y="1022" type="line"/>
      <point x="59" y="1040"/>
      <point x="102" y="1051"/>
      <point x="147" y="1051" type="curve" smooth="yes"/>
      <point x="264" y="1051"/>
      <point x="338" y="971"/>
      <point x="338" y="733" type="curve" smooth="yes"/>
      <point x="338" y="461"/>
      <point x="233" y="152"/>
      <point x="98" y="0" type="curve"/>
      <point x="170" y="0" type="line"/>
      <point x="995" y="924" type="line"/>
      <point x="944" y="825"/>
      <point x="881" y="625"/>
      <point x="881" y="362" type="curve" smooth="yes"/>
      <point x="881" y="86"/>
      <point x="969" y="-8"/>
      <point x="1174" y="-8" type="curve"/>
      <point x="1174" y="-317" type="line" smooth="yes"/>
      <point x="1174" y="-399"/>
      <point x="1133" y="-442"/>
      <point x="1059" y="-442" type="curve" smooth="yes"/>
      <point x="1030" y="-442"/>
      <point x="995" y="-434"/>
      <point x="973" y="-424" type="curve"/>
      <point x="973" y="-473" type="line"/>
      <point x="993" y="-483"/>
      <point x="1024" y="-492"/>
    </contour>
  </outline>
</glyph>
<glyph name="uni03D9" format="2">
  <advance width="1178"/>
  <unicode hex="03D9"/>
  <anchor x="592" y="-487" name="bottom"/>
  <anchor x="598" y="1081" name="top"/>
  <outline>
    <contour>
      <point x="598" y="1102" type="curve" smooth="yes"/>
      <point x="297" y="1102"/>
      <point x="121" y="885"/>
      <point x="121" y="541" type="curve" smooth="yes"/>
      <point x="121" y="227"/>
      <point x="266" y="-8"/>
      <point x="561" y="-20" type="curve"/>
      <point x="561" y="-487" type="line"/>
      <point x="614" y="-487" type="line"/>
      <point x="614" y="-20" type="line"/>
      <point x="915" y="-6"/>
      <point x="1055" y="233"/>
      <point x="1055" y="541" type="curve" smooth="yes"/>
      <point x="1055" y="854"/>
      <point x="924" y="1102"/>
    </contour>
    <contour>
      <point x="598" y="1051" type="curve" smooth="yes"/>
      <point x="887" y="1051"/>
      <point x="999" y="823"/>
      <point x="999" y="541" type="curve" smooth="yes"/>
      <point x="999" y="244"/>
      <point x="872" y="31"/>
      <point x="586" y="31" type="curve" smooth="yes"/>
      <point x="309" y="31"/>
      <point x="176" y="240"/>
      <point x="176" y="541" type="curve" smooth="yes"/>
      <point x="176" y="860"/>
      <point x="328" y="1051"/>
    </contour>
  </outline>
</glyph>
